<svg width="535" height="68" viewBox="0 0 535 68" fill="none" xmlns="http://www.w3.org/2000/svg">
<path d="M11.2539 43.0742H31.7617V32.8203H28.3438V29.4023H24.9258V25.9844H18.0898V29.4023H14.6719V32.8203H11.2539V43.0742ZM11.2539 63.582H4.41797V29.4023H7.83594V25.9844H11.2539V22.5664H14.6719V19.1484H18.0898V15.7305H24.9258V19.1484H28.3438V22.5664H31.7617V25.9844H35.1797V29.4023H38.5977V63.582H31.7617V49.9102H11.2539V63.582ZM52.2695 43.0742H72.7773V32.8203H69.3594V29.4023H65.9414V25.9844H59.1055V29.4023H55.6875V32.8203H52.2695V43.0742ZM52.2695 63.582H45.4336V29.4023H48.8516V25.9844H52.2695V22.5664H55.6875V19.1484H59.1055V15.7305H65.9414V19.1484H69.3594V22.5664H72.7773V25.9844H76.1953V29.4023H79.6133V63.582H72.7773V49.9102H52.2695V63.582ZM93.2852 22.5664V36.2383H110.375V32.8203H113.793V25.9844H110.375V22.5664H93.2852ZM96.7031 43.0742H93.2852V63.582H86.4492V15.7305H113.793V19.1484H117.211V22.5664H120.629V36.2383H117.211V39.6562H113.793V43.0742H106.957V46.4922H110.375V49.9102H113.793V53.3281H117.211V56.7461H120.629V63.582H113.793V60.1641H110.375V56.7461H106.957V53.3281H103.539V49.9102H100.121V46.4922H96.7031V43.0742ZM151.391 22.5664H137.719V25.9844H134.301V53.3281H137.719V56.7461H151.391V53.3281H154.809V25.9844H151.391V22.5664ZM134.301 19.1484V15.7305H154.809V19.1484H158.227V22.5664H161.645V56.7461H158.227V60.1641H154.809V63.582H134.301V60.1641H130.883V56.7461H127.465V22.5664H130.883V19.1484H134.301ZM175.316 36.2383V63.582H168.48V15.7305H175.316V25.9844H178.734V29.4023H182.152V32.8203H185.57V36.2383H188.988V39.6562H192.406V43.0742H195.824V15.7305H202.66V63.582H195.824V53.3281H192.406V49.9102H188.988V46.4922H185.57V43.0742H182.152V39.6562H178.734V36.2383H175.316ZM284.691 15.7305V22.5664H257.348V36.2383H277.855V43.0742H257.348V63.582H250.512V15.7305H284.691ZM298.363 22.5664V36.2383H315.453V32.8203H318.871V25.9844H315.453V22.5664H298.363ZM301.781 43.0742H298.363V63.582H291.527V15.7305H318.871V19.1484H322.289V22.5664H325.707V36.2383H322.289V39.6562H318.871V43.0742H312.035V46.4922H315.453V49.9102H318.871V53.3281H322.289V56.7461H325.707V63.582H318.871V60.1641H315.453V56.7461H312.035V53.3281H308.617V49.9102H305.199V46.4922H301.781V43.0742ZM339.379 43.0742H359.887V32.8203H356.469V29.4023H353.051V25.9844H346.215V29.4023H342.797V32.8203H339.379V43.0742ZM339.379 63.582H332.543V29.4023H335.961V25.9844H339.379V22.5664H342.797V19.1484H346.215V15.7305H353.051V19.1484H356.469V22.5664H359.887V25.9844H363.305V29.4023H366.723V63.582H359.887V49.9102H339.379V63.582ZM380.395 36.2383V63.582H373.559V15.7305H380.395V25.9844H383.812V29.4023H387.23V32.8203H390.648V36.2383H394.066V39.6562H397.484V43.0742H400.902V15.7305H407.738V63.582H400.902V53.3281H397.484V49.9102H394.066V46.4922H390.648V43.0742H387.23V39.6562H383.812V36.2383H380.395ZM424.828 56.7461H438.5V53.3281H441.918V49.9102H448.754V56.7461H445.336V60.1641H441.918V63.582H421.41V60.1641H417.992V56.7461H414.574V22.5664H417.992V19.1484H421.41V15.7305H441.918V19.1484H445.336V22.5664H448.754V29.4023H441.918V25.9844H438.5V22.5664H424.828V25.9844H421.41V53.3281H424.828V56.7461ZM462.426 63.582V56.7461H469.262V22.5664H462.426V15.7305H482.934V22.5664H476.098V56.7461H482.934V63.582H462.426ZM527.367 22.5664H530.785V29.4023H523.949V25.9844H520.531V22.5664H506.859V25.9844H503.441V32.8203H506.859V36.2383H523.949V39.6562H527.367V43.0742H530.785V56.7461H527.367V60.1641H523.949V63.582H503.441V60.1641H500.023V56.7461H496.605V49.9102H503.441V53.3281H506.859V56.7461H520.531V53.3281H523.949V46.4922H520.531V43.0742H503.441V39.6562H500.023V36.2383H496.605V22.5664H500.023V19.1484H503.441V15.7305H523.949V19.1484H527.367V22.5664Z" fill="black"/>
<path d="M10.2539 39.0742H30.7617V28.8203H27.3438V25.4023H23.9258V21.9844H17.0898V25.4023H13.6719V28.8203H10.2539V39.0742ZM10.2539 59.582H3.41797V25.4023H6.83594V21.9844H10.2539V18.5664H13.6719V15.1484H17.0898V11.7305H23.9258V15.1484H27.3438V18.5664H30.7617V21.9844H34.1797V25.4023H37.5977V59.582H30.7617V45.9102H10.2539V59.582ZM51.2695 39.0742H71.7773V28.8203H68.3594V25.4023H64.9414V21.9844H58.1055V25.4023H54.6875V28.8203H51.2695V39.0742ZM51.2695 59.582H44.4336V25.4023H47.8516V21.9844H51.2695V18.5664H54.6875V15.1484H58.1055V11.7305H64.9414V15.1484H68.3594V18.5664H71.7773V21.9844H75.1953V25.4023H78.6133V59.582H71.7773V45.9102H51.2695V59.582ZM92.2852 18.5664V32.2383H109.375V28.8203H112.793V21.9844H109.375V18.5664H92.2852ZM95.7031 39.0742H92.2852V59.582H85.4492V11.7305H112.793V15.1484H116.211V18.5664H119.629V32.2383H116.211V35.6562H112.793V39.0742H105.957V42.4922H109.375V45.9102H112.793V49.3281H116.211V52.7461H119.629V59.582H112.793V56.1641H109.375V52.7461H105.957V49.3281H102.539V45.9102H99.1211V42.4922H95.7031V39.0742ZM150.391 18.5664H136.719V21.9844H133.301V49.3281H136.719V52.7461H150.391V49.3281H153.809V21.9844H150.391V18.5664ZM133.301 15.1484V11.7305H153.809V15.1484H157.227V18.5664H160.645V52.7461H157.227V56.1641H153.809V59.582H133.301V56.1641H129.883V52.7461H126.465V18.5664H129.883V15.1484H133.301ZM174.316 32.2383V59.582H167.48V11.7305H174.316V21.9844H177.734V25.4023H181.152V28.8203H184.57V32.2383H187.988V35.6562H191.406V39.0742H194.824V11.7305H201.66V59.582H194.824V49.3281H191.406V45.9102H187.988V42.4922H184.57V39.0742H181.152V35.6562H177.734V32.2383H174.316ZM283.691 11.7305V18.5664H256.348V32.2383H276.855V39.0742H256.348V59.582H249.512V11.7305H283.691ZM297.363 18.5664V32.2383H314.453V28.8203H317.871V21.9844H314.453V18.5664H297.363ZM300.781 39.0742H297.363V59.582H290.527V11.7305H317.871V15.1484H321.289V18.5664H324.707V32.2383H321.289V35.6562H317.871V39.0742H311.035V42.4922H314.453V45.9102H317.871V49.3281H321.289V52.7461H324.707V59.582H317.871V56.1641H314.453V52.7461H311.035V49.3281H307.617V45.9102H304.199V42.4922H300.781V39.0742ZM338.379 39.0742H358.887V28.8203H355.469V25.4023H352.051V21.9844H345.215V25.4023H341.797V28.8203H338.379V39.0742ZM338.379 59.582H331.543V25.4023H334.961V21.9844H338.379V18.5664H341.797V15.1484H345.215V11.7305H352.051V15.1484H355.469V18.5664H358.887V21.9844H362.305V25.4023H365.723V59.582H358.887V45.9102H338.379V59.582ZM379.395 32.2383V59.582H372.559V11.7305H379.395V21.9844H382.812V25.4023H386.23V28.8203H389.648V32.2383H393.066V35.6562H396.484V39.0742H399.902V11.7305H406.738V59.582H399.902V49.3281H396.484V45.9102H393.066V42.4922H389.648V39.0742H386.23V35.6562H382.812V32.2383H379.395ZM423.828 52.7461H437.5V49.3281H440.918V45.9102H447.754V52.7461H444.336V56.1641H440.918V59.582H420.41V56.1641H416.992V52.7461H413.574V18.5664H416.992V15.1484H420.41V11.7305H440.918V15.1484H444.336V18.5664H447.754V25.4023H440.918V21.9844H437.5V18.5664H423.828V21.9844H420.41V49.3281H423.828V52.7461ZM461.426 59.582V52.7461H468.262V18.5664H461.426V11.7305H481.934V18.5664H475.098V52.7461H481.934V59.582H461.426ZM526.367 18.5664H529.785V25.4023H522.949V21.9844H519.531V18.5664H505.859V21.9844H502.441V28.8203H505.859V32.2383H522.949V35.6562H526.367V39.0742H529.785V52.7461H526.367V56.1641H522.949V59.582H502.441V56.1641H499.023V52.7461H495.605V45.9102H502.441V49.3281H505.859V52.7461H519.531V49.3281H522.949V42.4922H519.531V39.0742H502.441V35.6562H499.023V32.2383H495.605V18.5664H499.023V15.1484H502.441V11.7305H522.949V15.1484H526.367V18.5664Z" fill="#5456B9"/>
<mask id="mask0_390_5887" style="mask-type:alpha" maskUnits="userSpaceOnUse" x="3" y="11" width="527" height="49">
<path d="M10.2539 39.0742H30.7617V28.8203H27.3438V25.4023H23.9258V21.9844H17.0898V25.4023H13.6719V28.8203H10.2539V39.0742ZM10.2539 59.582H3.41797V25.4023H6.83594V21.9844H10.2539V18.5664H13.6719V15.1484H17.0898V11.7305H23.9258V15.1484H27.3438V18.5664H30.7617V21.9844H34.1797V25.4023H37.5977V59.582H30.7617V45.9102H10.2539V59.582ZM51.2695 39.0742H71.7773V28.8203H68.3594V25.4023H64.9414V21.9844H58.1055V25.4023H54.6875V28.8203H51.2695V39.0742ZM51.2695 59.582H44.4336V25.4023H47.8516V21.9844H51.2695V18.5664H54.6875V15.1484H58.1055V11.7305H64.9414V15.1484H68.3594V18.5664H71.7773V21.9844H75.1953V25.4023H78.6133V59.582H71.7773V45.9102H51.2695V59.582ZM92.2852 18.5664V32.2383H109.375V28.8203H112.793V21.9844H109.375V18.5664H92.2852ZM95.7031 39.0742H92.2852V59.582H85.4492V11.7305H112.793V15.1484H116.211V18.5664H119.629V32.2383H116.211V35.6562H112.793V39.0742H105.957V42.4922H109.375V45.9102H112.793V49.3281H116.211V52.7461H119.629V59.582H112.793V56.1641H109.375V52.7461H105.957V49.3281H102.539V45.9102H99.1211V42.4922H95.7031V39.0742ZM150.391 18.5664H136.719V21.9844H133.301V49.3281H136.719V52.7461H150.391V49.3281H153.809V21.9844H150.391V18.5664ZM133.301 15.1484V11.7305H153.809V15.1484H157.227V18.5664H160.645V52.7461H157.227V56.1641H153.809V59.582H133.301V56.1641H129.883V52.7461H126.465V18.5664H129.883V15.1484H133.301ZM174.316 32.2383V59.582H167.48V11.7305H174.316V21.9844H177.734V25.4023H181.152V28.8203H184.57V32.2383H187.988V35.6562H191.406V39.0742H194.824V11.7305H201.66V59.582H194.824V49.3281H191.406V45.9102H187.988V42.4922H184.57V39.0742H181.152V35.6562H177.734V32.2383H174.316ZM283.691 11.7305V18.5664H256.348V32.2383H276.855V39.0742H256.348V59.582H249.512V11.7305H283.691ZM297.363 18.5664V32.2383H314.453V28.8203H317.871V21.9844H314.453V18.5664H297.363ZM300.781 39.0742H297.363V59.582H290.527V11.7305H317.871V15.1484H321.289V18.5664H324.707V32.2383H321.289V35.6562H317.871V39.0742H311.035V42.4922H314.453V45.9102H317.871V49.3281H321.289V52.7461H324.707V59.582H317.871V56.1641H314.453V52.7461H311.035V49.3281H307.617V45.9102H304.199V42.4922H300.781V39.0742ZM338.379 39.0742H358.887V28.8203H355.469V25.4023H352.051V21.9844H345.215V25.4023H341.797V28.8203H338.379V39.0742ZM338.379 59.582H331.543V25.4023H334.961V21.9844H338.379V18.5664H341.797V15.1484H345.215V11.7305H352.051V15.1484H355.469V18.5664H358.887V21.9844H362.305V25.4023H365.723V59.582H358.887V45.9102H338.379V59.582ZM379.395 32.2383V59.582H372.559V11.7305H379.395V21.9844H382.812V25.4023H386.23V28.8203H389.648V32.2383H393.066V35.6562H396.484V39.0742H399.902V11.7305H406.738V59.582H399.902V49.3281H396.484V45.9102H393.066V42.4922H389.648V39.0742H386.23V35.6562H382.812V32.2383H379.395ZM423.828 52.7461H437.5V49.3281H440.918V45.9102H447.754V52.7461H444.336V56.1641H440.918V59.582H420.41V56.1641H416.992V52.7461H413.574V18.5664H416.992V15.1484H420.41V11.7305H440.918V15.1484H444.336V18.5664H447.754V25.4023H440.918V21.9844H437.5V18.5664H423.828V21.9844H420.41V49.3281H423.828V52.7461ZM461.426 59.582V52.7461H468.262V18.5664H461.426V11.7305H481.934V18.5664H475.098V52.7461H481.934V59.582H461.426ZM526.367 18.5664H529.785V25.4023H522.949V21.9844H519.531V18.5664H505.859V21.9844H502.441V28.8203H505.859V32.2383H522.949V35.6562H526.367V39.0742H529.785V52.7461H526.367V56.1641H522.949V59.582H502.441V56.1641H499.023V52.7461H495.605V45.9102H502.441V49.3281H505.859V52.7461H519.531V49.3281H522.949V42.4922H519.531V39.0742H502.441V35.6562H499.023V32.2383H495.605V18.5664H499.023V15.1484H502.441V11.7305H522.949V15.1484H526.367V18.5664Z" fill="#E27152"/>
</mask>
<g mask="url(#mask0_390_5887)">
<mask id="mask1_390_5887" style="mask-type:alpha" maskUnits="userSpaceOnUse" x="2" y="13" width="529" height="42">
<line x1="2" y1="14" x2="531" y2="14" stroke="black" stroke-width="2"/>
<line x1="2" y1="24" x2="531" y2="24" stroke="black" stroke-width="2"/>
<line x1="2" y1="34" x2="531" y2="34" stroke="black" stroke-width="2"/>
<line x1="2" y1="44" x2="531" y2="44" stroke="black" stroke-width="2"/>
<line x1="2" y1="54" x2="531" y2="54" stroke="black" stroke-width="2"/>
</mask>
<g mask="url(#mask1_390_5887)">
<rect x="2" y="6" width="527" height="61" fill="url(#paint0_linear_390_5887)"/>
</g>
</g>
<defs>
<linearGradient id="paint0_linear_390_5887" x1="265.5" y1="6" x2="265.5" y2="67" gradientUnits="userSpaceOnUse">
<stop stop-color="#F3900F"/>
<stop offset="0.419792" stop-color="#9294E8"/>
<stop offset="1" stop-color="#EDEDFF"/>
</linearGradient>
</defs>
</svg>
