<svg width="298" height="104" viewBox="0 0 298 104" fill="none" xmlns="http://www.w3.org/2000/svg">
<g clip-path="url(#clip0_1_20)">
<path d="M72.9902 34.2012H89.1035V26.1445H86.418V23.459H83.7324V20.7734H78.3613V23.459H75.6758V26.1445H72.9902V34.2012ZM72.9902 50.3145H67.6191V23.459H70.3047V20.7734H72.9902V18.0879H75.6758V15.4023H78.3613V12.7168H83.7324V15.4023H86.418V18.0879H89.1035V20.7734H91.7891V23.459H94.4746V50.3145H89.1035V39.5723H72.9902V50.3145ZM105.217 34.2012H121.33V26.1445H118.645V23.459H115.959V20.7734H110.588V23.459H107.902V26.1445H105.217V34.2012ZM105.217 50.3145H99.8457V23.459H102.531V20.7734H105.217V18.0879H107.902V15.4023H110.588V12.7168H115.959V15.4023H118.645V18.0879H121.33V20.7734H124.016V23.459H126.701V50.3145H121.33V39.5723H105.217V50.3145ZM137.443 18.0879V28.8301H150.871V26.1445H153.557V20.7734H150.871V18.0879H137.443ZM140.129 34.2012H137.443V50.3145H132.072V12.7168H153.557V15.4023H156.242V18.0879H158.928V28.8301H156.242V31.5156H153.557V34.2012H148.186V36.8867H150.871V39.5723H153.557V42.2578H156.242V44.9434H158.928V50.3145H153.557V47.6289H150.871V44.9434H148.186V42.2578H145.5V39.5723H142.814V36.8867H140.129V34.2012ZM183.098 18.0879H172.355V20.7734H169.67V42.2578H172.355V44.9434H183.098V42.2578H185.783V20.7734H183.098V18.0879ZM169.67 15.4023V12.7168H185.783V15.4023H188.469V18.0879H191.154V44.9434H188.469V47.6289H185.783V50.3145H169.67V47.6289H166.984V44.9434H164.299V18.0879H166.984V15.4023H169.67ZM201.896 28.8301V50.3145H196.525V12.7168H201.896V20.7734H204.582V23.459H207.268V26.1445H209.953V28.8301H212.639V31.5156H215.324V34.2012H218.01V12.7168H223.381V50.3145H218.01V42.2578H215.324V39.5723H212.639V36.8867H209.953V34.2012H207.268V31.5156H204.582V28.8301H201.896ZM62.248 62.7168V68.0879H40.7637V78.8301H56.877V84.2012H40.7637V100.314H35.3926V62.7168H62.248ZM72.9902 68.0879V78.8301H86.418V76.1445H89.1035V70.7734H86.418V68.0879H72.9902ZM75.6758 84.2012H72.9902V100.314H67.6191V62.7168H89.1035V65.4023H91.7891V68.0879H94.4746V78.8301H91.7891V81.5156H89.1035V84.2012H83.7324V86.8867H86.418V89.5723H89.1035V92.2578H91.7891V94.9434H94.4746V100.314H89.1035V97.6289H86.418V94.9434H83.7324V92.2578H81.0469V89.5723H78.3613V86.8867H75.6758V84.2012ZM105.217 84.2012H121.33V76.1445H118.645V73.459H115.959V70.7734H110.588V73.459H107.902V76.1445H105.217V84.2012ZM105.217 100.314H99.8457V73.459H102.531V70.7734H105.217V68.0879H107.902V65.4023H110.588V62.7168H115.959V65.4023H118.645V68.0879H121.33V70.7734H124.016V73.459H126.701V100.314H121.33V89.5723H105.217V100.314ZM137.443 78.8301V100.314H132.072V62.7168H137.443V70.7734H140.129V73.459H142.814V76.1445H145.5V78.8301H148.186V81.5156H150.871V84.2012H153.557V62.7168H158.928V100.314H153.557V92.2578H150.871V89.5723H148.186V86.8867H145.5V84.2012H142.814V81.5156H140.129V78.8301H137.443ZM172.355 94.9434H183.098V92.2578H185.783V89.5723H191.154V94.9434H188.469V97.6289H185.783V100.314H169.67V97.6289H166.984V94.9434H164.299V68.0879H166.984V65.4023H169.67V62.7168H185.783V65.4023H188.469V68.0879H191.154V73.459H185.783V70.7734H183.098V68.0879H172.355V70.7734H169.67V92.2578H172.355V94.9434ZM201.896 100.314V94.9434H207.268V68.0879H201.896V62.7168H218.01V68.0879H212.639V94.9434H218.01V100.314H201.896ZM252.922 68.0879H255.607V73.459H250.236V70.7734H247.551V68.0879H236.809V70.7734H234.123V76.1445H236.809V78.8301H250.236V81.5156H252.922V84.2012H255.607V94.9434H252.922V97.6289H250.236V100.314H234.123V97.6289H231.438V94.9434H228.752V89.5723H234.123V92.2578H236.809V94.9434H247.551V92.2578H250.236V86.8867H247.551V84.2012H234.123V81.5156H231.438V78.8301H228.752V68.0879H231.438V65.4023H234.123V62.7168H250.236V65.4023H252.922V68.0879Z" fill="black"/>
<path d="M71.9902 30.2012H88.1035V22.1445H85.418V19.459H82.7324V16.7734H77.3613V19.459H74.6758V22.1445H71.9902V30.2012ZM71.9902 46.3145H66.6191V19.459H69.3047V16.7734H71.9902V14.0879H74.6758V11.4023H77.3613V8.7168H82.7324V11.4023H85.418V14.0879H88.1035V16.7734H90.7891V19.459H93.4746V46.3145H88.1035V35.5723H71.9902V46.3145ZM104.217 30.2012H120.33V22.1445H117.645V19.459H114.959V16.7734H109.588V19.459H106.902V22.1445H104.217V30.2012ZM104.217 46.3145H98.8457V19.459H101.531V16.7734H104.217V14.0879H106.902V11.4023H109.588V8.7168H114.959V11.4023H117.645V14.0879H120.33V16.7734H123.016V19.459H125.701V46.3145H120.33V35.5723H104.217V46.3145ZM136.443 14.0879V24.8301H149.871V22.1445H152.557V16.7734H149.871V14.0879H136.443ZM139.129 30.2012H136.443V46.3145H131.072V8.7168H152.557V11.4023H155.242V14.0879H157.928V24.8301H155.242V27.5156H152.557V30.2012H147.186V32.8867H149.871V35.5723H152.557V38.2578H155.242V40.9434H157.928V46.3145H152.557V43.6289H149.871V40.9434H147.186V38.2578H144.5V35.5723H141.814V32.8867H139.129V30.2012ZM182.098 14.0879H171.355V16.7734H168.67V38.2578H171.355V40.9434H182.098V38.2578H184.783V16.7734H182.098V14.0879ZM168.67 11.4023V8.7168H184.783V11.4023H187.469V14.0879H190.154V40.9434H187.469V43.6289H184.783V46.3145H168.67V43.6289H165.984V40.9434H163.299V14.0879H165.984V11.4023H168.67ZM200.896 24.8301V46.3145H195.525V8.7168H200.896V16.7734H203.582V19.459H206.268V22.1445H208.953V24.8301H211.639V27.5156H214.324V30.2012H217.01V8.7168H222.381V46.3145H217.01V38.2578H214.324V35.5723H211.639V32.8867H208.953V30.2012H206.268V27.5156H203.582V24.8301H200.896ZM61.248 58.7168V64.0879H39.7637V74.8301H55.877V80.2012H39.7637V96.3145H34.3926V58.7168H61.248ZM71.9902 64.0879V74.8301H85.418V72.1445H88.1035V66.7734H85.418V64.0879H71.9902ZM74.6758 80.2012H71.9902V96.3145H66.6191V58.7168H88.1035V61.4023H90.7891V64.0879H93.4746V74.8301H90.7891V77.5156H88.1035V80.2012H82.7324V82.8867H85.418V85.5723H88.1035V88.2578H90.7891V90.9434H93.4746V96.3145H88.1035V93.6289H85.418V90.9434H82.7324V88.2578H80.0469V85.5723H77.3613V82.8867H74.6758V80.2012ZM104.217 80.2012H120.33V72.1445H117.645V69.459H114.959V66.7734H109.588V69.459H106.902V72.1445H104.217V80.2012ZM104.217 96.3145H98.8457V69.459H101.531V66.7734H104.217V64.0879H106.902V61.4023H109.588V58.7168H114.959V61.4023H117.645V64.0879H120.33V66.7734H123.016V69.459H125.701V96.3145H120.33V85.5723H104.217V96.3145ZM136.443 74.8301V96.3145H131.072V58.7168H136.443V66.7734H139.129V69.459H141.814V72.1445H144.5V74.8301H147.186V77.5156H149.871V80.2012H152.557V58.7168H157.928V96.3145H152.557V88.2578H149.871V85.5723H147.186V82.8867H144.5V80.2012H141.814V77.5156H139.129V74.8301H136.443ZM171.355 90.9434H182.098V88.2578H184.783V85.5723H190.154V90.9434H187.469V93.6289H184.783V96.3145H168.67V93.6289H165.984V90.9434H163.299V64.0879H165.984V61.4023H168.67V58.7168H184.783V61.4023H187.469V64.0879H190.154V69.459H184.783V66.7734H182.098V64.0879H171.355V66.7734H168.67V88.2578H171.355V90.9434ZM200.896 96.3145V90.9434H206.268V64.0879H200.896V58.7168H217.01V64.0879H211.639V90.9434H217.01V96.3145H200.896ZM251.922 64.0879H254.607V69.459H249.236V66.7734H246.551V64.0879H235.809V66.7734H233.123V72.1445H235.809V74.8301H249.236V77.5156H251.922V80.2012H254.607V90.9434H251.922V93.6289H249.236V96.3145H233.123V93.6289H230.438V90.9434H227.752V85.5723H233.123V88.2578H235.809V90.9434H246.551V88.2578H249.236V82.8867H246.551V80.2012H233.123V77.5156H230.438V74.8301H227.752V64.0879H230.438V61.4023H233.123V58.7168H249.236V61.4023H251.922V64.0879Z" fill="#5456B9"/>
<mask id="mask0_1_20" style="mask-type:alpha" maskUnits="userSpaceOnUse" x="34" y="8" width="221" height="89">
<path d="M71.9902 30.2012H88.1035V22.1445H85.418V19.459H82.7324V16.7734H77.3613V19.459H74.6758V22.1445H71.9902V30.2012ZM71.9902 46.3145H66.6191V19.459H69.3047V16.7734H71.9902V14.0879H74.6758V11.4023H77.3613V8.7168H82.7324V11.4023H85.418V14.0879H88.1035V16.7734H90.7891V19.459H93.4746V46.3145H88.1035V35.5723H71.9902V46.3145ZM104.217 30.2012H120.33V22.1445H117.645V19.459H114.959V16.7734H109.588V19.459H106.902V22.1445H104.217V30.2012ZM104.217 46.3145H98.8457V19.459H101.531V16.7734H104.217V14.0879H106.902V11.4023H109.588V8.7168H114.959V11.4023H117.645V14.0879H120.33V16.7734H123.016V19.459H125.701V46.3145H120.33V35.5723H104.217V46.3145ZM136.443 14.0879V24.8301H149.871V22.1445H152.557V16.7734H149.871V14.0879H136.443ZM139.129 30.2012H136.443V46.3145H131.072V8.7168H152.557V11.4023H155.242V14.0879H157.928V24.8301H155.242V27.5156H152.557V30.2012H147.186V32.8867H149.871V35.5723H152.557V38.2578H155.242V40.9434H157.928V46.3145H152.557V43.6289H149.871V40.9434H147.186V38.2578H144.5V35.5723H141.814V32.8867H139.129V30.2012ZM182.098 14.0879H171.355V16.7734H168.67V38.2578H171.355V40.9434H182.098V38.2578H184.783V16.7734H182.098V14.0879ZM168.67 11.4023V8.7168H184.783V11.4023H187.469V14.0879H190.154V40.9434H187.469V43.6289H184.783V46.3145H168.67V43.6289H165.984V40.9434H163.299V14.0879H165.984V11.4023H168.67ZM200.896 24.8301V46.3145H195.525V8.7168H200.896V16.7734H203.582V19.459H206.268V22.1445H208.953V24.8301H211.639V27.5156H214.324V30.2012H217.01V8.7168H222.381V46.3145H217.01V38.2578H214.324V35.5723H211.639V32.8867H208.953V30.2012H206.268V27.5156H203.582V24.8301H200.896ZM61.248 58.7168V64.0879H39.7637V74.8301H55.877V80.2012H39.7637V96.3145H34.3926V58.7168H61.248ZM71.9902 64.0879V74.8301H85.418V72.1445H88.1035V66.7734H85.418V64.0879H71.9902ZM74.6758 80.2012H71.9902V96.3145H66.6191V58.7168H88.1035V61.4023H90.7891V64.0879H93.4746V74.8301H90.7891V77.5156H88.1035V80.2012H82.7324V82.8867H85.418V85.5723H88.1035V88.2578H90.7891V90.9434H93.4746V96.3145H88.1035V93.6289H85.418V90.9434H82.7324V88.2578H80.0469V85.5723H77.3613V82.8867H74.6758V80.2012ZM104.217 80.2012H120.33V72.1445H117.645V69.459H114.959V66.7734H109.588V69.459H106.902V72.1445H104.217V80.2012ZM104.217 96.3145H98.8457V69.459H101.531V66.7734H104.217V64.0879H106.902V61.4023H109.588V58.7168H114.959V61.4023H117.645V64.0879H120.33V66.7734H123.016V69.459H125.701V96.3145H120.33V85.5723H104.217V96.3145ZM136.443 74.8301V96.3145H131.072V58.7168H136.443V66.7734H139.129V69.459H141.814V72.1445H144.5V74.8301H147.186V77.5156H149.871V80.2012H152.557V58.7168H157.928V96.3145H152.557V88.2578H149.871V85.5723H147.186V82.8867H144.5V80.2012H141.814V77.5156H139.129V74.8301H136.443ZM171.355 90.9434H182.098V88.2578H184.783V85.5723H190.154V90.9434H187.469V93.6289H184.783V96.3145H168.67V93.6289H165.984V90.9434H163.299V64.0879H165.984V61.4023H168.67V58.7168H184.783V61.4023H187.469V64.0879H190.154V69.459H184.783V66.7734H182.098V64.0879H171.355V66.7734H168.67V88.2578H171.355V90.9434ZM200.896 96.3145V90.9434H206.268V64.0879H200.896V58.7168H217.01V64.0879H211.639V90.9434H217.01V96.3145H200.896ZM251.922 64.0879H254.607V69.459H249.236V66.7734H246.551V64.0879H235.809V66.7734H233.123V72.1445H235.809V74.8301H249.236V77.5156H251.922V80.2012H254.607V90.9434H251.922V93.6289H249.236V96.3145H233.123V93.6289H230.438V90.9434H227.752V85.5723H233.123V88.2578H235.809V90.9434H246.551V88.2578H249.236V82.8867H246.551V80.2012H233.123V77.5156H230.438V74.8301H227.752V64.0879H230.438V61.4023H233.123V58.7168H249.236V61.4023H251.922V64.0879Z" fill="#E27152"/>
</mask>
<g mask="url(#mask0_1_20)">
<mask id="mask1_1_20" style="mask-type:alpha" maskUnits="userSpaceOnUse" x="33" y="13" width="225" height="82">
<line x1="33" y1="14" x2="258" y2="14" stroke="black" stroke-width="2"/>
<line x1="33" y1="24" x2="258" y2="24" stroke="black" stroke-width="2"/>
<line x1="33" y1="34" x2="258" y2="34" stroke="black" stroke-width="2"/>
<line x1="33" y1="44" x2="258" y2="44" stroke="black" stroke-width="2"/>
<line x1="33" y1="54" x2="258" y2="54" stroke="black" stroke-width="2"/>
<line x1="33" y1="64" x2="258" y2="64" stroke="black" stroke-width="2"/>
<line x1="33" y1="74" x2="258" y2="74" stroke="black" stroke-width="2"/>
<line x1="33" y1="84" x2="258" y2="84" stroke="black" stroke-width="2"/>
<line x1="33" y1="94" x2="258" y2="94" stroke="black" stroke-width="2"/>
</mask>
<g mask="url(#mask1_1_20)">
<rect x="34" y="6" width="224" height="94" fill="url(#paint0_linear_1_20)"/>
</g>
</g>
</g>
<defs>
<linearGradient id="paint0_linear_1_20" x1="146" y1="6" x2="146" y2="100" gradientUnits="userSpaceOnUse">
<stop stop-color="#F3900F"/>
<stop offset="0.419792" stop-color="#9294E8"/>
<stop offset="1" stop-color="#EDEDFF"/>
</linearGradient>
<clipPath id="clip0_1_20">
<rect width="298" height="104" fill="white"/>
</clipPath>
</defs>
</svg>
