<svg width="291" height="104" viewBox="0 0 291 104" fill="none" xmlns="http://www.w3.org/2000/svg">
<path d="M89.1035 34.2012H105.217V26.1445H102.531V23.459H99.8457V20.7734H94.4746V23.459H91.7891V26.1445H89.1035V34.2012ZM89.1035 50.3145H83.7324V23.459H86.418V20.7734H89.1035V18.0879H91.7891V15.4023H94.4746V12.7168H99.8457V15.4023H102.531V18.0879H105.217V20.7734H107.902V23.459H110.588V50.3145H105.217V39.5723H89.1035V50.3145ZM121.33 18.0879V44.9434H134.758V42.2578H137.443V20.7734H134.758V18.0879H121.33ZM115.959 50.3145V12.7168H137.443V15.4023H140.129V18.0879H142.814V44.9434H140.129V47.6289H137.443V50.3145H115.959ZM153.557 34.2012H169.67V26.1445H166.984V23.459H164.299V20.7734H158.928V23.459H156.242V26.1445H153.557V34.2012ZM153.557 50.3145H148.186V23.459H150.871V20.7734H153.557V18.0879H156.242V15.4023H158.928V12.7168H164.299V15.4023H166.984V18.0879H169.67V20.7734H172.355V23.459H175.041V50.3145H169.67V39.5723H153.557V50.3145ZM185.783 50.3145H180.412V12.7168H185.783V18.0879H188.469V20.7734H191.154V23.459H196.525V20.7734H199.211V18.0879H201.896V12.7168H207.268V50.3145H201.896V26.1445H199.211V28.8301H196.525V34.2012H191.154V28.8301H188.469V26.1445H185.783V50.3145ZM78.3613 62.7168V68.0879H56.877V78.8301H72.9902V84.2012H56.877V94.9434H78.3613V100.314H51.5059V62.7168H78.3613ZM83.7324 100.314V62.7168H89.1035V94.9434H110.588V100.314H83.7324ZM121.33 100.314H115.959V62.7168H121.33V68.0879H124.016V70.7734H126.701V73.459H132.072V70.7734H134.758V68.0879H137.443V62.7168H142.814V100.314H137.443V76.1445H134.758V78.8301H132.072V84.2012H126.701V78.8301H124.016V76.1445H121.33V100.314ZM166.984 68.0879H156.242V70.7734H153.557V92.2578H156.242V94.9434H166.984V92.2578H169.67V70.7734H166.984V68.0879ZM153.557 65.4023V62.7168H169.67V65.4023H172.355V68.0879H175.041V94.9434H172.355V97.6289H169.67V100.314H153.557V97.6289H150.871V94.9434H148.186V68.0879H150.871V65.4023H153.557ZM185.783 68.0879V78.8301H199.211V76.1445H201.896V70.7734H199.211V68.0879H185.783ZM188.469 84.2012H185.783V100.314H180.412V62.7168H201.896V65.4023H204.582V68.0879H207.268V78.8301H204.582V81.5156H201.896V84.2012H196.525V86.8867H199.211V89.5723H201.896V92.2578H204.582V94.9434H207.268V100.314H201.896V97.6289H199.211V94.9434H196.525V92.2578H193.84V89.5723H191.154V86.8867H188.469V84.2012ZM239.494 62.7168V68.0879H218.01V78.8301H234.123V84.2012H218.01V94.9434H239.494V100.314H212.639V62.7168H239.494Z" fill="black"/>
<path d="M88.1035 30.2012H104.217V22.1445H101.531V19.459H98.8457V16.7734H93.4746V19.459H90.7891V22.1445H88.1035V30.2012ZM88.1035 46.3145H82.7324V19.459H85.418V16.7734H88.1035V14.0879H90.7891V11.4023H93.4746V8.7168H98.8457V11.4023H101.531V14.0879H104.217V16.7734H106.902V19.459H109.588V46.3145H104.217V35.5723H88.1035V46.3145ZM120.33 14.0879V40.9434H133.758V38.2578H136.443V16.7734H133.758V14.0879H120.33ZM114.959 46.3145V8.7168H136.443V11.4023H139.129V14.0879H141.814V40.9434H139.129V43.6289H136.443V46.3145H114.959ZM152.557 30.2012H168.67V22.1445H165.984V19.459H163.299V16.7734H157.928V19.459H155.242V22.1445H152.557V30.2012ZM152.557 46.3145H147.186V19.459H149.871V16.7734H152.557V14.0879H155.242V11.4023H157.928V8.7168H163.299V11.4023H165.984V14.0879H168.67V16.7734H171.355V19.459H174.041V46.3145H168.67V35.5723H152.557V46.3145ZM184.783 46.3145H179.412V8.7168H184.783V14.0879H187.469V16.7734H190.154V19.459H195.525V16.7734H198.211V14.0879H200.896V8.7168H206.268V46.3145H200.896V22.1445H198.211V24.8301H195.525V30.2012H190.154V24.8301H187.469V22.1445H184.783V46.3145ZM77.3613 58.7168V64.0879H55.877V74.8301H71.9902V80.2012H55.877V90.9434H77.3613V96.3145H50.5059V58.7168H77.3613ZM82.7324 96.3145V58.7168H88.1035V90.9434H109.588V96.3145H82.7324ZM120.33 96.3145H114.959V58.7168H120.33V64.0879H123.016V66.7734H125.701V69.459H131.072V66.7734H133.758V64.0879H136.443V58.7168H141.814V96.3145H136.443V72.1445H133.758V74.8301H131.072V80.2012H125.701V74.8301H123.016V72.1445H120.33V96.3145ZM165.984 64.0879H155.242V66.7734H152.557V88.2578H155.242V90.9434H165.984V88.2578H168.67V66.7734H165.984V64.0879ZM152.557 61.4023V58.7168H168.67V61.4023H171.355V64.0879H174.041V90.9434H171.355V93.6289H168.67V96.3145H152.557V93.6289H149.871V90.9434H147.186V64.0879H149.871V61.4023H152.557ZM184.783 64.0879V74.8301H198.211V72.1445H200.896V66.7734H198.211V64.0879H184.783ZM187.469 80.2012H184.783V96.3145H179.412V58.7168H200.896V61.4023H203.582V64.0879H206.268V74.8301H203.582V77.5156H200.896V80.2012H195.525V82.8867H198.211V85.5723H200.896V88.2578H203.582V90.9434H206.268V96.3145H200.896V93.6289H198.211V90.9434H195.525V88.2578H192.84V85.5723H190.154V82.8867H187.469V80.2012ZM238.494 58.7168V64.0879H217.01V74.8301H233.123V80.2012H217.01V90.9434H238.494V96.3145H211.639V58.7168H238.494Z" fill="white"/>
<mask id="mask0_390_16707" style="mask-type:alpha" maskUnits="userSpaceOnUse" x="50" y="8" width="189" height="89">
<path d="M88.1035 30.2012H104.217V22.1445H101.531V19.459H98.8457V16.7734H93.4746V19.459H90.7891V22.1445H88.1035V30.2012ZM88.1035 46.3145H82.7324V19.459H85.418V16.7734H88.1035V14.0879H90.7891V11.4023H93.4746V8.7168H98.8457V11.4023H101.531V14.0879H104.217V16.7734H106.902V19.459H109.588V46.3145H104.217V35.5723H88.1035V46.3145ZM120.33 14.0879V40.9434H133.758V38.2578H136.443V16.7734H133.758V14.0879H120.33ZM114.959 46.3145V8.7168H136.443V11.4023H139.129V14.0879H141.814V40.9434H139.129V43.6289H136.443V46.3145H114.959ZM152.557 30.2012H168.67V22.1445H165.984V19.459H163.299V16.7734H157.928V19.459H155.242V22.1445H152.557V30.2012ZM152.557 46.3145H147.186V19.459H149.871V16.7734H152.557V14.0879H155.242V11.4023H157.928V8.7168H163.299V11.4023H165.984V14.0879H168.67V16.7734H171.355V19.459H174.041V46.3145H168.67V35.5723H152.557V46.3145ZM184.783 46.3145H179.412V8.7168H184.783V14.0879H187.469V16.7734H190.154V19.459H195.525V16.7734H198.211V14.0879H200.896V8.7168H206.268V46.3145H200.896V22.1445H198.211V24.8301H195.525V30.2012H190.154V24.8301H187.469V22.1445H184.783V46.3145ZM77.3613 58.7168V64.0879H55.877V74.8301H71.9902V80.2012H55.877V90.9434H77.3613V96.3145H50.5059V58.7168H77.3613ZM82.7324 96.3145V58.7168H88.1035V90.9434H109.588V96.3145H82.7324ZM120.33 96.3145H114.959V58.7168H120.33V64.0879H123.016V66.7734H125.701V69.459H131.072V66.7734H133.758V64.0879H136.443V58.7168H141.814V96.3145H136.443V72.1445H133.758V74.8301H131.072V80.2012H125.701V74.8301H123.016V72.1445H120.33V96.3145ZM165.984 64.0879H155.242V66.7734H152.557V88.2578H155.242V90.9434H165.984V88.2578H168.67V66.7734H165.984V64.0879ZM152.557 61.4023V58.7168H168.67V61.4023H171.355V64.0879H174.041V90.9434H171.355V93.6289H168.67V96.3145H152.557V93.6289H149.871V90.9434H147.186V64.0879H149.871V61.4023H152.557ZM184.783 64.0879V74.8301H198.211V72.1445H200.896V66.7734H198.211V64.0879H184.783ZM187.469 80.2012H184.783V96.3145H179.412V58.7168H200.896V61.4023H203.582V64.0879H206.268V74.8301H203.582V77.5156H200.896V80.2012H195.525V82.8867H198.211V85.5723H200.896V88.2578H203.582V90.9434H206.268V96.3145H200.896V93.6289H198.211V90.9434H195.525V88.2578H192.84V85.5723H190.154V82.8867H187.469V80.2012ZM238.494 58.7168V64.0879H217.01V74.8301H233.123V80.2012H217.01V90.9434H238.494V96.3145H211.639V58.7168H238.494Z" fill="#E27152"/>
</mask>
<g mask="url(#mask0_390_16707)">
<mask id="mask1_390_16707" style="mask-type:alpha" maskUnits="userSpaceOnUse" x="33" y="13" width="225" height="82">
<line x1="33" y1="14" x2="258" y2="14" stroke="black" stroke-width="2"/>
<line x1="33" y1="24" x2="258" y2="24" stroke="black" stroke-width="2"/>
<line x1="33" y1="34" x2="258" y2="34" stroke="black" stroke-width="2"/>
<line x1="33" y1="44" x2="258" y2="44" stroke="black" stroke-width="2"/>
<line x1="33" y1="54" x2="258" y2="54" stroke="black" stroke-width="2"/>
<line x1="33" y1="64" x2="258" y2="64" stroke="black" stroke-width="2"/>
<line x1="33" y1="74" x2="258" y2="74" stroke="black" stroke-width="2"/>
<line x1="33" y1="84" x2="258" y2="84" stroke="black" stroke-width="2"/>
<line x1="33" y1="94" x2="258" y2="94" stroke="black" stroke-width="2"/>
</mask>
<g mask="url(#mask1_390_16707)">
<rect x="34" y="6" width="224" height="94" fill="url(#paint0_linear_390_16707)"/>
</g>
</g>
<defs>
<linearGradient id="paint0_linear_390_16707" x1="146" y1="6" x2="146" y2="100" gradientUnits="userSpaceOnUse">
<stop stop-color="#C3EFE5"/>
<stop offset="0.419792" stop-color="#25CFAA"/>
<stop offset="1" stop-color="#6E9E94"/>
</linearGradient>
</defs>
</svg>
