<svg width="453" height="68" viewBox="0 0 453 68" fill="none" xmlns="http://www.w3.org/2000/svg">
<path d="M11.2539 43.0742H31.7617V32.8203H28.3438V29.4023H24.9258V25.9844H18.0898V29.4023H14.6719V32.8203H11.2539V43.0742ZM11.2539 63.582H4.41797V29.4023H7.83594V25.9844H11.2539V22.5664H14.6719V19.1484H18.0898V15.7305H24.9258V19.1484H28.3438V22.5664H31.7617V25.9844H35.1797V29.4023H38.5977V63.582H31.7617V49.9102H11.2539V63.582ZM52.2695 22.5664V56.7461H69.3594V53.3281H72.7773V25.9844H69.3594V22.5664H52.2695ZM45.4336 63.582V15.7305H72.7773V19.1484H76.1953V22.5664H79.6133V56.7461H76.1953V60.1641H72.7773V63.582H45.4336ZM93.2852 43.0742H113.793V32.8203H110.375V29.4023H106.957V25.9844H100.121V29.4023H96.7031V32.8203H93.2852V43.0742ZM93.2852 63.582H86.4492V29.4023H89.8672V25.9844H93.2852V22.5664H96.7031V19.1484H100.121V15.7305H106.957V19.1484H110.375V22.5664H113.793V25.9844H117.211V29.4023H120.629V63.582H113.793V49.9102H93.2852V63.582ZM134.301 63.582H127.465V15.7305H134.301V22.5664H137.719V25.9844H141.137V29.4023H147.973V25.9844H151.391V22.5664H154.809V15.7305H161.645V63.582H154.809V32.8203H151.391V36.2383H147.973V43.0742H141.137V36.2383H137.719V32.8203H134.301V63.582ZM243.676 15.7305V22.5664H216.332V36.2383H236.84V43.0742H216.332V56.7461H243.676V63.582H209.496V15.7305H243.676ZM250.512 63.582V15.7305H257.348V56.7461H284.691V63.582H250.512ZM298.363 63.582H291.527V15.7305H298.363V22.5664H301.781V25.9844H305.199V29.4023H312.035V25.9844H315.453V22.5664H318.871V15.7305H325.707V63.582H318.871V32.8203H315.453V36.2383H312.035V43.0742H305.199V36.2383H301.781V32.8203H298.363V63.582ZM356.469 22.5664H342.797V25.9844H339.379V53.3281H342.797V56.7461H356.469V53.3281H359.887V25.9844H356.469V22.5664ZM339.379 19.1484V15.7305H359.887V19.1484H363.305V22.5664H366.723V56.7461H363.305V60.1641H359.887V63.582H339.379V60.1641H335.961V56.7461H332.543V22.5664H335.961V19.1484H339.379ZM380.395 22.5664V36.2383H397.484V32.8203H400.902V25.9844H397.484V22.5664H380.395ZM383.812 43.0742H380.395V63.582H373.559V15.7305H400.902V19.1484H404.32V22.5664H407.738V36.2383H404.32V39.6562H400.902V43.0742H394.066V46.4922H397.484V49.9102H400.902V53.3281H404.32V56.7461H407.738V63.582H400.902V60.1641H397.484V56.7461H394.066V53.3281H390.648V49.9102H387.23V46.4922H383.812V43.0742ZM448.754 15.7305V22.5664H421.41V36.2383H441.918V43.0742H421.41V56.7461H448.754V63.582H414.574V15.7305H448.754Z" fill="black"/>
<path d="M10.2539 39.0742H30.7617V28.8203H27.3438V25.4023H23.9258V21.9844H17.0898V25.4023H13.6719V28.8203H10.2539V39.0742ZM10.2539 59.582H3.41797V25.4023H6.83594V21.9844H10.2539V18.5664H13.6719V15.1484H17.0898V11.7305H23.9258V15.1484H27.3438V18.5664H30.7617V21.9844H34.1797V25.4023H37.5977V59.582H30.7617V45.9102H10.2539V59.582ZM51.2695 18.5664V52.7461H68.3594V49.3281H71.7773V21.9844H68.3594V18.5664H51.2695ZM44.4336 59.582V11.7305H71.7773V15.1484H75.1953V18.5664H78.6133V52.7461H75.1953V56.1641H71.7773V59.582H44.4336ZM92.2852 39.0742H112.793V28.8203H109.375V25.4023H105.957V21.9844H99.1211V25.4023H95.7031V28.8203H92.2852V39.0742ZM92.2852 59.582H85.4492V25.4023H88.8672V21.9844H92.2852V18.5664H95.7031V15.1484H99.1211V11.7305H105.957V15.1484H109.375V18.5664H112.793V21.9844H116.211V25.4023H119.629V59.582H112.793V45.9102H92.2852V59.582ZM133.301 59.582H126.465V11.7305H133.301V18.5664H136.719V21.9844H140.137V25.4023H146.973V21.9844H150.391V18.5664H153.809V11.7305H160.645V59.582H153.809V28.8203H150.391V32.2383H146.973V39.0742H140.137V32.2383H136.719V28.8203H133.301V59.582ZM242.676 11.7305V18.5664H215.332V32.2383H235.84V39.0742H215.332V52.7461H242.676V59.582H208.496V11.7305H242.676ZM249.512 59.582V11.7305H256.348V52.7461H283.691V59.582H249.512ZM297.363 59.582H290.527V11.7305H297.363V18.5664H300.781V21.9844H304.199V25.4023H311.035V21.9844H314.453V18.5664H317.871V11.7305H324.707V59.582H317.871V28.8203H314.453V32.2383H311.035V39.0742H304.199V32.2383H300.781V28.8203H297.363V59.582ZM355.469 18.5664H341.797V21.9844H338.379V49.3281H341.797V52.7461H355.469V49.3281H358.887V21.9844H355.469V18.5664ZM338.379 15.1484V11.7305H358.887V15.1484H362.305V18.5664H365.723V52.7461H362.305V56.1641H358.887V59.582H338.379V56.1641H334.961V52.7461H331.543V18.5664H334.961V15.1484H338.379ZM379.395 18.5664V32.2383H396.484V28.8203H399.902V21.9844H396.484V18.5664H379.395ZM382.812 39.0742H379.395V59.582H372.559V11.7305H399.902V15.1484H403.32V18.5664H406.738V32.2383H403.32V35.6562H399.902V39.0742H393.066V42.4922H396.484V45.9102H399.902V49.3281H403.32V52.7461H406.738V59.582H399.902V56.1641H396.484V52.7461H393.066V49.3281H389.648V45.9102H386.23V42.4922H382.812V39.0742ZM447.754 11.7305V18.5664H420.41V32.2383H440.918V39.0742H420.41V52.7461H447.754V59.582H413.574V11.7305H447.754Z" fill="white"/>
<mask id="mask0_390_6038" style="mask-type:alpha" maskUnits="userSpaceOnUse" x="3" y="11" width="445" height="49">
<path d="M10.2539 39.0742H30.7617V28.8203H27.3438V25.4023H23.9258V21.9844H17.0898V25.4023H13.6719V28.8203H10.2539V39.0742ZM10.2539 59.582H3.41797V25.4023H6.83594V21.9844H10.2539V18.5664H13.6719V15.1484H17.0898V11.7305H23.9258V15.1484H27.3438V18.5664H30.7617V21.9844H34.1797V25.4023H37.5977V59.582H30.7617V45.9102H10.2539V59.582ZM51.2695 18.5664V52.7461H68.3594V49.3281H71.7773V21.9844H68.3594V18.5664H51.2695ZM44.4336 59.582V11.7305H71.7773V15.1484H75.1953V18.5664H78.6133V52.7461H75.1953V56.1641H71.7773V59.582H44.4336ZM92.2852 39.0742H112.793V28.8203H109.375V25.4023H105.957V21.9844H99.1211V25.4023H95.7031V28.8203H92.2852V39.0742ZM92.2852 59.582H85.4492V25.4023H88.8672V21.9844H92.2852V18.5664H95.7031V15.1484H99.1211V11.7305H105.957V15.1484H109.375V18.5664H112.793V21.9844H116.211V25.4023H119.629V59.582H112.793V45.9102H92.2852V59.582ZM133.301 59.582H126.465V11.7305H133.301V18.5664H136.719V21.9844H140.137V25.4023H146.973V21.9844H150.391V18.5664H153.809V11.7305H160.645V59.582H153.809V28.8203H150.391V32.2383H146.973V39.0742H140.137V32.2383H136.719V28.8203H133.301V59.582ZM242.676 11.7305V18.5664H215.332V32.2383H235.84V39.0742H215.332V52.7461H242.676V59.582H208.496V11.7305H242.676ZM249.512 59.582V11.7305H256.348V52.7461H283.691V59.582H249.512ZM297.363 59.582H290.527V11.7305H297.363V18.5664H300.781V21.9844H304.199V25.4023H311.035V21.9844H314.453V18.5664H317.871V11.7305H324.707V59.582H317.871V28.8203H314.453V32.2383H311.035V39.0742H304.199V32.2383H300.781V28.8203H297.363V59.582ZM355.469 18.5664H341.797V21.9844H338.379V49.3281H341.797V52.7461H355.469V49.3281H358.887V21.9844H355.469V18.5664ZM338.379 15.1484V11.7305H358.887V15.1484H362.305V18.5664H365.723V52.7461H362.305V56.1641H358.887V59.582H338.379V56.1641H334.961V52.7461H331.543V18.5664H334.961V15.1484H338.379ZM379.395 18.5664V32.2383H396.484V28.8203H399.902V21.9844H396.484V18.5664H379.395ZM382.812 39.0742H379.395V59.582H372.559V11.7305H399.902V15.1484H403.32V18.5664H406.738V32.2383H403.32V35.6562H399.902V39.0742H393.066V42.4922H396.484V45.9102H399.902V49.3281H403.32V52.7461H406.738V59.582H399.902V56.1641H396.484V52.7461H393.066V49.3281H389.648V45.9102H386.23V42.4922H382.812V39.0742ZM447.754 11.7305V18.5664H420.41V32.2383H440.918V39.0742H420.41V52.7461H447.754V59.582H413.574V11.7305H447.754Z" fill="#E27152"/>
</mask>
<g mask="url(#mask0_390_6038)">
<mask id="mask1_390_6038" style="mask-type:alpha" maskUnits="userSpaceOnUse" x="-26" y="13" width="556" height="42">
<line x1="-26" y1="14" x2="530" y2="14" stroke="black" stroke-width="2"/>
<line x1="-26" y1="24" x2="530" y2="24" stroke="black" stroke-width="2"/>
<line x1="-26" y1="34" x2="530" y2="34" stroke="black" stroke-width="2"/>
<line x1="-26" y1="44" x2="530" y2="44" stroke="black" stroke-width="2"/>
<line x1="-26" y1="54" x2="530" y2="54" stroke="black" stroke-width="2"/>
</mask>
<g mask="url(#mask1_390_6038)">
<rect x="2" y="6" width="527" height="61" fill="url(#paint0_linear_390_6038)"/>
</g>
</g>
<defs>
<linearGradient id="paint0_linear_390_6038" x1="265.5" y1="6" x2="265.5" y2="67" gradientUnits="userSpaceOnUse">
<stop stop-color="#C3EFE5"/>
<stop offset="0.419792" stop-color="#25CFAA"/>
<stop offset="1" stop-color="#6E9E94"/>
</linearGradient>
</defs>
</svg>
