<svg width="291" height="105" viewBox="0 0 291 105" fill="none" xmlns="http://www.w3.org/2000/svg">
<path d="M105.217 19.0879V45.9434H118.645V43.2578H121.33V21.7734H118.645V19.0879H105.217ZM99.8457 51.3145V13.7168H121.33V16.4023H124.016V19.0879H126.701V45.9434H124.016V48.6289H121.33V51.3145H99.8457ZM137.443 35.2012H153.557V27.1445H150.871V24.459H148.186V21.7734H142.814V24.459H140.129V27.1445H137.443V35.2012ZM137.443 51.3145H132.072V24.459H134.758V21.7734H137.443V19.0879H140.129V16.4023H142.814V13.7168H148.186V16.4023H150.871V19.0879H153.557V21.7734H156.242V24.459H158.928V51.3145H153.557V40.5723H137.443V51.3145ZM169.67 43.2578V51.3145H164.299V40.5723H166.984V37.8867H169.67V35.2012H172.355V29.8301H169.67V27.1445H166.984V24.459H164.299V13.7168H169.67V21.7734H172.355V24.459H175.041V27.1445H180.412V24.459H183.098V21.7734H185.783V13.7168H191.154V24.459H188.469V27.1445H185.783V29.8301H183.098V35.2012H185.783V37.8867H188.469V40.5723H191.154V51.3145H185.783V43.2578H183.098V40.5723H180.412V37.8867H175.041V40.5723H172.355V43.2578H169.67ZM89.1035 69.0879V79.8301H102.531V77.1445H105.217V71.7734H102.531V69.0879H89.1035ZM91.7891 85.2012H89.1035V101.314H83.7324V63.7168H105.217V66.4023H107.902V69.0879H110.588V79.8301H107.902V82.5156H105.217V85.2012H99.8457V87.8867H102.531V90.5723H105.217V93.2578H107.902V95.9434H110.588V101.314H105.217V98.6289H102.531V95.9434H99.8457V93.2578H97.1602V90.5723H94.4746V87.8867H91.7891V85.2012ZM121.33 85.2012H137.443V77.1445H134.758V74.459H132.072V71.7734H126.701V74.459H124.016V77.1445H121.33V85.2012ZM121.33 101.314H115.959V74.459H118.645V71.7734H121.33V69.0879H124.016V66.4023H126.701V63.7168H132.072V66.4023H134.758V69.0879H137.443V71.7734H140.129V74.459H142.814V101.314H137.443V90.5723H121.33V101.314ZM153.557 85.2012H169.67V77.1445H166.984V74.459H164.299V71.7734H158.928V74.459H156.242V77.1445H153.557V85.2012ZM153.557 101.314H148.186V74.459H150.871V71.7734H153.557V69.0879H156.242V66.4023H158.928V63.7168H164.299V66.4023H166.984V69.0879H169.67V71.7734H172.355V74.459H175.041V101.314H169.67V90.5723H153.557V101.314ZM185.783 69.0879V95.9434H199.211V93.2578H201.896V71.7734H199.211V69.0879H185.783ZM180.412 101.314V63.7168H201.896V66.4023H204.582V69.0879H207.268V95.9434H204.582V98.6289H201.896V101.314H180.412Z" fill="black"/>
<path d="M104.217 15.0879V41.9434H117.645V39.2578H120.33V17.7734H117.645V15.0879H104.217ZM98.8457 47.3145V9.7168H120.33V12.4023H123.016V15.0879H125.701V41.9434H123.016V44.6289H120.33V47.3145H98.8457ZM136.443 31.2012H152.557V23.1445H149.871V20.459H147.186V17.7734H141.814V20.459H139.129V23.1445H136.443V31.2012ZM136.443 47.3145H131.072V20.459H133.758V17.7734H136.443V15.0879H139.129V12.4023H141.814V9.7168H147.186V12.4023H149.871V15.0879H152.557V17.7734H155.242V20.459H157.928V47.3145H152.557V36.5723H136.443V47.3145ZM168.67 39.2578V47.3145H163.299V36.5723H165.984V33.8867H168.67V31.2012H171.355V25.8301H168.67V23.1445H165.984V20.459H163.299V9.7168H168.67V17.7734H171.355V20.459H174.041V23.1445H179.412V20.459H182.098V17.7734H184.783V9.7168H190.154V20.459H187.469V23.1445H184.783V25.8301H182.098V31.2012H184.783V33.8867H187.469V36.5723H190.154V47.3145H184.783V39.2578H182.098V36.5723H179.412V33.8867H174.041V36.5723H171.355V39.2578H168.67ZM88.1035 65.0879V75.8301H101.531V73.1445H104.217V67.7734H101.531V65.0879H88.1035ZM90.7891 81.2012H88.1035V97.3145H82.7324V59.7168H104.217V62.4023H106.902V65.0879H109.588V75.8301H106.902V78.5156H104.217V81.2012H98.8457V83.8867H101.531V86.5723H104.217V89.2578H106.902V91.9434H109.588V97.3145H104.217V94.6289H101.531V91.9434H98.8457V89.2578H96.1602V86.5723H93.4746V83.8867H90.7891V81.2012ZM120.33 81.2012H136.443V73.1445H133.758V70.459H131.072V67.7734H125.701V70.459H123.016V73.1445H120.33V81.2012ZM120.33 97.3145H114.959V70.459H117.645V67.7734H120.33V65.0879H123.016V62.4023H125.701V59.7168H131.072V62.4023H133.758V65.0879H136.443V67.7734H139.129V70.459H141.814V97.3145H136.443V86.5723H120.33V97.3145ZM152.557 81.2012H168.67V73.1445H165.984V70.459H163.299V67.7734H157.928V70.459H155.242V73.1445H152.557V81.2012ZM152.557 97.3145H147.186V70.459H149.871V67.7734H152.557V65.0879H155.242V62.4023H157.928V59.7168H163.299V62.4023H165.984V65.0879H168.67V67.7734H171.355V70.459H174.041V97.3145H168.67V86.5723H152.557V97.3145ZM184.783 65.0879V91.9434H198.211V89.2578H200.896V67.7734H198.211V65.0879H184.783ZM179.412 97.3145V59.7168H200.896V62.4023H203.582V65.0879H206.268V91.9434H203.582V94.6289H200.896V97.3145H179.412Z" fill="#E27152"/>
<mask id="mask0_311_9400" style="mask-type:alpha" maskUnits="userSpaceOnUse" x="83" y="8" width="125" height="89">
<path d="M105.217 14.0879V40.9434H118.645V38.2578H121.33V16.7734H118.645V14.0879H105.217ZM99.8457 46.3145V8.7168H121.33V11.4023H124.016V14.0879H126.701V40.9434H124.016V43.6289H121.33V46.3145H99.8457ZM137.443 30.2012H153.557V22.1445H150.871V19.459H148.186V16.7734H142.814V19.459H140.129V22.1445H137.443V30.2012ZM137.443 46.3145H132.072V19.459H134.758V16.7734H137.443V14.0879H140.129V11.4023H142.814V8.7168H148.186V11.4023H150.871V14.0879H153.557V16.7734H156.242V19.459H158.928V46.3145H153.557V35.5723H137.443V46.3145ZM169.67 38.2578V46.3145H164.299V35.5723H166.984V32.8867H169.67V30.2012H172.355V24.8301H169.67V22.1445H166.984V19.459H164.299V8.7168H169.67V16.7734H172.355V19.459H175.041V22.1445H180.412V19.459H183.098V16.7734H185.783V8.7168H191.154V19.459H188.469V22.1445H185.783V24.8301H183.098V30.2012H185.783V32.8867H188.469V35.5723H191.154V46.3145H185.783V38.2578H183.098V35.5723H180.412V32.8867H175.041V35.5723H172.355V38.2578H169.67ZM89.1035 64.0879V74.8301H102.531V72.1445H105.217V66.7734H102.531V64.0879H89.1035ZM91.7891 80.2012H89.1035V96.3145H83.7324V58.7168H105.217V61.4023H107.902V64.0879H110.588V74.8301H107.902V77.5156H105.217V80.2012H99.8457V82.8867H102.531V85.5723H105.217V88.2578H107.902V90.9434H110.588V96.3145H105.217V93.6289H102.531V90.9434H99.8457V88.2578H97.1602V85.5723H94.4746V82.8867H91.7891V80.2012ZM121.33 80.2012H137.443V72.1445H134.758V69.459H132.072V66.7734H126.701V69.459H124.016V72.1445H121.33V80.2012ZM121.33 96.3145H115.959V69.459H118.645V66.7734H121.33V64.0879H124.016V61.4023H126.701V58.7168H132.072V61.4023H134.758V64.0879H137.443V66.7734H140.129V69.459H142.814V96.3145H137.443V85.5723H121.33V96.3145ZM153.557 80.2012H169.67V72.1445H166.984V69.459H164.299V66.7734H158.928V69.459H156.242V72.1445H153.557V80.2012ZM153.557 96.3145H148.186V69.459H150.871V66.7734H153.557V64.0879H156.242V61.4023H158.928V58.7168H164.299V61.4023H166.984V64.0879H169.67V66.7734H172.355V69.459H175.041V96.3145H169.67V85.5723H153.557V96.3145ZM185.783 64.0879V90.9434H199.211V88.2578H201.896V66.7734H199.211V64.0879H185.783ZM180.412 96.3145V58.7168H201.896V61.4023H204.582V64.0879H207.268V90.9434H204.582V93.6289H201.896V96.3145H180.412Z" fill="#E27152"/>
</mask>
<g mask="url(#mask0_311_9400)">
<mask id="mask1_311_9400" style="mask-type:alpha" maskUnits="userSpaceOnUse" x="33" y="14" width="225" height="82">
<line x1="33" y1="15" x2="258" y2="15" stroke="black" stroke-width="2"/>
<line x1="33" y1="25" x2="258" y2="25" stroke="black" stroke-width="2"/>
<line x1="33" y1="35" x2="258" y2="35" stroke="black" stroke-width="2"/>
<line x1="33" y1="45" x2="258" y2="45" stroke="black" stroke-width="2"/>
<line x1="33" y1="55" x2="258" y2="55" stroke="black" stroke-width="2"/>
<line x1="33" y1="65" x2="258" y2="65" stroke="black" stroke-width="2"/>
<line x1="33" y1="75" x2="258" y2="75" stroke="black" stroke-width="2"/>
<line x1="33" y1="85" x2="258" y2="85" stroke="black" stroke-width="2"/>
<line x1="33" y1="95" x2="258" y2="95" stroke="black" stroke-width="2"/>
</mask>
<g mask="url(#mask1_311_9400)">
<rect x="34" y="7" width="224" height="94" fill="url(#paint0_linear_311_9400)"/>
</g>
</g>
<defs>
<linearGradient id="paint0_linear_311_9400" x1="146" y1="7" x2="146" y2="101" gradientUnits="userSpaceOnUse">
<stop stop-color="#FFBDB6"/>
<stop offset="0.419792" stop-color="#FFC778"/>
<stop offset="1" stop-color="#FFD9AF"/>
</linearGradient>
</defs>
</svg>
