<svg width="330" height="68" viewBox="0 0 330 68" fill="none" xmlns="http://www.w3.org/2000/svg">
<path d="M11.2539 22.5664V56.7461H28.3438V53.3281H31.7617V25.9844H28.3438V22.5664H11.2539ZM4.41797 63.582V15.7305H31.7617V19.1484H35.1797V22.5664H38.5977V56.7461H35.1797V60.1641H31.7617V63.582H4.41797ZM52.2695 43.0742H72.7773V32.8203H69.3594V29.4023H65.9414V25.9844H59.1055V29.4023H55.6875V32.8203H52.2695V43.0742ZM52.2695 63.582H45.4336V29.4023H48.8516V25.9844H52.2695V22.5664H55.6875V19.1484H59.1055V15.7305H65.9414V19.1484H69.3594V22.5664H72.7773V25.9844H76.1953V29.4023H79.6133V63.582H72.7773V49.9102H52.2695V63.582ZM93.2852 53.3281V63.582H86.4492V49.9102H89.8672V46.4922H93.2852V43.0742H96.7031V36.2383H93.2852V32.8203H89.8672V29.4023H86.4492V15.7305H93.2852V25.9844H96.7031V29.4023H100.121V32.8203H106.957V29.4023H110.375V25.9844H113.793V15.7305H120.629V29.4023H117.211V32.8203H113.793V36.2383H110.375V43.0742H113.793V46.4922H117.211V49.9102H120.629V63.582H113.793V53.3281H110.375V49.9102H106.957V46.4922H100.121V49.9102H96.7031V53.3281H93.2852ZM175.316 22.5664V36.2383H192.406V32.8203H195.824V25.9844H192.406V22.5664H175.316ZM178.734 43.0742H175.316V63.582H168.48V15.7305H195.824V19.1484H199.242V22.5664H202.66V36.2383H199.242V39.6562H195.824V43.0742H188.988V46.4922H192.406V49.9102H195.824V53.3281H199.242V56.7461H202.66V63.582H195.824V60.1641H192.406V56.7461H188.988V53.3281H185.57V49.9102H182.152V46.4922H178.734V43.0742ZM216.332 43.0742H236.84V32.8203H233.422V29.4023H230.004V25.9844H223.168V29.4023H219.75V32.8203H216.332V43.0742ZM216.332 63.582H209.496V29.4023H212.914V25.9844H216.332V22.5664H219.75V19.1484H223.168V15.7305H230.004V19.1484H233.422V22.5664H236.84V25.9844H240.258V29.4023H243.676V63.582H236.84V49.9102H216.332V63.582ZM257.348 43.0742H277.855V32.8203H274.438V29.4023H271.02V25.9844H264.184V29.4023H260.766V32.8203H257.348V43.0742ZM257.348 63.582H250.512V29.4023H253.93V25.9844H257.348V22.5664H260.766V19.1484H264.184V15.7305H271.02V19.1484H274.438V22.5664H277.855V25.9844H281.273V29.4023H284.691V63.582H277.855V49.9102H257.348V63.582ZM298.363 22.5664V56.7461H315.453V53.3281H318.871V25.9844H315.453V22.5664H298.363ZM291.527 63.582V15.7305H318.871V19.1484H322.289V22.5664H325.707V56.7461H322.289V60.1641H318.871V63.582H291.527Z" fill="black"/>
<path d="M10.2539 18.5664V52.7461H27.3438V49.3281H30.7617V21.9844H27.3438V18.5664H10.2539ZM3.41797 59.582V11.7305H30.7617V15.1484H34.1797V18.5664H37.5977V52.7461H34.1797V56.1641H30.7617V59.582H3.41797ZM51.2695 39.0742H71.7773V28.8203H68.3594V25.4023H64.9414V21.9844H58.1055V25.4023H54.6875V28.8203H51.2695V39.0742ZM51.2695 59.582H44.4336V25.4023H47.8516V21.9844H51.2695V18.5664H54.6875V15.1484H58.1055V11.7305H64.9414V15.1484H68.3594V18.5664H71.7773V21.9844H75.1953V25.4023H78.6133V59.582H71.7773V45.9102H51.2695V59.582ZM92.2852 49.3281V59.582H85.4492V45.9102H88.8672V42.4922H92.2852V39.0742H95.7031V32.2383H92.2852V28.8203H88.8672V25.4023H85.4492V11.7305H92.2852V21.9844H95.7031V25.4023H99.1211V28.8203H105.957V25.4023H109.375V21.9844H112.793V11.7305H119.629V25.4023H116.211V28.8203H112.793V32.2383H109.375V39.0742H112.793V42.4922H116.211V45.9102H119.629V59.582H112.793V49.3281H109.375V45.9102H105.957V42.4922H99.1211V45.9102H95.7031V49.3281H92.2852ZM174.316 18.5664V32.2383H191.406V28.8203H194.824V21.9844H191.406V18.5664H174.316ZM177.734 39.0742H174.316V59.582H167.48V11.7305H194.824V15.1484H198.242V18.5664H201.66V32.2383H198.242V35.6562H194.824V39.0742H187.988V42.4922H191.406V45.9102H194.824V49.3281H198.242V52.7461H201.66V59.582H194.824V56.1641H191.406V52.7461H187.988V49.3281H184.57V45.9102H181.152V42.4922H177.734V39.0742ZM215.332 39.0742H235.84V28.8203H232.422V25.4023H229.004V21.9844H222.168V25.4023H218.75V28.8203H215.332V39.0742ZM215.332 59.582H208.496V25.4023H211.914V21.9844H215.332V18.5664H218.75V15.1484H222.168V11.7305H229.004V15.1484H232.422V18.5664H235.84V21.9844H239.258V25.4023H242.676V59.582H235.84V45.9102H215.332V59.582ZM256.348 39.0742H276.855V28.8203H273.438V25.4023H270.02V21.9844H263.184V25.4023H259.766V28.8203H256.348V39.0742ZM256.348 59.582H249.512V25.4023H252.93V21.9844H256.348V18.5664H259.766V15.1484H263.184V11.7305H270.02V15.1484H273.438V18.5664H276.855V21.9844H280.273V25.4023H283.691V59.582H276.855V45.9102H256.348V59.582ZM297.363 18.5664V52.7461H314.453V49.3281H317.871V21.9844H314.453V18.5664H297.363ZM290.527 59.582V11.7305H317.871V15.1484H321.289V18.5664H324.707V52.7461H321.289V56.1641H317.871V59.582H290.527Z" fill="#E27152"/>
<mask id="mask0_293_2123" style="mask-type:alpha" maskUnits="userSpaceOnUse" x="3" y="11" width="322" height="49">
<path d="M10.2539 18.5664V52.7461H27.3438V49.3281H30.7617V21.9844H27.3438V18.5664H10.2539ZM3.41797 59.582V11.7305H30.7617V15.1484H34.1797V18.5664H37.5977V52.7461H34.1797V56.1641H30.7617V59.582H3.41797ZM51.2695 39.0742H71.7773V28.8203H68.3594V25.4023H64.9414V21.9844H58.1055V25.4023H54.6875V28.8203H51.2695V39.0742ZM51.2695 59.582H44.4336V25.4023H47.8516V21.9844H51.2695V18.5664H54.6875V15.1484H58.1055V11.7305H64.9414V15.1484H68.3594V18.5664H71.7773V21.9844H75.1953V25.4023H78.6133V59.582H71.7773V45.9102H51.2695V59.582ZM92.2852 49.3281V59.582H85.4492V45.9102H88.8672V42.4922H92.2852V39.0742H95.7031V32.2383H92.2852V28.8203H88.8672V25.4023H85.4492V11.7305H92.2852V21.9844H95.7031V25.4023H99.1211V28.8203H105.957V25.4023H109.375V21.9844H112.793V11.7305H119.629V25.4023H116.211V28.8203H112.793V32.2383H109.375V39.0742H112.793V42.4922H116.211V45.9102H119.629V59.582H112.793V49.3281H109.375V45.9102H105.957V42.4922H99.1211V45.9102H95.7031V49.3281H92.2852ZM174.316 18.5664V32.2383H191.406V28.8203H194.824V21.9844H191.406V18.5664H174.316ZM177.734 39.0742H174.316V59.582H167.48V11.7305H194.824V15.1484H198.242V18.5664H201.66V32.2383H198.242V35.6562H194.824V39.0742H187.988V42.4922H191.406V45.9102H194.824V49.3281H198.242V52.7461H201.66V59.582H194.824V56.1641H191.406V52.7461H187.988V49.3281H184.57V45.9102H181.152V42.4922H177.734V39.0742ZM215.332 39.0742H235.84V28.8203H232.422V25.4023H229.004V21.9844H222.168V25.4023H218.75V28.8203H215.332V39.0742ZM215.332 59.582H208.496V25.4023H211.914V21.9844H215.332V18.5664H218.75V15.1484H222.168V11.7305H229.004V15.1484H232.422V18.5664H235.84V21.9844H239.258V25.4023H242.676V59.582H235.84V45.9102H215.332V59.582ZM256.348 39.0742H276.855V28.8203H273.438V25.4023H270.02V21.9844H263.184V25.4023H259.766V28.8203H256.348V39.0742ZM256.348 59.582H249.512V25.4023H252.93V21.9844H256.348V18.5664H259.766V15.1484H263.184V11.7305H270.02V15.1484H273.438V18.5664H276.855V21.9844H280.273V25.4023H283.691V59.582H276.855V45.9102H256.348V59.582ZM297.363 18.5664V52.7461H314.453V49.3281H317.871V21.9844H314.453V18.5664H297.363ZM290.527 59.582V11.7305H317.871V15.1484H321.289V18.5664H324.707V52.7461H321.289V56.1641H317.871V59.582H290.527Z" fill="#E27152"/>
</mask>
<g mask="url(#mask0_293_2123)">
<mask id="mask1_293_2123" style="mask-type:alpha" maskUnits="userSpaceOnUse" x="-26" y="13" width="556" height="42">
<line x1="-26" y1="14" x2="530" y2="14" stroke="black" stroke-width="2"/>
<line x1="-26" y1="24" x2="530" y2="24" stroke="black" stroke-width="2"/>
<line x1="-26" y1="34" x2="530" y2="34" stroke="black" stroke-width="2"/>
<line x1="-26" y1="44" x2="530" y2="44" stroke="black" stroke-width="2"/>
<line x1="-26" y1="54" x2="530" y2="54" stroke="black" stroke-width="2"/>
</mask>
<g mask="url(#mask1_293_2123)">
<rect x="2" y="6" width="527" height="61" fill="url(#paint0_linear_293_2123)"/>
</g>
</g>
<defs>
<linearGradient id="paint0_linear_293_2123" x1="265.5" y1="6" x2="265.5" y2="67" gradientUnits="userSpaceOnUse">
<stop stop-color="#FFBDB6"/>
<stop offset="0.419792" stop-color="#FFC778"/>
<stop offset="1" stop-color="#FFD9AF"/>
</linearGradient>
</defs>
</svg>
