<svg width="291" height="105" viewBox="0 0 291 105" fill="none" xmlns="http://www.w3.org/2000/svg">
<path d="M110.588 13.7168V19.0879H89.1035V29.8301H105.217V35.2012H89.1035V45.9434H110.588V51.3145H83.7324V13.7168H110.588ZM121.33 29.8301V51.3145H115.959V13.7168H121.33V21.7734H124.016V24.459H126.701V27.1445H129.387V29.8301H132.072V32.5156H134.758V35.2012H137.443V13.7168H142.814V51.3145H137.443V43.2578H134.758V40.5723H132.072V37.8867H129.387V35.2012H126.701V32.5156H124.016V29.8301H121.33ZM175.041 13.7168V19.0879H153.557V29.8301H169.67V35.2012H153.557V45.9434H175.041V51.3145H148.186V13.7168H175.041ZM204.582 19.0879H207.268V24.459H201.896V21.7734H199.211V19.0879H188.469V21.7734H185.783V27.1445H188.469V29.8301H201.896V32.5156H204.582V35.2012H207.268V45.9434H204.582V48.6289H201.896V51.3145H185.783V48.6289H183.098V45.9434H180.412V40.5723H185.783V43.2578H188.469V45.9434H199.211V43.2578H201.896V37.8867H199.211V35.2012H185.783V32.5156H183.098V29.8301H180.412V19.0879H183.098V16.4023H185.783V13.7168H201.896V16.4023H204.582V19.0879ZM89.1035 85.2012H105.217V77.1445H102.531V74.459H99.8457V71.7734H94.4746V74.459H91.7891V77.1445H89.1035V85.2012ZM89.1035 101.314H83.7324V74.459H86.418V71.7734H89.1035V69.0879H91.7891V66.4023H94.4746V63.7168H99.8457V66.4023H102.531V69.0879H105.217V71.7734H107.902V74.459H110.588V101.314H105.217V90.5723H89.1035V101.314ZM121.33 85.2012V101.314H115.959V63.7168H121.33V79.8301H124.016V77.1445H126.701V74.459H129.387V71.7734H132.072V69.0879H134.758V66.4023H137.443V63.7168H142.814V69.0879H140.129V71.7734H137.443V74.459H134.758V77.1445H132.072V79.8301H129.387V85.2012H132.072V87.8867H134.758V90.5723H137.443V93.2578H140.129V95.9434H142.814V101.314H137.443V98.6289H134.758V95.9434H132.072V93.2578H129.387V90.5723H126.701V87.8867H124.016V85.2012H121.33ZM153.557 85.2012H169.67V77.1445H166.984V74.459H164.299V71.7734H158.928V74.459H156.242V77.1445H153.557V85.2012ZM153.557 101.314H148.186V74.459H150.871V71.7734H153.557V69.0879H156.242V66.4023H158.928V63.7168H164.299V66.4023H166.984V69.0879H169.67V71.7734H172.355V74.459H175.041V101.314H169.67V90.5723H153.557V101.314ZM185.783 69.0879V79.8301H199.211V77.1445H201.896V71.7734H199.211V69.0879H185.783ZM188.469 85.2012H185.783V101.314H180.412V63.7168H201.896V66.4023H204.582V69.0879H207.268V79.8301H204.582V82.5156H201.896V85.2012H196.525V87.8867H199.211V90.5723H201.896V93.2578H204.582V95.9434H207.268V101.314H201.896V98.6289H199.211V95.9434H196.525V93.2578H193.84V90.5723H191.154V87.8867H188.469V85.2012Z" fill="black"/>
<path d="M109.588 9.7168V15.0879H88.1035V25.8301H104.217V31.2012H88.1035V41.9434H109.588V47.3145H82.7324V9.7168H109.588ZM120.33 25.8301V47.3145H114.959V9.7168H120.33V17.7734H123.016V20.459H125.701V23.1445H128.387V25.8301H131.072V28.5156H133.758V31.2012H136.443V9.7168H141.814V47.3145H136.443V39.2578H133.758V36.5723H131.072V33.8867H128.387V31.2012H125.701V28.5156H123.016V25.8301H120.33ZM174.041 9.7168V15.0879H152.557V25.8301H168.67V31.2012H152.557V41.9434H174.041V47.3145H147.186V9.7168H174.041ZM203.582 15.0879H206.268V20.459H200.896V17.7734H198.211V15.0879H187.469V17.7734H184.783V23.1445H187.469V25.8301H200.896V28.5156H203.582V31.2012H206.268V41.9434H203.582V44.6289H200.896V47.3145H184.783V44.6289H182.098V41.9434H179.412V36.5723H184.783V39.2578H187.469V41.9434H198.211V39.2578H200.896V33.8867H198.211V31.2012H184.783V28.5156H182.098V25.8301H179.412V15.0879H182.098V12.4023H184.783V9.7168H200.896V12.4023H203.582V15.0879ZM88.1035 81.2012H104.217V73.1445H101.531V70.459H98.8457V67.7734H93.4746V70.459H90.7891V73.1445H88.1035V81.2012ZM88.1035 97.3145H82.7324V70.459H85.418V67.7734H88.1035V65.0879H90.7891V62.4023H93.4746V59.7168H98.8457V62.4023H101.531V65.0879H104.217V67.7734H106.902V70.459H109.588V97.3145H104.217V86.5723H88.1035V97.3145ZM120.33 81.2012V97.3145H114.959V59.7168H120.33V75.8301H123.016V73.1445H125.701V70.459H128.387V67.7734H131.072V65.0879H133.758V62.4023H136.443V59.7168H141.814V65.0879H139.129V67.7734H136.443V70.459H133.758V73.1445H131.072V75.8301H128.387V81.2012H131.072V83.8867H133.758V86.5723H136.443V89.2578H139.129V91.9434H141.814V97.3145H136.443V94.6289H133.758V91.9434H131.072V89.2578H128.387V86.5723H125.701V83.8867H123.016V81.2012H120.33ZM152.557 81.2012H168.67V73.1445H165.984V70.459H163.299V67.7734H157.928V70.459H155.242V73.1445H152.557V81.2012ZM152.557 97.3145H147.186V70.459H149.871V67.7734H152.557V65.0879H155.242V62.4023H157.928V59.7168H163.299V62.4023H165.984V65.0879H168.67V67.7734H171.355V70.459H174.041V97.3145H168.67V86.5723H152.557V97.3145ZM184.783 65.0879V75.8301H198.211V73.1445H200.896V67.7734H198.211V65.0879H184.783ZM187.469 81.2012H184.783V97.3145H179.412V59.7168H200.896V62.4023H203.582V65.0879H206.268V75.8301H203.582V78.5156H200.896V81.2012H195.525V83.8867H198.211V86.5723H200.896V89.2578H203.582V91.9434H206.268V97.3145H200.896V94.6289H198.211V91.9434H195.525V89.2578H192.84V86.5723H190.154V83.8867H187.469V81.2012Z" fill="#00E9A3"/>
<mask id="mask0_311_8991" style="mask-type:alpha" maskUnits="userSpaceOnUse" x="82" y="8" width="125" height="89">
<path d="M109.588 8.7168V14.0879H88.1035V24.8301H104.217V30.2012H88.1035V40.9434H109.588V46.3145H82.7324V8.7168H109.588ZM120.33 24.8301V46.3145H114.959V8.7168H120.33V16.7734H123.016V19.459H125.701V22.1445H128.387V24.8301H131.072V27.5156H133.758V30.2012H136.443V8.7168H141.814V46.3145H136.443V38.2578H133.758V35.5723H131.072V32.8867H128.387V30.2012H125.701V27.5156H123.016V24.8301H120.33ZM174.041 8.7168V14.0879H152.557V24.8301H168.67V30.2012H152.557V40.9434H174.041V46.3145H147.186V8.7168H174.041ZM203.582 14.0879H206.268V19.459H200.896V16.7734H198.211V14.0879H187.469V16.7734H184.783V22.1445H187.469V24.8301H200.896V27.5156H203.582V30.2012H206.268V40.9434H203.582V43.6289H200.896V46.3145H184.783V43.6289H182.098V40.9434H179.412V35.5723H184.783V38.2578H187.469V40.9434H198.211V38.2578H200.896V32.8867H198.211V30.2012H184.783V27.5156H182.098V24.8301H179.412V14.0879H182.098V11.4023H184.783V8.7168H200.896V11.4023H203.582V14.0879ZM88.1035 80.2012H104.217V72.1445H101.531V69.459H98.8457V66.7734H93.4746V69.459H90.7891V72.1445H88.1035V80.2012ZM88.1035 96.3145H82.7324V69.459H85.418V66.7734H88.1035V64.0879H90.7891V61.4023H93.4746V58.7168H98.8457V61.4023H101.531V64.0879H104.217V66.7734H106.902V69.459H109.588V96.3145H104.217V85.5723H88.1035V96.3145ZM120.33 80.2012V96.3145H114.959V58.7168H120.33V74.8301H123.016V72.1445H125.701V69.459H128.387V66.7734H131.072V64.0879H133.758V61.4023H136.443V58.7168H141.814V64.0879H139.129V66.7734H136.443V69.459H133.758V72.1445H131.072V74.8301H128.387V80.2012H131.072V82.8867H133.758V85.5723H136.443V88.2578H139.129V90.9434H141.814V96.3145H136.443V93.6289H133.758V90.9434H131.072V88.2578H128.387V85.5723H125.701V82.8867H123.016V80.2012H120.33ZM152.557 80.2012H168.67V72.1445H165.984V69.459H163.299V66.7734H157.928V69.459H155.242V72.1445H152.557V80.2012ZM152.557 96.3145H147.186V69.459H149.871V66.7734H152.557V64.0879H155.242V61.4023H157.928V58.7168H163.299V61.4023H165.984V64.0879H168.67V66.7734H171.355V69.459H174.041V96.3145H168.67V85.5723H152.557V96.3145ZM184.783 64.0879V74.8301H198.211V72.1445H200.896V66.7734H198.211V64.0879H184.783ZM187.469 80.2012H184.783V96.3145H179.412V58.7168H200.896V61.4023H203.582V64.0879H206.268V74.8301H203.582V77.5156H200.896V80.2012H195.525V82.8867H198.211V85.5723H200.896V88.2578H203.582V90.9434H206.268V96.3145H200.896V93.6289H198.211V90.9434H195.525V88.2578H192.84V85.5723H190.154V82.8867H187.469V80.2012Z" fill="#E27152"/>
</mask>
<g mask="url(#mask0_311_8991)">
<mask id="mask1_311_8991" style="mask-type:alpha" maskUnits="userSpaceOnUse" x="32" y="14" width="225" height="82">
<line x1="32" y1="15" x2="257" y2="15" stroke="black" stroke-width="2"/>
<line x1="32" y1="25" x2="257" y2="25" stroke="black" stroke-width="2"/>
<line x1="32" y1="35" x2="257" y2="35" stroke="black" stroke-width="2"/>
<line x1="32" y1="45" x2="257" y2="45" stroke="black" stroke-width="2"/>
<line x1="32" y1="55" x2="257" y2="55" stroke="black" stroke-width="2"/>
<line x1="32" y1="65" x2="257" y2="65" stroke="black" stroke-width="2"/>
<line x1="32" y1="75" x2="257" y2="75" stroke="black" stroke-width="2"/>
<line x1="32" y1="85" x2="257" y2="85" stroke="black" stroke-width="2"/>
<line x1="32" y1="95" x2="257" y2="95" stroke="black" stroke-width="2"/>
</mask>
<g mask="url(#mask1_311_8991)">
<rect x="33" y="7" width="224" height="94" fill="url(#paint0_linear_311_8991)"/>
</g>
</g>
<defs>
<linearGradient id="paint0_linear_311_8991" x1="145" y1="7" x2="145" y2="101" gradientUnits="userSpaceOnUse">
<stop stop-color="#BFFFEC"/>
<stop offset="0.419792" stop-color="#49A78A"/>
<stop offset="1" stop-color="#F3FEFB"/>
</linearGradient>
</defs>
</svg>
