<svg width="534" height="68" viewBox="0 0 534 68" fill="none" xmlns="http://www.w3.org/2000/svg">
<path d="M38.5977 15.7305V22.5664H11.2539V36.2383H31.7617V43.0742H11.2539V56.7461H38.5977V63.582H4.41797V15.7305H38.5977ZM52.2695 36.2383V63.582H45.4336V15.7305H52.2695V25.9844H55.6875V29.4023H59.1055V32.8203H62.5234V36.2383H65.9414V39.6562H69.3594V43.0742H72.7773V15.7305H79.6133V63.582H72.7773V53.3281H69.3594V49.9102H65.9414V46.4922H62.5234V43.0742H59.1055V39.6562H55.6875V36.2383H52.2695ZM120.629 15.7305V22.5664H93.2852V36.2383H113.793V43.0742H93.2852V56.7461H120.629V63.582H86.4492V15.7305H120.629ZM158.227 22.5664H161.645V29.4023H154.809V25.9844H151.391V22.5664H137.719V25.9844H134.301V32.8203H137.719V36.2383H154.809V39.6562H158.227V43.0742H161.645V56.7461H158.227V60.1641H154.809V63.582H134.301V60.1641H130.883V56.7461H127.465V49.9102H134.301V53.3281H137.719V56.7461H151.391V53.3281H154.809V46.4922H151.391V43.0742H134.301V39.6562H130.883V36.2383H127.465V22.5664H130.883V19.1484H134.301V15.7305H154.809V19.1484H158.227V22.5664ZM216.332 43.0742H236.84V32.8203H233.422V29.4023H230.004V25.9844H223.168V29.4023H219.75V32.8203H216.332V43.0742ZM216.332 63.582H209.496V29.4023H212.914V25.9844H216.332V22.5664H219.75V19.1484H223.168V15.7305H230.004V19.1484H233.422V22.5664H236.84V25.9844H240.258V29.4023H243.676V63.582H236.84V49.9102H216.332V63.582ZM257.348 43.0742V63.582H250.512V15.7305H257.348V36.2383H260.766V32.8203H264.184V29.4023H267.602V25.9844H271.02V22.5664H274.438V19.1484H277.855V15.7305H284.691V22.5664H281.273V25.9844H277.855V29.4023H274.438V32.8203H271.02V36.2383H267.602V43.0742H271.02V46.4922H274.438V49.9102H277.855V53.3281H281.273V56.7461H284.691V63.582H277.855V60.1641H274.438V56.7461H271.02V53.3281H267.602V49.9102H264.184V46.4922H260.766V43.0742H257.348ZM298.363 43.0742H318.871V32.8203H315.453V29.4023H312.035V25.9844H305.199V29.4023H301.781V32.8203H298.363V43.0742ZM298.363 63.582H291.527V29.4023H294.945V25.9844H298.363V22.5664H301.781V19.1484H305.199V15.7305H312.035V19.1484H315.453V22.5664H318.871V25.9844H322.289V29.4023H325.707V63.582H318.871V49.9102H298.363V63.582ZM339.379 22.5664V36.2383H356.469V32.8203H359.887V25.9844H356.469V22.5664H339.379ZM342.797 43.0742H339.379V63.582H332.543V15.7305H359.887V19.1484H363.305V22.5664H366.723V36.2383H363.305V39.6562H359.887V43.0742H353.051V46.4922H356.469V49.9102H359.887V53.3281H363.305V56.7461H366.723V63.582H359.887V60.1641H356.469V56.7461H353.051V53.3281H349.633V49.9102H346.215V46.4922H342.797V43.0742Z" fill="black"/>
<path d="M37.5977 11.7305V18.5664H10.2539V32.2383H30.7617V39.0742H10.2539V52.7461H37.5977V59.582H3.41797V11.7305H37.5977ZM51.2695 32.2383V59.582H44.4336V11.7305H51.2695V21.9844H54.6875V25.4023H58.1055V28.8203H61.5234V32.2383H64.9414V35.6562H68.3594V39.0742H71.7773V11.7305H78.6133V59.582H71.7773V49.3281H68.3594V45.9102H64.9414V42.4922H61.5234V39.0742H58.1055V35.6562H54.6875V32.2383H51.2695ZM119.629 11.7305V18.5664H92.2852V32.2383H112.793V39.0742H92.2852V52.7461H119.629V59.582H85.4492V11.7305H119.629ZM157.227 18.5664H160.645V25.4023H153.809V21.9844H150.391V18.5664H136.719V21.9844H133.301V28.8203H136.719V32.2383H153.809V35.6562H157.227V39.0742H160.645V52.7461H157.227V56.1641H153.809V59.582H133.301V56.1641H129.883V52.7461H126.465V45.9102H133.301V49.3281H136.719V52.7461H150.391V49.3281H153.809V42.4922H150.391V39.0742H133.301V35.6562H129.883V32.2383H126.465V18.5664H129.883V15.1484H133.301V11.7305H153.809V15.1484H157.227V18.5664ZM215.332 39.0742H235.84V28.8203H232.422V25.4023H229.004V21.9844H222.168V25.4023H218.75V28.8203H215.332V39.0742ZM215.332 59.582H208.496V25.4023H211.914V21.9844H215.332V18.5664H218.75V15.1484H222.168V11.7305H229.004V15.1484H232.422V18.5664H235.84V21.9844H239.258V25.4023H242.676V59.582H235.84V45.9102H215.332V59.582ZM256.348 39.0742V59.582H249.512V11.7305H256.348V32.2383H259.766V28.8203H263.184V25.4023H266.602V21.9844H270.02V18.5664H273.438V15.1484H276.855V11.7305H283.691V18.5664H280.273V21.9844H276.855V25.4023H273.438V28.8203H270.02V32.2383H266.602V39.0742H270.02V42.4922H273.438V45.9102H276.855V49.3281H280.273V52.7461H283.691V59.582H276.855V56.1641H273.438V52.7461H270.02V49.3281H266.602V45.9102H263.184V42.4922H259.766V39.0742H256.348ZM297.363 39.0742H317.871V28.8203H314.453V25.4023H311.035V21.9844H304.199V25.4023H300.781V28.8203H297.363V39.0742ZM297.363 59.582H290.527V25.4023H293.945V21.9844H297.363V18.5664H300.781V15.1484H304.199V11.7305H311.035V15.1484H314.453V18.5664H317.871V21.9844H321.289V25.4023H324.707V59.582H317.871V45.9102H297.363V59.582ZM338.379 18.5664V32.2383H355.469V28.8203H358.887V21.9844H355.469V18.5664H338.379ZM341.797 39.0742H338.379V59.582H331.543V11.7305H358.887V15.1484H362.305V18.5664H365.723V32.2383H362.305V35.6562H358.887V39.0742H352.051V42.4922H355.469V45.9102H358.887V49.3281H362.305V52.7461H365.723V59.582H358.887V56.1641H355.469V52.7461H352.051V49.3281H348.633V45.9102H345.215V42.4922H341.797V39.0742Z" fill="#00E9A3"/>
<mask id="mask0_284_761" style="mask-type:alpha" maskUnits="userSpaceOnUse" x="3" y="11" width="363" height="49">
<path d="M37.5977 11.7305V18.5664H10.2539V32.2383H30.7617V39.0742H10.2539V52.7461H37.5977V59.582H3.41797V11.7305H37.5977ZM51.2695 32.2383V59.582H44.4336V11.7305H51.2695V21.9844H54.6875V25.4023H58.1055V28.8203H61.5234V32.2383H64.9414V35.6562H68.3594V39.0742H71.7773V11.7305H78.6133V59.582H71.7773V49.3281H68.3594V45.9102H64.9414V42.4922H61.5234V39.0742H58.1055V35.6562H54.6875V32.2383H51.2695ZM119.629 11.7305V18.5664H92.2852V32.2383H112.793V39.0742H92.2852V52.7461H119.629V59.582H85.4492V11.7305H119.629ZM157.227 18.5664H160.645V25.4023H153.809V21.9844H150.391V18.5664H136.719V21.9844H133.301V28.8203H136.719V32.2383H153.809V35.6562H157.227V39.0742H160.645V52.7461H157.227V56.1641H153.809V59.582H133.301V56.1641H129.883V52.7461H126.465V45.9102H133.301V49.3281H136.719V52.7461H150.391V49.3281H153.809V42.4922H150.391V39.0742H133.301V35.6562H129.883V32.2383H126.465V18.5664H129.883V15.1484H133.301V11.7305H153.809V15.1484H157.227V18.5664ZM215.332 39.0742H235.84V28.8203H232.422V25.4023H229.004V21.9844H222.168V25.4023H218.75V28.8203H215.332V39.0742ZM215.332 59.582H208.496V25.4023H211.914V21.9844H215.332V18.5664H218.75V15.1484H222.168V11.7305H229.004V15.1484H232.422V18.5664H235.84V21.9844H239.258V25.4023H242.676V59.582H235.84V45.9102H215.332V59.582ZM256.348 39.0742V59.582H249.512V11.7305H256.348V32.2383H259.766V28.8203H263.184V25.4023H266.602V21.9844H270.02V18.5664H273.438V15.1484H276.855V11.7305H283.691V18.5664H280.273V21.9844H276.855V25.4023H273.438V28.8203H270.02V32.2383H266.602V39.0742H270.02V42.4922H273.438V45.9102H276.855V49.3281H280.273V52.7461H283.691V59.582H276.855V56.1641H273.438V52.7461H270.02V49.3281H266.602V45.9102H263.184V42.4922H259.766V39.0742H256.348ZM297.363 39.0742H317.871V28.8203H314.453V25.4023H311.035V21.9844H304.199V25.4023H300.781V28.8203H297.363V39.0742ZM297.363 59.582H290.527V25.4023H293.945V21.9844H297.363V18.5664H300.781V15.1484H304.199V11.7305H311.035V15.1484H314.453V18.5664H317.871V21.9844H321.289V25.4023H324.707V59.582H317.871V45.9102H297.363V59.582ZM338.379 18.5664V32.2383H355.469V28.8203H358.887V21.9844H355.469V18.5664H338.379ZM341.797 39.0742H338.379V59.582H331.543V11.7305H358.887V15.1484H362.305V18.5664H365.723V32.2383H362.305V35.6562H358.887V39.0742H352.051V42.4922H355.469V45.9102H358.887V49.3281H362.305V52.7461H365.723V59.582H358.887V56.1641H355.469V52.7461H352.051V49.3281H348.633V45.9102H345.215V42.4922H341.797V39.0742Z" fill="#E27152"/>
</mask>
<g mask="url(#mask0_284_761)">
<mask id="mask1_284_761" style="mask-type:alpha" maskUnits="userSpaceOnUse" x="-26" y="13" width="556" height="42">
<line x1="-26" y1="14" x2="530" y2="14" stroke="black" stroke-width="2"/>
<line x1="-26" y1="24" x2="530" y2="24" stroke="black" stroke-width="2"/>
<line x1="-26" y1="34" x2="530" y2="34" stroke="black" stroke-width="2"/>
<line x1="-26" y1="44" x2="530" y2="44" stroke="black" stroke-width="2"/>
<line x1="-26" y1="54" x2="530" y2="54" stroke="black" stroke-width="2"/>
</mask>
<g mask="url(#mask1_284_761)">
<rect x="2" y="6" width="527" height="61" fill="url(#paint0_linear_284_761)"/>
</g>
</g>
<defs>
<linearGradient id="paint0_linear_284_761" x1="265.5" y1="6" x2="265.5" y2="67" gradientUnits="userSpaceOnUse">
<stop stop-color="#BFFFEC"/>
<stop offset="0.419792" stop-color="#49A78A"/>
<stop offset="1" stop-color="#F3FEFB"/>
</linearGradient>
</defs>
</svg>
