<svg width="535" height="68" viewBox="0 0 535 68" fill="none" xmlns="http://www.w3.org/2000/svg">
<path d="M38.5977 15.7305V22.5664H11.2539V36.2383H31.7617V43.0742H11.2539V63.582H4.41797V15.7305H38.5977ZM52.2695 22.5664V36.2383H69.3594V32.8203H72.7773V25.9844H69.3594V22.5664H52.2695ZM55.6875 43.0742H52.2695V63.582H45.4336V15.7305H72.7773V19.1484H76.1953V22.5664H79.6133V36.2383H76.1953V39.6562H72.7773V43.0742H65.9414V46.4922H69.3594V49.9102H72.7773V53.3281H76.1953V56.7461H79.6133V63.582H72.7773V60.1641H69.3594V56.7461H65.9414V53.3281H62.5234V49.9102H59.1055V46.4922H55.6875V43.0742ZM120.629 15.7305V22.5664H93.2852V36.2383H113.793V43.0742H93.2852V56.7461H120.629V63.582H86.4492V15.7305H120.629ZM134.301 22.5664V56.7461H151.391V53.3281H154.809V25.9844H151.391V22.5664H134.301ZM127.465 63.582V15.7305H154.809V19.1484H158.227V22.5664H161.645V56.7461H158.227V60.1641H154.809V63.582H127.465ZM216.332 43.0742V63.582H209.496V15.7305H216.332V36.2383H219.75V32.8203H223.168V29.4023H226.586V25.9844H230.004V22.5664H233.422V19.1484H236.84V15.7305H243.676V22.5664H240.258V25.9844H236.84V29.4023H233.422V32.8203H230.004V36.2383H226.586V43.0742H230.004V46.4922H233.422V49.9102H236.84V53.3281H240.258V56.7461H243.676V63.582H236.84V60.1641H233.422V56.7461H230.004V53.3281H226.586V49.9102H223.168V46.4922H219.75V43.0742H216.332ZM322.289 22.5664H325.707V29.4023H318.871V25.9844H315.453V22.5664H301.781V25.9844H298.363V32.8203H301.781V36.2383H318.871V39.6562H322.289V43.0742H325.707V56.7461H322.289V60.1641H318.871V63.582H298.363V60.1641H294.945V56.7461H291.527V49.9102H298.363V53.3281H301.781V56.7461H315.453V53.3281H318.871V46.4922H315.453V43.0742H298.363V39.6562H294.945V36.2383H291.527V22.5664H294.945V19.1484H298.363V15.7305H318.871V19.1484H322.289V22.5664ZM342.797 56.7461H356.469V53.3281H359.887V49.9102H366.723V56.7461H363.305V60.1641H359.887V63.582H339.379V60.1641H335.961V56.7461H332.543V22.5664H335.961V19.1484H339.379V15.7305H359.887V19.1484H363.305V22.5664H366.723V29.4023H359.887V25.9844H356.469V22.5664H342.797V25.9844H339.379V53.3281H342.797V56.7461ZM380.395 43.0742V63.582H373.559V15.7305H380.395V36.2383H400.902V15.7305H407.738V63.582H400.902V43.0742H380.395ZM438.5 22.5664H424.828V25.9844H421.41V53.3281H424.828V56.7461H438.5V53.3281H441.918V25.9844H438.5V22.5664ZM421.41 19.1484V15.7305H441.918V19.1484H445.336V22.5664H448.754V56.7461H445.336V60.1641H441.918V63.582H421.41V60.1641H417.992V56.7461H414.574V22.5664H417.992V19.1484H421.41ZM469.262 22.5664H455.59V15.7305H489.77V22.5664H476.098V63.582H469.262V22.5664ZM510.277 22.5664H496.605V15.7305H530.785V22.5664H517.113V63.582H510.277V22.5664Z" fill="black"/>
<path d="M37.5977 11.7305V18.5664H10.2539V32.2383H30.7617V39.0742H10.2539V59.582H3.41797V11.7305H37.5977ZM51.2695 18.5664V32.2383H68.3594V28.8203H71.7773V21.9844H68.3594V18.5664H51.2695ZM54.6875 39.0742H51.2695V59.582H44.4336V11.7305H71.7773V15.1484H75.1953V18.5664H78.6133V32.2383H75.1953V35.6562H71.7773V39.0742H64.9414V42.4922H68.3594V45.9102H71.7773V49.3281H75.1953V52.7461H78.6133V59.582H71.7773V56.1641H68.3594V52.7461H64.9414V49.3281H61.5234V45.9102H58.1055V42.4922H54.6875V39.0742ZM119.629 11.7305V18.5664H92.2852V32.2383H112.793V39.0742H92.2852V52.7461H119.629V59.582H85.4492V11.7305H119.629ZM133.301 18.5664V52.7461H150.391V49.3281H153.809V21.9844H150.391V18.5664H133.301ZM126.465 59.582V11.7305H153.809V15.1484H157.227V18.5664H160.645V52.7461H157.227V56.1641H153.809V59.582H126.465ZM215.332 39.0742V59.582H208.496V11.7305H215.332V32.2383H218.75V28.8203H222.168V25.4023H225.586V21.9844H229.004V18.5664H232.422V15.1484H235.84V11.7305H242.676V18.5664H239.258V21.9844H235.84V25.4023H232.422V28.8203H229.004V32.2383H225.586V39.0742H229.004V42.4922H232.422V45.9102H235.84V49.3281H239.258V52.7461H242.676V59.582H235.84V56.1641H232.422V52.7461H229.004V49.3281H225.586V45.9102H222.168V42.4922H218.75V39.0742H215.332ZM266.602 52.7461V59.582H259.766V52.7461H266.602ZM321.289 18.5664H324.707V25.4023H317.871V21.9844H314.453V18.5664H300.781V21.9844H297.363V28.8203H300.781V32.2383H317.871V35.6562H321.289V39.0742H324.707V52.7461H321.289V56.1641H317.871V59.582H297.363V56.1641H293.945V52.7461H290.527V45.9102H297.363V49.3281H300.781V52.7461H314.453V49.3281H317.871V42.4922H314.453V39.0742H297.363V35.6562H293.945V32.2383H290.527V18.5664H293.945V15.1484H297.363V11.7305H317.871V15.1484H321.289V18.5664ZM341.797 52.7461H355.469V49.3281H358.887V45.9102H365.723V52.7461H362.305V56.1641H358.887V59.582H338.379V56.1641H334.961V52.7461H331.543V18.5664H334.961V15.1484H338.379V11.7305H358.887V15.1484H362.305V18.5664H365.723V25.4023H358.887V21.9844H355.469V18.5664H341.797V21.9844H338.379V49.3281H341.797V52.7461ZM379.395 39.0742V59.582H372.559V11.7305H379.395V32.2383H399.902V11.7305H406.738V59.582H399.902V39.0742H379.395ZM437.5 18.5664H423.828V21.9844H420.41V49.3281H423.828V52.7461H437.5V49.3281H440.918V21.9844H437.5V18.5664ZM420.41 15.1484V11.7305H440.918V15.1484H444.336V18.5664H447.754V52.7461H444.336V56.1641H440.918V59.582H420.41V56.1641H416.992V52.7461H413.574V18.5664H416.992V15.1484H420.41ZM468.262 18.5664H454.59V11.7305H488.77V18.5664H475.098V59.582H468.262V18.5664ZM509.277 18.5664H495.605V11.7305H529.785V18.5664H516.113V59.582H509.277V18.5664Z" fill="#9333EA"/>
<mask id="mask0_284_457" style="mask-type:alpha" maskUnits="userSpaceOnUse" x="3" y="11" width="527" height="49">
<path d="M37.5977 11.7305V18.5664H10.2539V32.2383H30.7617V39.0742H10.2539V59.582H3.41797V11.7305H37.5977ZM51.2695 18.5664V32.2383H68.3594V28.8203H71.7773V21.9844H68.3594V18.5664H51.2695ZM54.6875 39.0742H51.2695V59.582H44.4336V11.7305H71.7773V15.1484H75.1953V18.5664H78.6133V32.2383H75.1953V35.6562H71.7773V39.0742H64.9414V42.4922H68.3594V45.9102H71.7773V49.3281H75.1953V52.7461H78.6133V59.582H71.7773V56.1641H68.3594V52.7461H64.9414V49.3281H61.5234V45.9102H58.1055V42.4922H54.6875V39.0742ZM119.629 11.7305V18.5664H92.2852V32.2383H112.793V39.0742H92.2852V52.7461H119.629V59.582H85.4492V11.7305H119.629ZM133.301 18.5664V52.7461H150.391V49.3281H153.809V21.9844H150.391V18.5664H133.301ZM126.465 59.582V11.7305H153.809V15.1484H157.227V18.5664H160.645V52.7461H157.227V56.1641H153.809V59.582H126.465ZM215.332 39.0742V59.582H208.496V11.7305H215.332V32.2383H218.75V28.8203H222.168V25.4023H225.586V21.9844H229.004V18.5664H232.422V15.1484H235.84V11.7305H242.676V18.5664H239.258V21.9844H235.84V25.4023H232.422V28.8203H229.004V32.2383H225.586V39.0742H229.004V42.4922H232.422V45.9102H235.84V49.3281H239.258V52.7461H242.676V59.582H235.84V56.1641H232.422V52.7461H229.004V49.3281H225.586V45.9102H222.168V42.4922H218.75V39.0742H215.332ZM321.289 18.5664H324.707V25.4023H317.871V21.9844H314.453V18.5664H300.781V21.9844H297.363V28.8203H300.781V32.2383H317.871V35.6562H321.289V39.0742H324.707V52.7461H321.289V56.1641H317.871V59.582H297.363V56.1641H293.945V52.7461H290.527V45.9102H297.363V49.3281H300.781V52.7461H314.453V49.3281H317.871V42.4922H314.453V39.0742H297.363V35.6562H293.945V32.2383H290.527V18.5664H293.945V15.1484H297.363V11.7305H317.871V15.1484H321.289V18.5664ZM341.797 52.7461H355.469V49.3281H358.887V45.9102H365.723V52.7461H362.305V56.1641H358.887V59.582H338.379V56.1641H334.961V52.7461H331.543V18.5664H334.961V15.1484H338.379V11.7305H358.887V15.1484H362.305V18.5664H365.723V25.4023H358.887V21.9844H355.469V18.5664H341.797V21.9844H338.379V49.3281H341.797V52.7461ZM379.395 39.0742V59.582H372.559V11.7305H379.395V32.2383H399.902V11.7305H406.738V59.582H399.902V39.0742H379.395ZM437.5 18.5664H423.828V21.9844H420.41V49.3281H423.828V52.7461H437.5V49.3281H440.918V21.9844H437.5V18.5664ZM420.41 15.1484V11.7305H440.918V15.1484H444.336V18.5664H447.754V52.7461H444.336V56.1641H440.918V59.582H420.41V56.1641H416.992V52.7461H413.574V18.5664H416.992V15.1484H420.41ZM468.262 18.5664H454.59V11.7305H488.77V18.5664H475.098V59.582H468.262V18.5664ZM509.277 18.5664H495.605V11.7305H529.785V18.5664H516.113V59.582H509.277V18.5664Z" fill="#E27152"/>
</mask>
<g mask="url(#mask0_284_457)">
<mask id="mask1_284_457" style="mask-type:alpha" maskUnits="userSpaceOnUse" x="2" y="13" width="529" height="42">
<line x1="2" y1="14" x2="531" y2="14" stroke="black" stroke-width="2"/>
<line x1="2" y1="24" x2="531" y2="24" stroke="black" stroke-width="2"/>
<line x1="2" y1="34" x2="531" y2="34" stroke="black" stroke-width="2"/>
<line x1="2" y1="44" x2="531" y2="44" stroke="black" stroke-width="2"/>
<line x1="2" y1="54" x2="531" y2="54" stroke="black" stroke-width="2"/>
</mask>
<g mask="url(#mask1_284_457)">
<rect x="2" y="6" width="527" height="61" fill="url(#paint0_linear_284_457)"/>
</g>
</g>
<defs>
<linearGradient id="paint0_linear_284_457" x1="265.5" y1="6" x2="265.5" y2="67" gradientUnits="userSpaceOnUse">
<stop stop-color="#F3900F"/>
<stop offset="0.419792" stop-color="#9294E8"/>
<stop offset="1" stop-color="#EDEDFF"/>
</linearGradient>
</defs>
</svg>
