<svg width="226" height="104" viewBox="0 0 226 104" fill="none" xmlns="http://www.w3.org/2000/svg">
<path d="M29.748 12.7168V18.0879H8.26367V28.8301H24.377V34.2012H8.26367V50.3145H2.89258V12.7168H29.748ZM40.4902 18.0879V28.8301H53.918V26.1445H56.6035V20.7734H53.918V18.0879H40.4902ZM43.1758 34.2012H40.4902V50.3145H35.1191V12.7168H56.6035V15.4023H59.2891V18.0879H61.9746V28.8301H59.2891V31.5156H56.6035V34.2012H51.2324V36.8867H53.918V39.5723H56.6035V42.2578H59.2891V44.9434H61.9746V50.3145H56.6035V47.6289H53.918V44.9434H51.2324V42.2578H48.5469V39.5723H45.8613V36.8867H43.1758V34.2012ZM94.2012 12.7168V18.0879H72.7168V28.8301H88.8301V34.2012H72.7168V44.9434H94.2012V50.3145H67.3457V12.7168H94.2012ZM104.943 18.0879V44.9434H118.371V42.2578H121.057V20.7734H118.371V18.0879H104.943ZM99.5723 50.3145V12.7168H121.057V15.4023H123.742V18.0879H126.428V44.9434H123.742V47.6289H121.057V50.3145H99.5723ZM169.396 34.2012V50.3145H164.025V12.7168H169.396V28.8301H172.082V26.1445H174.768V23.459H177.453V20.7734H180.139V18.0879H182.824V15.4023H185.51V12.7168H190.881V18.0879H188.195V20.7734H185.51V23.459H182.824V26.1445H180.139V28.8301H177.453V34.2012H180.139V36.8867H182.824V39.5723H185.51V42.2578H188.195V44.9434H190.881V50.3145H185.51V47.6289H182.824V44.9434H180.139V42.2578H177.453V39.5723H174.768V36.8867H172.082V34.2012H169.396ZM43.1758 68.0879H45.8613V73.459H40.4902V70.7734H37.8047V68.0879H27.0625V70.7734H24.377V76.1445H27.0625V78.8301H40.4902V81.5156H43.1758V84.2012H45.8613V94.9434H43.1758V97.6289H40.4902V100.314H24.377V97.6289H21.6914V94.9434H19.0059V89.5723H24.377V92.2578H27.0625V94.9434H37.8047V92.2578H40.4902V86.8867H37.8047V84.2012H24.377V81.5156H21.6914V78.8301H19.0059V68.0879H21.6914V65.4023H24.377V62.7168H40.4902V65.4023H43.1758V68.0879ZM59.2891 94.9434H70.0312V92.2578H72.7168V89.5723H78.0879V94.9434H75.4023V97.6289H72.7168V100.314H56.6035V97.6289H53.918V94.9434H51.2324V68.0879H53.918V65.4023H56.6035V62.7168H72.7168V65.4023H75.4023V68.0879H78.0879V73.459H72.7168V70.7734H70.0312V68.0879H59.2891V70.7734H56.6035V92.2578H59.2891V94.9434ZM88.8301 84.2012V100.314H83.459V62.7168H88.8301V78.8301H104.943V62.7168H110.314V100.314H104.943V84.2012H88.8301ZM134.484 68.0879H123.742V70.7734H121.057V92.2578H123.742V94.9434H134.484V92.2578H137.17V70.7734H134.484V68.0879ZM121.057 65.4023V62.7168H137.17V65.4023H139.855V68.0879H142.541V94.9434H139.855V97.6289H137.17V100.314H121.057V97.6289H118.371V94.9434H115.686V68.0879H118.371V65.4023H121.057ZM158.654 68.0879H147.912V62.7168H174.768V68.0879H164.025V100.314H158.654V68.0879ZM190.881 68.0879H180.139V62.7168H206.994V68.0879H196.252V100.314H190.881V68.0879Z" fill="black"/>
<path d="M29.748 8.7168V14.0879H8.26367V24.8301H24.377V30.2012H8.26367V46.3145H2.89258V8.7168H29.748ZM40.4902 14.0879V24.8301H53.918V22.1445H56.6035V16.7734H53.918V14.0879H40.4902ZM43.1758 30.2012H40.4902V46.3145H35.1191V8.7168H56.6035V11.4023H59.2891V14.0879H61.9746V24.8301H59.2891V27.5156H56.6035V30.2012H51.2324V32.8867H53.918V35.5723H56.6035V38.2578H59.2891V40.9434H61.9746V46.3145H56.6035V43.6289H53.918V40.9434H51.2324V38.2578H48.5469V35.5723H45.8613V32.8867H43.1758V30.2012ZM94.2012 8.7168V14.0879H72.7168V24.8301H88.8301V30.2012H72.7168V40.9434H94.2012V46.3145H67.3457V8.7168H94.2012ZM104.943 14.0879V40.9434H118.371V38.2578H121.057V16.7734H118.371V14.0879H104.943ZM99.5723 46.3145V8.7168H121.057V11.4023H123.742V14.0879H126.428V40.9434H123.742V43.6289H121.057V46.3145H99.5723ZM169.396 30.2012V46.3145H164.025V8.7168H169.396V24.8301H172.082V22.1445H174.768V19.459H177.453V16.7734H180.139V14.0879H182.824V11.4023H185.51V8.7168H190.881V14.0879H188.195V16.7734H185.51V19.459H182.824V22.1445H180.139V24.8301H177.453V30.2012H180.139V32.8867H182.824V35.5723H185.51V38.2578H188.195V40.9434H190.881V46.3145H185.51V43.6289H182.824V40.9434H180.139V38.2578H177.453V35.5723H174.768V32.8867H172.082V30.2012H169.396ZM209.68 40.9434V46.3145H204.309V40.9434H209.68ZM43.1758 64.0879H45.8613V69.459H40.4902V66.7734H37.8047V64.0879H27.0625V66.7734H24.377V72.1445H27.0625V74.8301H40.4902V77.5156H43.1758V80.2012H45.8613V90.9434H43.1758V93.6289H40.4902V96.3145H24.377V93.6289H21.6914V90.9434H19.0059V85.5723H24.377V88.2578H27.0625V90.9434H37.8047V88.2578H40.4902V82.8867H37.8047V80.2012H24.377V77.5156H21.6914V74.8301H19.0059V64.0879H21.6914V61.4023H24.377V58.7168H40.4902V61.4023H43.1758V64.0879ZM59.2891 90.9434H70.0312V88.2578H72.7168V85.5723H78.0879V90.9434H75.4023V93.6289H72.7168V96.3145H56.6035V93.6289H53.918V90.9434H51.2324V64.0879H53.918V61.4023H56.6035V58.7168H72.7168V61.4023H75.4023V64.0879H78.0879V69.459H72.7168V66.7734H70.0312V64.0879H59.2891V66.7734H56.6035V88.2578H59.2891V90.9434ZM88.8301 80.2012V96.3145H83.459V58.7168H88.8301V74.8301H104.943V58.7168H110.314V96.3145H104.943V80.2012H88.8301ZM134.484 64.0879H123.742V66.7734H121.057V88.2578H123.742V90.9434H134.484V88.2578H137.17V66.7734H134.484V64.0879ZM121.057 61.4023V58.7168H137.17V61.4023H139.855V64.0879H142.541V90.9434H139.855V93.6289H137.17V96.3145H121.057V93.6289H118.371V90.9434H115.686V64.0879H118.371V61.4023H121.057ZM158.654 64.0879H147.912V58.7168H174.768V64.0879H164.025V96.3145H158.654V64.0879ZM190.881 64.0879H180.139V58.7168H206.994V64.0879H196.252V96.3145H190.881V64.0879Z" fill="#9333EA"/>
<mask id="mask0_311_8934" style="mask-type:alpha" maskUnits="userSpaceOnUse" x="2" y="8" width="205" height="89">
<path d="M29.748 8.7168V14.0879H8.26367V24.8301H24.377V30.2012H8.26367V46.3145H2.89258V8.7168H29.748ZM40.4902 14.0879V24.8301H53.918V22.1445H56.6035V16.7734H53.918V14.0879H40.4902ZM43.1758 30.2012H40.4902V46.3145H35.1191V8.7168H56.6035V11.4023H59.2891V14.0879H61.9746V24.8301H59.2891V27.5156H56.6035V30.2012H51.2324V32.8867H53.918V35.5723H56.6035V38.2578H59.2891V40.9434H61.9746V46.3145H56.6035V43.6289H53.918V40.9434H51.2324V38.2578H48.5469V35.5723H45.8613V32.8867H43.1758V30.2012ZM94.2012 8.7168V14.0879H72.7168V24.8301H88.8301V30.2012H72.7168V40.9434H94.2012V46.3145H67.3457V8.7168H94.2012ZM104.943 14.0879V40.9434H118.371V38.2578H121.057V16.7734H118.371V14.0879H104.943ZM99.5723 46.3145V8.7168H121.057V11.4023H123.742V14.0879H126.428V40.9434H123.742V43.6289H121.057V46.3145H99.5723ZM169.396 30.2012V46.3145H164.025V8.7168H169.396V24.8301H172.082V22.1445H174.768V19.459H177.453V16.7734H180.139V14.0879H182.824V11.4023H185.51V8.7168H190.881V14.0879H188.195V16.7734H185.51V19.459H182.824V22.1445H180.139V24.8301H177.453V30.2012H180.139V32.8867H182.824V35.5723H185.51V38.2578H188.195V40.9434H190.881V46.3145H185.51V43.6289H182.824V40.9434H180.139V38.2578H177.453V35.5723H174.768V32.8867H172.082V30.2012H169.396ZM43.1758 64.0879H45.8613V69.459H40.4902V66.7734H37.8047V64.0879H27.0625V66.7734H24.377V72.1445H27.0625V74.8301H40.4902V77.5156H43.1758V80.2012H45.8613V90.9434H43.1758V93.6289H40.4902V96.3145H24.377V93.6289H21.6914V90.9434H19.0059V85.5723H24.377V88.2578H27.0625V90.9434H37.8047V88.2578H40.4902V82.8867H37.8047V80.2012H24.377V77.5156H21.6914V74.8301H19.0059V64.0879H21.6914V61.4023H24.377V58.7168H40.4902V61.4023H43.1758V64.0879ZM59.2891 90.9434H70.0312V88.2578H72.7168V85.5723H78.0879V90.9434H75.4023V93.6289H72.7168V96.3145H56.6035V93.6289H53.918V90.9434H51.2324V64.0879H53.918V61.4023H56.6035V58.7168H72.7168V61.4023H75.4023V64.0879H78.0879V69.459H72.7168V66.7734H70.0312V64.0879H59.2891V66.7734H56.6035V88.2578H59.2891V90.9434ZM88.8301 80.2012V96.3145H83.459V58.7168H88.8301V74.8301H104.943V58.7168H110.314V96.3145H104.943V80.2012H88.8301ZM134.484 64.0879H123.742V66.7734H121.057V88.2578H123.742V90.9434H134.484V88.2578H137.17V66.7734H134.484V64.0879ZM121.057 61.4023V58.7168H137.17V61.4023H139.855V64.0879H142.541V90.9434H139.855V93.6289H137.17V96.3145H121.057V93.6289H118.371V90.9434H115.686V64.0879H118.371V61.4023H121.057ZM158.654 64.0879H147.912V58.7168H174.768V64.0879H164.025V96.3145H158.654V64.0879ZM190.881 64.0879H180.139V58.7168H206.994V64.0879H196.252V96.3145H190.881V64.0879Z" fill="#E27152"/>
</mask>
<g mask="url(#mask0_311_8934)">
<mask id="mask1_311_8934" style="mask-type:alpha" maskUnits="userSpaceOnUse" x="-22" y="13" width="244" height="92">
<line x1="-2" y1="14" x2="202" y2="14" stroke="black" stroke-width="2"/>
<line x1="-2" y1="24" x2="202" y2="24" stroke="black" stroke-width="2"/>
<line x1="-2" y1="34" x2="202" y2="34" stroke="black" stroke-width="2"/>
<line x1="-2" y1="44" x2="202" y2="44" stroke="black" stroke-width="2"/>
<line x1="-2" y1="54" x2="202" y2="54" stroke="black" stroke-width="2"/>
<line x1="-2" y1="64" x2="202" y2="64" stroke="black" stroke-width="2"/>
<line x1="-2" y1="74" x2="202" y2="74" stroke="black" stroke-width="2"/>
<line x1="-2" y1="84" x2="202" y2="84" stroke="black" stroke-width="2"/>
<line x1="-2" y1="94" x2="202" y2="94" stroke="black" stroke-width="2"/>
</mask>
<g mask="url(#mask1_311_8934)">
<rect x="-6" y="6" width="216" height="93" fill="url(#paint0_linear_311_8934)"/>
</g>
</g>
<defs>
<linearGradient id="paint0_linear_311_8934" x1="102" y1="6" x2="102" y2="99" gradientUnits="userSpaceOnUse">
<stop stop-color="#F3900F"/>
<stop offset="0.419792" stop-color="#9294E8"/>
<stop offset="1" stop-color="#EDEDFF"/>
</linearGradient>
</defs>
</svg>
