<svg width="576" height="68" viewBox="0 0 576 68" fill="none" xmlns="http://www.w3.org/2000/svg">
<path d="M7.83594 56.7461H4.41797V49.9102H11.2539V53.3281H14.6719V56.7461H21.5078V53.3281H24.9258V22.5664H18.0898V15.7305H38.5977V22.5664H31.7617V56.7461H28.3438V60.1641H24.9258V63.582H11.2539V60.1641H7.83594V56.7461ZM52.2695 43.0742H72.7773V32.8203H69.3594V29.4023H65.9414V25.9844H59.1055V29.4023H55.6875V32.8203H52.2695V43.0742ZM52.2695 63.582H45.4336V29.4023H48.8516V25.9844H52.2695V22.5664H55.6875V19.1484H59.1055V15.7305H65.9414V19.1484H69.3594V22.5664H72.7773V25.9844H76.1953V29.4023H79.6133V63.582H72.7773V49.9102H52.2695V63.582ZM96.7031 56.7461H110.375V53.3281H113.793V49.9102H120.629V56.7461H117.211V60.1641H113.793V63.582H93.2852V60.1641H89.8672V56.7461H86.4492V22.5664H89.8672V19.1484H93.2852V15.7305H113.793V19.1484H117.211V22.5664H120.629V29.4023H113.793V25.9844H110.375V22.5664H96.7031V25.9844H93.2852V53.3281H96.7031V56.7461ZM151.391 22.5664H137.719V25.9844H134.301V53.3281H137.719V56.7461H151.391V53.3281H154.809V25.9844H151.391V22.5664ZM134.301 19.1484V15.7305H154.809V19.1484H158.227V22.5664H161.645V56.7461H158.227V60.1641H154.809V63.582H134.301V60.1641H130.883V56.7461H127.465V22.5664H130.883V19.1484H134.301ZM175.316 36.2383H192.406V32.8203H195.824V25.9844H192.406V22.5664H175.316V36.2383ZM168.48 63.582V15.7305H195.824V19.1484H199.242V22.5664H202.66V36.2383H199.242V43.0742H202.66V56.7461H199.242V60.1641H195.824V63.582H168.48ZM175.316 56.7461H192.406V53.3281H195.824V46.4922H192.406V43.0742H175.316V56.7461ZM257.348 63.582H250.512V15.7305H257.348V22.5664H260.766V25.9844H264.184V29.4023H271.02V25.9844H274.438V22.5664H277.855V15.7305H284.691V63.582H277.855V32.8203H274.438V36.2383H271.02V43.0742H264.184V36.2383H260.766V32.8203H257.348V63.582ZM322.289 22.5664H325.707V29.4023H318.871V25.9844H315.453V22.5664H301.781V25.9844H298.363V53.3281H301.781V56.7461H315.453V53.3281H318.871V43.0742H308.617V36.2383H325.707V56.7461H322.289V60.1641H318.871V63.582H298.363V60.1641H294.945V56.7461H291.527V22.5664H294.945V19.1484H298.363V15.7305H318.871V19.1484H322.289V22.5664ZM407.738 15.7305V22.5664H380.395V36.2383H400.902V43.0742H380.395V56.7461H407.738V63.582H373.559V15.7305H407.738ZM417.992 49.9102H414.574V15.7305H421.41V46.4922H424.828V49.9102H428.246V53.3281H435.082V49.9102H438.5V46.4922H441.918V15.7305H448.754V49.9102H445.336V53.3281H441.918V56.7461H438.5V60.1641H435.082V63.582H428.246V60.1641H424.828V56.7461H421.41V53.3281H417.992V49.9102ZM462.426 43.0742H482.934V32.8203H479.516V29.4023H476.098V25.9844H469.262V29.4023H465.844V32.8203H462.426V43.0742ZM462.426 63.582H455.59V29.4023H459.008V25.9844H462.426V22.5664H465.844V19.1484H469.262V15.7305H476.098V19.1484H479.516V22.5664H482.934V25.9844H486.352V29.4023H489.77V63.582H482.934V49.9102H462.426V63.582ZM503.441 36.2383V63.582H496.605V15.7305H503.441V25.9844H506.859V29.4023H510.277V32.8203H513.695V36.2383H517.113V39.6562H520.531V43.0742H523.949V15.7305H530.785V63.582H523.949V53.3281H520.531V49.9102H517.113V46.4922H513.695V43.0742H510.277V39.6562H506.859V36.2383H503.441ZM568.383 22.5664H571.801V29.4023H564.965V25.9844H561.547V22.5664H547.875V25.9844H544.457V32.8203H547.875V36.2383H564.965V39.6562H568.383V43.0742H571.801V56.7461H568.383V60.1641H564.965V63.582H544.457V60.1641H541.039V56.7461H537.621V49.9102H544.457V53.3281H547.875V56.7461H561.547V53.3281H564.965V46.4922H561.547V43.0742H544.457V39.6562H541.039V36.2383H537.621V22.5664H541.039V19.1484H544.457V15.7305H564.965V19.1484H568.383V22.5664Z" fill="black"/>
<path d="M6.83594 52.7461H3.41797V45.9102H10.2539V49.3281H13.6719V52.7461H20.5078V49.3281H23.9258V18.5664H17.0898V11.7305H37.5977V18.5664H30.7617V52.7461H27.3438V56.1641H23.9258V59.582H10.2539V56.1641H6.83594V52.7461ZM51.2695 39.0742H71.7773V28.8203H68.3594V25.4023H64.9414V21.9844H58.1055V25.4023H54.6875V28.8203H51.2695V39.0742ZM51.2695 59.582H44.4336V25.4023H47.8516V21.9844H51.2695V18.5664H54.6875V15.1484H58.1055V11.7305H64.9414V15.1484H68.3594V18.5664H71.7773V21.9844H75.1953V25.4023H78.6133V59.582H71.7773V45.9102H51.2695V59.582ZM95.7031 52.7461H109.375V49.3281H112.793V45.9102H119.629V52.7461H116.211V56.1641H112.793V59.582H92.2852V56.1641H88.8672V52.7461H85.4492V18.5664H88.8672V15.1484H92.2852V11.7305H112.793V15.1484H116.211V18.5664H119.629V25.4023H112.793V21.9844H109.375V18.5664H95.7031V21.9844H92.2852V49.3281H95.7031V52.7461ZM150.391 18.5664H136.719V21.9844H133.301V49.3281H136.719V52.7461H150.391V49.3281H153.809V21.9844H150.391V18.5664ZM133.301 15.1484V11.7305H153.809V15.1484H157.227V18.5664H160.645V52.7461H157.227V56.1641H153.809V59.582H133.301V56.1641H129.883V52.7461H126.465V18.5664H129.883V15.1484H133.301ZM174.316 32.2383H191.406V28.8203H194.824V21.9844H191.406V18.5664H174.316V32.2383ZM167.48 59.582V11.7305H194.824V15.1484H198.242V18.5664H201.66V32.2383H198.242V39.0742H201.66V52.7461H198.242V56.1641H194.824V59.582H167.48ZM174.316 52.7461H191.406V49.3281H194.824V42.4922H191.406V39.0742H174.316V52.7461ZM256.348 59.582H249.512V11.7305H256.348V18.5664H259.766V21.9844H263.184V25.4023H270.02V21.9844H273.438V18.5664H276.855V11.7305H283.691V59.582H276.855V28.8203H273.438V32.2383H270.02V39.0742H263.184V32.2383H259.766V28.8203H256.348V59.582ZM321.289 18.5664H324.707V25.4023H317.871V21.9844H314.453V18.5664H300.781V21.9844H297.363V49.3281H300.781V52.7461H314.453V49.3281H317.871V39.0742H307.617V32.2383H324.707V52.7461H321.289V56.1641H317.871V59.582H297.363V56.1641H293.945V52.7461H290.527V18.5664H293.945V15.1484H297.363V11.7305H317.871V15.1484H321.289V18.5664ZM406.738 11.7305V18.5664H379.395V32.2383H399.902V39.0742H379.395V52.7461H406.738V59.582H372.559V11.7305H406.738ZM416.992 45.9102H413.574V11.7305H420.41V42.4922H423.828V45.9102H427.246V49.3281H434.082V45.9102H437.5V42.4922H440.918V11.7305H447.754V45.9102H444.336V49.3281H440.918V52.7461H437.5V56.1641H434.082V59.582H427.246V56.1641H423.828V52.7461H420.41V49.3281H416.992V45.9102ZM461.426 39.0742H481.934V28.8203H478.516V25.4023H475.098V21.9844H468.262V25.4023H464.844V28.8203H461.426V39.0742ZM461.426 59.582H454.59V25.4023H458.008V21.9844H461.426V18.5664H464.844V15.1484H468.262V11.7305H475.098V15.1484H478.516V18.5664H481.934V21.9844H485.352V25.4023H488.77V59.582H481.934V45.9102H461.426V59.582ZM502.441 32.2383V59.582H495.605V11.7305H502.441V21.9844H505.859V25.4023H509.277V28.8203H512.695V32.2383H516.113V35.6562H519.531V39.0742H522.949V11.7305H529.785V59.582H522.949V49.3281H519.531V45.9102H516.113V42.4922H512.695V39.0742H509.277V35.6562H505.859V32.2383H502.441ZM567.383 18.5664H570.801V25.4023H563.965V21.9844H560.547V18.5664H546.875V21.9844H543.457V28.8203H546.875V32.2383H563.965V35.6562H567.383V39.0742H570.801V52.7461H567.383V56.1641H563.965V59.582H543.457V56.1641H540.039V52.7461H536.621V45.9102H543.457V49.3281H546.875V52.7461H560.547V49.3281H563.965V42.4922H560.547V39.0742H543.457V35.6562H540.039V32.2383H536.621V18.5664H540.039V15.1484H543.457V11.7305H563.965V15.1484H567.383V18.5664Z" fill="white"/>
<mask id="mask0_406_37" style="mask-type:alpha" maskUnits="userSpaceOnUse" x="3" y="11" width="568" height="49">
<path d="M6.83594 52.7461H3.41797V45.9102H10.2539V49.3281H13.6719V52.7461H20.5078V49.3281H23.9258V18.5664H17.0898V11.7305H37.5977V18.5664H30.7617V52.7461H27.3438V56.1641H23.9258V59.582H10.2539V56.1641H6.83594V52.7461ZM51.2695 39.0742H71.7773V28.8203H68.3594V25.4023H64.9414V21.9844H58.1055V25.4023H54.6875V28.8203H51.2695V39.0742ZM51.2695 59.582H44.4336V25.4023H47.8516V21.9844H51.2695V18.5664H54.6875V15.1484H58.1055V11.7305H64.9414V15.1484H68.3594V18.5664H71.7773V21.9844H75.1953V25.4023H78.6133V59.582H71.7773V45.9102H51.2695V59.582ZM95.7031 52.7461H109.375V49.3281H112.793V45.9102H119.629V52.7461H116.211V56.1641H112.793V59.582H92.2852V56.1641H88.8672V52.7461H85.4492V18.5664H88.8672V15.1484H92.2852V11.7305H112.793V15.1484H116.211V18.5664H119.629V25.4023H112.793V21.9844H109.375V18.5664H95.7031V21.9844H92.2852V49.3281H95.7031V52.7461ZM150.391 18.5664H136.719V21.9844H133.301V49.3281H136.719V52.7461H150.391V49.3281H153.809V21.9844H150.391V18.5664ZM133.301 15.1484V11.7305H153.809V15.1484H157.227V18.5664H160.645V52.7461H157.227V56.1641H153.809V59.582H133.301V56.1641H129.883V52.7461H126.465V18.5664H129.883V15.1484H133.301ZM174.316 32.2383H191.406V28.8203H194.824V21.9844H191.406V18.5664H174.316V32.2383ZM167.48 59.582V11.7305H194.824V15.1484H198.242V18.5664H201.66V32.2383H198.242V39.0742H201.66V52.7461H198.242V56.1641H194.824V59.582H167.48ZM174.316 52.7461H191.406V49.3281H194.824V42.4922H191.406V39.0742H174.316V52.7461ZM256.348 59.582H249.512V11.7305H256.348V18.5664H259.766V21.9844H263.184V25.4023H270.02V21.9844H273.438V18.5664H276.855V11.7305H283.691V59.582H276.855V28.8203H273.438V32.2383H270.02V39.0742H263.184V32.2383H259.766V28.8203H256.348V59.582ZM321.289 18.5664H324.707V25.4023H317.871V21.9844H314.453V18.5664H300.781V21.9844H297.363V49.3281H300.781V52.7461H314.453V49.3281H317.871V39.0742H307.617V32.2383H324.707V52.7461H321.289V56.1641H317.871V59.582H297.363V56.1641H293.945V52.7461H290.527V18.5664H293.945V15.1484H297.363V11.7305H317.871V15.1484H321.289V18.5664ZM406.738 11.7305V18.5664H379.395V32.2383H399.902V39.0742H379.395V52.7461H406.738V59.582H372.559V11.7305H406.738ZM416.992 45.9102H413.574V11.7305H420.41V42.4922H423.828V45.9102H427.246V49.3281H434.082V45.9102H437.5V42.4922H440.918V11.7305H447.754V45.9102H444.336V49.3281H440.918V52.7461H437.5V56.1641H434.082V59.582H427.246V56.1641H423.828V52.7461H420.41V49.3281H416.992V45.9102ZM461.426 39.0742H481.934V28.8203H478.516V25.4023H475.098V21.9844H468.262V25.4023H464.844V28.8203H461.426V39.0742ZM461.426 59.582H454.59V25.4023H458.008V21.9844H461.426V18.5664H464.844V15.1484H468.262V11.7305H475.098V15.1484H478.516V18.5664H481.934V21.9844H485.352V25.4023H488.77V59.582H481.934V45.9102H461.426V59.582ZM502.441 32.2383V59.582H495.605V11.7305H502.441V21.9844H505.859V25.4023H509.277V28.8203H512.695V32.2383H516.113V35.6562H519.531V39.0742H522.949V11.7305H529.785V59.582H522.949V49.3281H519.531V45.9102H516.113V42.4922H512.695V39.0742H509.277V35.6562H505.859V32.2383H502.441ZM567.383 18.5664H570.801V25.4023H563.965V21.9844H560.547V18.5664H546.875V21.9844H543.457V28.8203H546.875V32.2383H563.965V35.6562H567.383V39.0742H570.801V52.7461H567.383V56.1641H563.965V59.582H543.457V56.1641H540.039V52.7461H536.621V45.9102H543.457V49.3281H546.875V52.7461H560.547V49.3281H563.965V42.4922H560.547V39.0742H543.457V35.6562H540.039V32.2383H536.621V18.5664H540.039V15.1484H543.457V11.7305H563.965V15.1484H567.383V18.5664Z" fill="#E27152"/>
</mask>
<g mask="url(#mask0_406_37)">
<mask id="mask1_406_37" style="mask-type:alpha" maskUnits="userSpaceOnUse" x="-26" y="13" width="600" height="42">
<line x1="-26" y1="14" x2="574" y2="14" stroke="black" stroke-width="2"/>
<line x1="-26" y1="24" x2="574" y2="24" stroke="black" stroke-width="2"/>
<line x1="-26" y1="34" x2="574" y2="34" stroke="black" stroke-width="2"/>
<line x1="-26" y1="44" x2="574" y2="44" stroke="black" stroke-width="2"/>
<line x1="-26" y1="54" x2="574" y2="54" stroke="black" stroke-width="2"/>
</mask>
<g mask="url(#mask1_406_37)">
<rect x="2" y="6" width="572" height="61" fill="url(#paint0_linear_406_37)"/>
</g>
</g>
<defs>
<linearGradient id="paint0_linear_406_37" x1="288" y1="6" x2="288" y2="67" gradientUnits="userSpaceOnUse">
<stop stop-color="#F78100"/>
<stop offset="0.419792" stop-color="#F78100"/>
<stop offset="1" stop-color="#FCAD32"/>
</linearGradient>
</defs>
</svg>
