<svg width="291" height="104" viewBox="0 0 291 104" fill="none" xmlns="http://www.w3.org/2000/svg">
<path d="M21.9648 44.9434H19.2793V39.5723H24.6504V42.2578H27.3359V44.9434H32.707V42.2578H35.3926V18.0879H30.0215V12.7168H46.1348V18.0879H40.7637V44.9434H38.0781V47.6289H35.3926V50.3145H24.6504V47.6289H21.9648V44.9434ZM56.877 34.2012H72.9902V26.1445H70.3047V23.459H67.6191V20.7734H62.248V23.459H59.5625V26.1445H56.877V34.2012ZM56.877 50.3145H51.5059V23.459H54.1914V20.7734H56.877V18.0879H59.5625V15.4023H62.248V12.7168H67.6191V15.4023H70.3047V18.0879H72.9902V20.7734H75.6758V23.459H78.3613V50.3145H72.9902V39.5723H56.877V50.3145ZM91.7891 44.9434H102.531V42.2578H105.217V39.5723H110.588V44.9434H107.902V47.6289H105.217V50.3145H89.1035V47.6289H86.418V44.9434H83.7324V18.0879H86.418V15.4023H89.1035V12.7168H105.217V15.4023H107.902V18.0879H110.588V23.459H105.217V20.7734H102.531V18.0879H91.7891V20.7734H89.1035V42.2578H91.7891V44.9434ZM134.758 18.0879H124.016V20.7734H121.33V42.2578H124.016V44.9434H134.758V42.2578H137.443V20.7734H134.758V18.0879ZM121.33 15.4023V12.7168H137.443V15.4023H140.129V18.0879H142.814V44.9434H140.129V47.6289H137.443V50.3145H121.33V47.6289H118.645V44.9434H115.959V18.0879H118.645V15.4023H121.33ZM153.557 28.8301H166.984V26.1445H169.67V20.7734H166.984V18.0879H153.557V28.8301ZM148.186 50.3145V12.7168H169.67V15.4023H172.355V18.0879H175.041V28.8301H172.355V34.2012H175.041V44.9434H172.355V47.6289H169.67V50.3145H148.186ZM153.557 44.9434H166.984V42.2578H169.67V36.8867H166.984V34.2012H153.557V44.9434ZM218.01 50.3145H212.639V12.7168H218.01V18.0879H220.695V20.7734H223.381V23.459H228.752V20.7734H231.438V18.0879H234.123V12.7168H239.494V50.3145H234.123V26.1445H231.438V28.8301H228.752V34.2012H223.381V28.8301H220.695V26.1445H218.01V50.3145ZM269.035 18.0879H271.721V23.459H266.35V20.7734H263.664V18.0879H252.922V20.7734H250.236V42.2578H252.922V44.9434H263.664V42.2578H266.35V34.2012H258.293V28.8301H271.721V44.9434H269.035V47.6289H266.35V50.3145H250.236V47.6289H247.551V44.9434H244.865V18.0879H247.551V15.4023H250.236V12.7168H266.35V15.4023H269.035V18.0879ZM94.4746 62.7168V68.0879H72.9902V78.8301H89.1035V84.2012H72.9902V94.9434H94.4746V100.314H67.6191V62.7168H94.4746ZM102.531 89.5723H99.8457V62.7168H105.217V86.8867H107.902V89.5723H110.588V92.2578H115.959V89.5723H118.645V86.8867H121.33V62.7168H126.701V89.5723H124.016V92.2578H121.33V94.9434H118.645V97.6289H115.959V100.314H110.588V97.6289H107.902V94.9434H105.217V92.2578H102.531V89.5723ZM137.443 84.2012H153.557V76.1445H150.871V73.459H148.186V70.7734H142.814V73.459H140.129V76.1445H137.443V84.2012ZM137.443 100.314H132.072V73.459H134.758V70.7734H137.443V68.0879H140.129V65.4023H142.814V62.7168H148.186V65.4023H150.871V68.0879H153.557V70.7734H156.242V73.459H158.928V100.314H153.557V89.5723H137.443V100.314ZM169.67 78.8301V100.314H164.299V62.7168H169.67V70.7734H172.355V73.459H175.041V76.1445H177.727V78.8301H180.412V81.5156H183.098V84.2012H185.783V62.7168H191.154V100.314H185.783V92.2578H183.098V89.5723H180.412V86.8867H177.727V84.2012H175.041V81.5156H172.355V78.8301H169.67ZM220.695 68.0879H223.381V73.459H218.01V70.7734H215.324V68.0879H204.582V70.7734H201.896V76.1445H204.582V78.8301H218.01V81.5156H220.695V84.2012H223.381V94.9434H220.695V97.6289H218.01V100.314H201.896V97.6289H199.211V94.9434H196.525V89.5723H201.896V92.2578H204.582V94.9434H215.324V92.2578H218.01V86.8867H215.324V84.2012H201.896V81.5156H199.211V78.8301H196.525V68.0879H199.211V65.4023H201.896V62.7168H218.01V65.4023H220.695V68.0879Z" fill="black"/>
<path d="M20.9648 40.9434H18.2793V35.5723H23.6504V38.2578H26.3359V40.9434H31.707V38.2578H34.3926V14.0879H29.0215V8.7168H45.1348V14.0879H39.7637V40.9434H37.0781V43.6289H34.3926V46.3145H23.6504V43.6289H20.9648V40.9434ZM55.877 30.2012H71.9902V22.1445H69.3047V19.459H66.6191V16.7734H61.248V19.459H58.5625V22.1445H55.877V30.2012ZM55.877 46.3145H50.5059V19.459H53.1914V16.7734H55.877V14.0879H58.5625V11.4023H61.248V8.7168H66.6191V11.4023H69.3047V14.0879H71.9902V16.7734H74.6758V19.459H77.3613V46.3145H71.9902V35.5723H55.877V46.3145ZM90.7891 40.9434H101.531V38.2578H104.217V35.5723H109.588V40.9434H106.902V43.6289H104.217V46.3145H88.1035V43.6289H85.418V40.9434H82.7324V14.0879H85.418V11.4023H88.1035V8.7168H104.217V11.4023H106.902V14.0879H109.588V19.459H104.217V16.7734H101.531V14.0879H90.7891V16.7734H88.1035V38.2578H90.7891V40.9434ZM133.758 14.0879H123.016V16.7734H120.33V38.2578H123.016V40.9434H133.758V38.2578H136.443V16.7734H133.758V14.0879ZM120.33 11.4023V8.7168H136.443V11.4023H139.129V14.0879H141.814V40.9434H139.129V43.6289H136.443V46.3145H120.33V43.6289H117.645V40.9434H114.959V14.0879H117.645V11.4023H120.33ZM152.557 24.8301H165.984V22.1445H168.67V16.7734H165.984V14.0879H152.557V24.8301ZM147.186 46.3145V8.7168H168.67V11.4023H171.355V14.0879H174.041V24.8301H171.355V30.2012H174.041V40.9434H171.355V43.6289H168.67V46.3145H147.186ZM152.557 40.9434H165.984V38.2578H168.67V32.8867H165.984V30.2012H152.557V40.9434ZM217.01 46.3145H211.639V8.7168H217.01V14.0879H219.695V16.7734H222.381V19.459H227.752V16.7734H230.438V14.0879H233.123V8.7168H238.494V46.3145H233.123V22.1445H230.438V24.8301H227.752V30.2012H222.381V24.8301H219.695V22.1445H217.01V46.3145ZM268.035 14.0879H270.721V19.459H265.35V16.7734H262.664V14.0879H251.922V16.7734H249.236V38.2578H251.922V40.9434H262.664V38.2578H265.35V30.2012H257.293V24.8301H270.721V40.9434H268.035V43.6289H265.35V46.3145H249.236V43.6289H246.551V40.9434H243.865V14.0879H246.551V11.4023H249.236V8.7168H265.35V11.4023H268.035V14.0879ZM93.4746 58.7168V64.0879H71.9902V74.8301H88.1035V80.2012H71.9902V90.9434H93.4746V96.3145H66.6191V58.7168H93.4746ZM101.531 85.5723H98.8457V58.7168H104.217V82.8867H106.902V85.5723H109.588V88.2578H114.959V85.5723H117.645V82.8867H120.33V58.7168H125.701V85.5723H123.016V88.2578H120.33V90.9434H117.645V93.6289H114.959V96.3145H109.588V93.6289H106.902V90.9434H104.217V88.2578H101.531V85.5723ZM136.443 80.2012H152.557V72.1445H149.871V69.459H147.186V66.7734H141.814V69.459H139.129V72.1445H136.443V80.2012ZM136.443 96.3145H131.072V69.459H133.758V66.7734H136.443V64.0879H139.129V61.4023H141.814V58.7168H147.186V61.4023H149.871V64.0879H152.557V66.7734H155.242V69.459H157.928V96.3145H152.557V85.5723H136.443V96.3145ZM168.67 74.8301V96.3145H163.299V58.7168H168.67V66.7734H171.355V69.459H174.041V72.1445H176.727V74.8301H179.412V77.5156H182.098V80.2012H184.783V58.7168H190.154V96.3145H184.783V88.2578H182.098V85.5723H179.412V82.8867H176.727V80.2012H174.041V77.5156H171.355V74.8301H168.67ZM219.695 64.0879H222.381V69.459H217.01V66.7734H214.324V64.0879H203.582V66.7734H200.896V72.1445H203.582V74.8301H217.01V77.5156H219.695V80.2012H222.381V90.9434H219.695V93.6289H217.01V96.3145H200.896V93.6289H198.211V90.9434H195.525V85.5723H200.896V88.2578H203.582V90.9434H214.324V88.2578H217.01V82.8867H214.324V80.2012H200.896V77.5156H198.211V74.8301H195.525V64.0879H198.211V61.4023H200.896V58.7168H217.01V61.4023H219.695V64.0879Z" fill="white"/>
<mask id="mask0_406_996" style="mask-type:alpha" maskUnits="userSpaceOnUse" x="18" y="8" width="253" height="89">
<path d="M20.9648 40.9434H18.2793V35.5723H23.6504V38.2578H26.3359V40.9434H31.707V38.2578H34.3926V14.0879H29.0215V8.7168H45.1348V14.0879H39.7637V40.9434H37.0781V43.6289H34.3926V46.3145H23.6504V43.6289H20.9648V40.9434ZM55.877 30.2012H71.9902V22.1445H69.3047V19.459H66.6191V16.7734H61.248V19.459H58.5625V22.1445H55.877V30.2012ZM55.877 46.3145H50.5059V19.459H53.1914V16.7734H55.877V14.0879H58.5625V11.4023H61.248V8.7168H66.6191V11.4023H69.3047V14.0879H71.9902V16.7734H74.6758V19.459H77.3613V46.3145H71.9902V35.5723H55.877V46.3145ZM90.7891 40.9434H101.531V38.2578H104.217V35.5723H109.588V40.9434H106.902V43.6289H104.217V46.3145H88.1035V43.6289H85.418V40.9434H82.7324V14.0879H85.418V11.4023H88.1035V8.7168H104.217V11.4023H106.902V14.0879H109.588V19.459H104.217V16.7734H101.531V14.0879H90.7891V16.7734H88.1035V38.2578H90.7891V40.9434ZM133.758 14.0879H123.016V16.7734H120.33V38.2578H123.016V40.9434H133.758V38.2578H136.443V16.7734H133.758V14.0879ZM120.33 11.4023V8.7168H136.443V11.4023H139.129V14.0879H141.814V40.9434H139.129V43.6289H136.443V46.3145H120.33V43.6289H117.645V40.9434H114.959V14.0879H117.645V11.4023H120.33ZM152.557 24.8301H165.984V22.1445H168.67V16.7734H165.984V14.0879H152.557V24.8301ZM147.186 46.3145V8.7168H168.67V11.4023H171.355V14.0879H174.041V24.8301H171.355V30.2012H174.041V40.9434H171.355V43.6289H168.67V46.3145H147.186ZM152.557 40.9434H165.984V38.2578H168.67V32.8867H165.984V30.2012H152.557V40.9434ZM217.01 46.3145H211.639V8.7168H217.01V14.0879H219.695V16.7734H222.381V19.459H227.752V16.7734H230.438V14.0879H233.123V8.7168H238.494V46.3145H233.123V22.1445H230.438V24.8301H227.752V30.2012H222.381V24.8301H219.695V22.1445H217.01V46.3145ZM268.035 14.0879H270.721V19.459H265.35V16.7734H262.664V14.0879H251.922V16.7734H249.236V38.2578H251.922V40.9434H262.664V38.2578H265.35V30.2012H257.293V24.8301H270.721V40.9434H268.035V43.6289H265.35V46.3145H249.236V43.6289H246.551V40.9434H243.865V14.0879H246.551V11.4023H249.236V8.7168H265.35V11.4023H268.035V14.0879ZM93.4746 58.7168V64.0879H71.9902V74.8301H88.1035V80.2012H71.9902V90.9434H93.4746V96.3145H66.6191V58.7168H93.4746ZM101.531 85.5723H98.8457V58.7168H104.217V82.8867H106.902V85.5723H109.588V88.2578H114.959V85.5723H117.645V82.8867H120.33V58.7168H125.701V85.5723H123.016V88.2578H120.33V90.9434H117.645V93.6289H114.959V96.3145H109.588V93.6289H106.902V90.9434H104.217V88.2578H101.531V85.5723ZM136.443 80.2012H152.557V72.1445H149.871V69.459H147.186V66.7734H141.814V69.459H139.129V72.1445H136.443V80.2012ZM136.443 96.3145H131.072V69.459H133.758V66.7734H136.443V64.0879H139.129V61.4023H141.814V58.7168H147.186V61.4023H149.871V64.0879H152.557V66.7734H155.242V69.459H157.928V96.3145H152.557V85.5723H136.443V96.3145ZM168.67 74.8301V96.3145H163.299V58.7168H168.67V66.7734H171.355V69.459H174.041V72.1445H176.727V74.8301H179.412V77.5156H182.098V80.2012H184.783V58.7168H190.154V96.3145H184.783V88.2578H182.098V85.5723H179.412V82.8867H176.727V80.2012H174.041V77.5156H171.355V74.8301H168.67ZM219.695 64.0879H222.381V69.459H217.01V66.7734H214.324V64.0879H203.582V66.7734H200.896V72.1445H203.582V74.8301H217.01V77.5156H219.695V80.2012H222.381V90.9434H219.695V93.6289H217.01V96.3145H200.896V93.6289H198.211V90.9434H195.525V85.5723H200.896V88.2578H203.582V90.9434H214.324V88.2578H217.01V82.8867H214.324V80.2012H200.896V77.5156H198.211V74.8301H195.525V64.0879H198.211V61.4023H200.896V58.7168H217.01V61.4023H219.695V64.0879Z" fill="#E27152"/>
</mask>
<g mask="url(#mask0_406_996)">
<mask id="mask1_406_996" style="mask-type:alpha" maskUnits="userSpaceOnUse" x="33" y="13" width="225" height="82">
<line x1="33" y1="14" x2="258" y2="14" stroke="black" stroke-width="2"/>
<line x1="33" y1="24" x2="258" y2="24" stroke="black" stroke-width="2"/>
<line x1="33" y1="34" x2="258" y2="34" stroke="black" stroke-width="2"/>
<line x1="33" y1="44" x2="258" y2="44" stroke="black" stroke-width="2"/>
<line x1="33" y1="54" x2="258" y2="54" stroke="black" stroke-width="2"/>
<line x1="33" y1="64" x2="258" y2="64" stroke="black" stroke-width="2"/>
<line x1="33" y1="74" x2="258" y2="74" stroke="black" stroke-width="2"/>
<line x1="33" y1="84" x2="258" y2="84" stroke="black" stroke-width="2"/>
<line x1="33" y1="94" x2="258" y2="94" stroke="black" stroke-width="2"/>
</mask>
<g mask="url(#mask1_406_996)">
<rect x="34" y="6" width="224" height="94" fill="url(#paint0_linear_406_996)"/>
</g>
</g>
<defs>
<linearGradient id="paint0_linear_406_996" x1="146" y1="6" x2="146" y2="100" gradientUnits="userSpaceOnUse">
<stop stop-color="#F78100"/>
<stop offset="0.419792" stop-color="#F78100"/>
<stop offset="1" stop-color="#FCAD32"/>
</linearGradient>
</defs>
</svg>
