<svg width="544" height="67" viewBox="0 0 544 67" fill="none" xmlns="http://www.w3.org/2000/svg">
<path d="M16.8359 55.7461H13.418V48.9102H20.2539V52.3281H23.6719V55.7461H30.5078V52.3281H33.9258V21.5664H27.0898V14.7305H47.5977V21.5664H40.7617V55.7461H37.3438V59.1641H33.9258V62.582H20.2539V59.1641H16.8359V55.7461ZM61.2695 42.0742H81.7773V31.8203H78.3594V28.4023H74.9414V24.9844H68.1055V28.4023H64.6875V31.8203H61.2695V42.0742ZM61.2695 62.582H54.4336V28.4023H57.8516V24.9844H61.2695V21.5664H64.6875V18.1484H68.1055V14.7305H74.9414V18.1484H78.3594V21.5664H81.7773V24.9844H85.1953V28.4023H88.6133V62.582H81.7773V48.9102H61.2695V62.582ZM102.285 21.5664V35.2383H119.375V31.8203H122.793V24.9844H119.375V21.5664H102.285ZM105.703 42.0742H102.285V62.582H95.4492V14.7305H122.793V18.1484H126.211V21.5664H129.629V35.2383H126.211V38.6562H122.793V42.0742H115.957V45.4922H119.375V48.9102H122.793V52.3281H126.211V55.7461H129.629V62.582H122.793V59.1641H119.375V55.7461H115.957V52.3281H112.539V48.9102H109.121V45.4922H105.703V42.0742ZM143.301 21.5664V35.2383H160.391V31.8203H163.809V24.9844H160.391V21.5664H143.301ZM146.719 42.0742H143.301V62.582H136.465V14.7305H163.809V18.1484H167.227V21.5664H170.645V35.2383H167.227V38.6562H163.809V42.0742H156.973V45.4922H160.391V48.9102H163.809V52.3281H167.227V55.7461H170.645V62.582H163.809V59.1641H160.391V55.7461H156.973V52.3281H153.555V48.9102H150.137V45.4922H146.719V42.0742ZM211.66 14.7305V21.5664H184.316V35.2383H204.824V42.0742H184.316V55.7461H211.66V62.582H177.48V14.7305H211.66ZM225.332 21.5664V55.7461H242.422V52.3281H245.84V24.9844H242.422V21.5664H225.332ZM218.496 62.582V14.7305H245.84V18.1484H249.258V21.5664H252.676V55.7461H249.258V59.1641H245.84V62.582H218.496ZM331.289 21.5664H334.707V28.4023H327.871V24.9844H324.453V21.5664H310.781V24.9844H307.363V31.8203H310.781V35.2383H327.871V38.6562H331.289V42.0742H334.707V55.7461H331.289V59.1641H327.871V62.582H307.363V59.1641H303.945V55.7461H300.527V48.9102H307.363V52.3281H310.781V55.7461H324.453V52.3281H327.871V45.4922H324.453V42.0742H307.363V38.6562H303.945V35.2383H300.527V21.5664H303.945V18.1484H307.363V14.7305H327.871V18.1484H331.289V21.5664ZM344.961 55.7461H341.543V14.7305H348.379V52.3281H351.797V55.7461H365.469V52.3281H368.887V14.7305H375.723V55.7461H372.305V59.1641H368.887V62.582H348.379V59.1641H344.961V55.7461ZM389.395 62.582H382.559V14.7305H389.395V21.5664H392.812V24.9844H396.23V28.4023H403.066V24.9844H406.484V21.5664H409.902V14.7305H416.738V62.582H409.902V31.8203H406.484V35.2383H403.066V42.0742H396.23V35.2383H392.812V31.8203H389.395V62.582ZM430.41 35.2383V62.582H423.574V14.7305H430.41V24.9844H433.828V28.4023H437.246V31.8203H440.664V35.2383H444.082V38.6562H447.5V42.0742H450.918V14.7305H457.754V62.582H450.918V52.3281H447.5V48.9102H444.082V45.4922H440.664V42.0742H437.246V38.6562H433.828V35.2383H430.41ZM498.77 14.7305V21.5664H471.426V35.2383H491.934V42.0742H471.426V55.7461H498.77V62.582H464.59V14.7305H498.77ZM512.441 21.5664V35.2383H529.531V31.8203H532.949V24.9844H529.531V21.5664H512.441ZM515.859 42.0742H512.441V62.582H505.605V14.7305H532.949V18.1484H536.367V21.5664H539.785V35.2383H536.367V38.6562H532.949V42.0742H526.113V45.4922H529.531V48.9102H532.949V52.3281H536.367V55.7461H539.785V62.582H532.949V59.1641H529.531V55.7461H526.113V52.3281H522.695V48.9102H519.277V45.4922H515.859V42.0742Z" fill="black"/>
<path d="M6.83594 52.7461H3.41797V45.9102H10.2539V49.3281H13.6719V52.7461H20.5078V49.3281H23.9258V18.5664H17.0898V11.7305H37.5977V18.5664H30.7617V52.7461H27.3438V56.1641H23.9258V59.582H10.2539V56.1641H6.83594V52.7461ZM51.2695 39.0742H71.7773V28.8203H68.3594V25.4023H64.9414V21.9844H58.1055V25.4023H54.6875V28.8203H51.2695V39.0742ZM51.2695 59.582H44.4336V25.4023H47.8516V21.9844H51.2695V18.5664H54.6875V15.1484H58.1055V11.7305H64.9414V15.1484H68.3594V18.5664H71.7773V21.9844H75.1953V25.4023H78.6133V59.582H71.7773V45.9102H51.2695V59.582ZM92.2852 18.5664V32.2383H109.375V28.8203H112.793V21.9844H109.375V18.5664H92.2852ZM95.7031 39.0742H92.2852V59.582H85.4492V11.7305H112.793V15.1484H116.211V18.5664H119.629V32.2383H116.211V35.6562H112.793V39.0742H105.957V42.4922H109.375V45.9102H112.793V49.3281H116.211V52.7461H119.629V59.582H112.793V56.1641H109.375V52.7461H105.957V49.3281H102.539V45.9102H99.1211V42.4922H95.7031V39.0742ZM133.301 18.5664V32.2383H150.391V28.8203H153.809V21.9844H150.391V18.5664H133.301ZM136.719 39.0742H133.301V59.582H126.465V11.7305H153.809V15.1484H157.227V18.5664H160.645V32.2383H157.227V35.6562H153.809V39.0742H146.973V42.4922H150.391V45.9102H153.809V49.3281H157.227V52.7461H160.645V59.582H153.809V56.1641H150.391V52.7461H146.973V49.3281H143.555V45.9102H140.137V42.4922H136.719V39.0742ZM201.66 11.7305V18.5664H174.316V32.2383H194.824V39.0742H174.316V52.7461H201.66V59.582H167.48V11.7305H201.66ZM215.332 18.5664V52.7461H232.422V49.3281H235.84V21.9844H232.422V18.5664H215.332ZM208.496 59.582V11.7305H235.84V15.1484H239.258V18.5664H242.676V52.7461H239.258V56.1641H235.84V59.582H208.496ZM321.289 18.5664H324.707V25.4023H317.871V21.9844H314.453V18.5664H300.781V21.9844H297.363V28.8203H300.781V32.2383H317.871V35.6562H321.289V39.0742H324.707V52.7461H321.289V56.1641H317.871V59.582H297.363V56.1641H293.945V52.7461H290.527V45.9102H297.363V49.3281H300.781V52.7461H314.453V49.3281H317.871V42.4922H314.453V39.0742H297.363V35.6562H293.945V32.2383H290.527V18.5664H293.945V15.1484H297.363V11.7305H317.871V15.1484H321.289V18.5664ZM334.961 52.7461H331.543V11.7305H338.379V49.3281H341.797V52.7461H355.469V49.3281H358.887V11.7305H365.723V52.7461H362.305V56.1641H358.887V59.582H338.379V56.1641H334.961V52.7461ZM379.395 59.582H372.559V11.7305H379.395V18.5664H382.812V21.9844H386.23V25.4023H393.066V21.9844H396.484V18.5664H399.902V11.7305H406.738V59.582H399.902V28.8203H396.484V32.2383H393.066V39.0742H386.23V32.2383H382.812V28.8203H379.395V59.582ZM420.41 32.2383V59.582H413.574V11.7305H420.41V21.9844H423.828V25.4023H427.246V28.8203H430.664V32.2383H434.082V35.6562H437.5V39.0742H440.918V11.7305H447.754V59.582H440.918V49.3281H437.5V45.9102H434.082V42.4922H430.664V39.0742H427.246V35.6562H423.828V32.2383H420.41ZM488.77 11.7305V18.5664H461.426V32.2383H481.934V39.0742H461.426V52.7461H488.77V59.582H454.59V11.7305H488.77ZM502.441 18.5664V32.2383H519.531V28.8203H522.949V21.9844H519.531V18.5664H502.441ZM505.859 39.0742H502.441V59.582H495.605V11.7305H522.949V15.1484H526.367V18.5664H529.785V32.2383H526.367V35.6562H522.949V39.0742H516.113V42.4922H519.531V45.9102H522.949V49.3281H526.367V52.7461H529.785V59.582H522.949V56.1641H519.531V52.7461H516.113V49.3281H512.695V45.9102H509.277V42.4922H505.859V39.0742Z" fill="#E27152"/>
<mask id="mask0_30_786" style="mask-type:alpha" maskUnits="userSpaceOnUse" x="3" y="11" width="527" height="49">
<path d="M6.83594 52.7461H3.41797V45.9102H10.2539V49.3281H13.6719V52.7461H20.5078V49.3281H23.9258V18.5664H17.0898V11.7305H37.5977V18.5664H30.7617V52.7461H27.3438V56.1641H23.9258V59.582H10.2539V56.1641H6.83594V52.7461ZM51.2695 39.0742H71.7773V28.8203H68.3594V25.4023H64.9414V21.9844H58.1055V25.4023H54.6875V28.8203H51.2695V39.0742ZM51.2695 59.582H44.4336V25.4023H47.8516V21.9844H51.2695V18.5664H54.6875V15.1484H58.1055V11.7305H64.9414V15.1484H68.3594V18.5664H71.7773V21.9844H75.1953V25.4023H78.6133V59.582H71.7773V45.9102H51.2695V59.582ZM92.2852 18.5664V32.2383H109.375V28.8203H112.793V21.9844H109.375V18.5664H92.2852ZM95.7031 39.0742H92.2852V59.582H85.4492V11.7305H112.793V15.1484H116.211V18.5664H119.629V32.2383H116.211V35.6562H112.793V39.0742H105.957V42.4922H109.375V45.9102H112.793V49.3281H116.211V52.7461H119.629V59.582H112.793V56.1641H109.375V52.7461H105.957V49.3281H102.539V45.9102H99.1211V42.4922H95.7031V39.0742ZM133.301 18.5664V32.2383H150.391V28.8203H153.809V21.9844H150.391V18.5664H133.301ZM136.719 39.0742H133.301V59.582H126.465V11.7305H153.809V15.1484H157.227V18.5664H160.645V32.2383H157.227V35.6562H153.809V39.0742H146.973V42.4922H150.391V45.9102H153.809V49.3281H157.227V52.7461H160.645V59.582H153.809V56.1641H150.391V52.7461H146.973V49.3281H143.555V45.9102H140.137V42.4922H136.719V39.0742ZM201.66 11.7305V18.5664H174.316V32.2383H194.824V39.0742H174.316V52.7461H201.66V59.582H167.48V11.7305H201.66ZM215.332 18.5664V52.7461H232.422V49.3281H235.84V21.9844H232.422V18.5664H215.332ZM208.496 59.582V11.7305H235.84V15.1484H239.258V18.5664H242.676V52.7461H239.258V56.1641H235.84V59.582H208.496ZM321.289 18.5664H324.707V25.4023H317.871V21.9844H314.453V18.5664H300.781V21.9844H297.363V28.8203H300.781V32.2383H317.871V35.6562H321.289V39.0742H324.707V52.7461H321.289V56.1641H317.871V59.582H297.363V56.1641H293.945V52.7461H290.527V45.9102H297.363V49.3281H300.781V52.7461H314.453V49.3281H317.871V42.4922H314.453V39.0742H297.363V35.6562H293.945V32.2383H290.527V18.5664H293.945V15.1484H297.363V11.7305H317.871V15.1484H321.289V18.5664ZM334.961 52.7461H331.543V11.7305H338.379V49.3281H341.797V52.7461H355.469V49.3281H358.887V11.7305H365.723V52.7461H362.305V56.1641H358.887V59.582H338.379V56.1641H334.961V52.7461ZM379.395 59.582H372.559V11.7305H379.395V18.5664H382.812V21.9844H386.23V25.4023H393.066V21.9844H396.484V18.5664H399.902V11.7305H406.738V59.582H399.902V28.8203H396.484V32.2383H393.066V39.0742H386.23V32.2383H382.812V28.8203H379.395V59.582ZM420.41 32.2383V59.582H413.574V11.7305H420.41V21.9844H423.828V25.4023H427.246V28.8203H430.664V32.2383H434.082V35.6562H437.5V39.0742H440.918V11.7305H447.754V59.582H440.918V49.3281H437.5V45.9102H434.082V42.4922H430.664V39.0742H427.246V35.6562H423.828V32.2383H420.41ZM488.77 11.7305V18.5664H461.426V32.2383H481.934V39.0742H461.426V52.7461H488.77V59.582H454.59V11.7305H488.77ZM502.441 18.5664V32.2383H519.531V28.8203H522.949V21.9844H519.531V18.5664H502.441ZM505.859 39.0742H502.441V59.582H495.605V11.7305H522.949V15.1484H526.367V18.5664H529.785V32.2383H526.367V35.6562H522.949V39.0742H516.113V42.4922H519.531V45.9102H522.949V49.3281H526.367V52.7461H529.785V59.582H522.949V56.1641H519.531V52.7461H516.113V49.3281H512.695V45.9102H509.277V42.4922H505.859V39.0742Z" fill="#E27152"/>
</mask>
<g mask="url(#mask0_30_786)">
<mask id="mask1_30_786" style="mask-type:alpha" maskUnits="userSpaceOnUse" x="15" y="13" width="509" height="52">
<line x1="15" y1="14" x2="524" y2="14" stroke="black" stroke-width="2"/>
<line x1="15" y1="24" x2="524" y2="24" stroke="black" stroke-width="2"/>
<line x1="15" y1="34" x2="524" y2="34" stroke="black" stroke-width="2"/>
<line x1="15" y1="44" x2="524" y2="44" stroke="black" stroke-width="2"/>
<line x1="15" y1="54" x2="524" y2="54" stroke="black" stroke-width="2"/>
</mask>
<g mask="url(#mask1_30_786)">
<rect x="2" y="11" width="539" height="52" fill="url(#paint0_linear_30_786)"/>
</g>
</g>
<defs>
<linearGradient id="paint0_linear_30_786" x1="271.5" y1="11" x2="271.5" y2="63" gradientUnits="userSpaceOnUse">
<stop stop-color="#FFBDB6"/>
<stop offset="0.419792" stop-color="#FFC674"/>
<stop offset="1" stop-color="#FEE1CA"/>
</linearGradient>
</defs>
</svg>
