<svg width="206" height="106" viewBox="0 0 206 106" fill="none" xmlns="http://www.w3.org/2000/svg">
<g clip-path="url(#clip0_3_44)">
<path d="M18.1914 46.9434H15.5059V41.5723H20.877V44.2578H23.5625V46.9434H28.9336V44.2578H31.6191V20.0879H26.248V14.7168H42.3613V20.0879H36.9902V46.9434H34.3047V49.6289H31.6191V52.3145H20.877V49.6289H18.1914V46.9434ZM53.1035 36.2012H69.2168V28.1445H66.5312V25.459H63.8457V22.7734H58.4746V25.459H55.7891V28.1445H53.1035V36.2012ZM53.1035 52.3145H47.7324V25.459H50.418V22.7734H53.1035V20.0879H55.7891V17.4023H58.4746V14.7168H63.8457V17.4023H66.5312V20.0879H69.2168V22.7734H71.9023V25.459H74.5879V52.3145H69.2168V41.5723H53.1035V52.3145ZM85.3301 20.0879V30.8301H98.7578V28.1445H101.443V22.7734H98.7578V20.0879H85.3301ZM88.0156 36.2012H85.3301V52.3145H79.959V14.7168H101.443V17.4023H104.129V20.0879H106.814V30.8301H104.129V33.5156H101.443V36.2012H96.0723V38.8867H98.7578V41.5723H101.443V44.2578H104.129V46.9434H106.814V52.3145H101.443V49.6289H98.7578V46.9434H96.0723V44.2578H93.3867V41.5723H90.7012V38.8867H88.0156V36.2012ZM117.557 20.0879V30.8301H130.984V28.1445H133.67V22.7734H130.984V20.0879H117.557ZM120.242 36.2012H117.557V52.3145H112.186V14.7168H133.67V17.4023H136.355V20.0879H139.041V30.8301H136.355V33.5156H133.67V36.2012H128.299V38.8867H130.984V41.5723H133.67V44.2578H136.355V46.9434H139.041V52.3145H133.67V49.6289H130.984V46.9434H128.299V44.2578H125.613V41.5723H122.928V38.8867H120.242V36.2012ZM171.268 14.7168V20.0879H149.783V30.8301H165.896V36.2012H149.783V46.9434H171.268V52.3145H144.412V14.7168H171.268ZM182.01 20.0879V46.9434H195.438V44.2578H198.123V22.7734H195.438V20.0879H182.01ZM176.639 52.3145V14.7168H198.123V17.4023H200.809V20.0879H203.494V46.9434H200.809V49.6289H198.123V52.3145H176.639ZM39.6758 70.0879H42.3613V75.459H36.9902V72.7734H34.3047V70.0879H23.5625V72.7734H20.877V78.1445H23.5625V80.8301H36.9902V83.5156H39.6758V86.2012H42.3613V96.9434H39.6758V99.6289H36.9902V102.314H20.877V99.6289H18.1914V96.9434H15.5059V91.5723H20.877V94.2578H23.5625V96.9434H34.3047V94.2578H36.9902V88.8867H34.3047V86.2012H20.877V83.5156H18.1914V80.8301H15.5059V70.0879H18.1914V67.4023H20.877V64.7168H36.9902V67.4023H39.6758V70.0879ZM50.418 96.9434H47.7324V64.7168H53.1035V94.2578H55.7891V96.9434H66.5312V94.2578H69.2168V64.7168H74.5879V96.9434H71.9023V99.6289H69.2168V102.314H53.1035V99.6289H50.418V96.9434ZM85.3301 102.314H79.959V64.7168H85.3301V70.0879H88.0156V72.7734H90.7012V75.459H96.0723V72.7734H98.7578V70.0879H101.443V64.7168H106.814V102.314H101.443V78.1445H98.7578V80.8301H96.0723V86.2012H90.7012V80.8301H88.0156V78.1445H85.3301V102.314ZM117.557 80.8301V102.314H112.186V64.7168H117.557V72.7734H120.242V75.459H122.928V78.1445H125.613V80.8301H128.299V83.5156H130.984V86.2012H133.67V64.7168H139.041V102.314H133.67V94.2578H130.984V91.5723H128.299V88.8867H125.613V86.2012H122.928V83.5156H120.242V80.8301H117.557ZM171.268 64.7168V70.0879H149.783V80.8301H165.896V86.2012H149.783V96.9434H171.268V102.314H144.412V64.7168H171.268ZM182.01 70.0879V80.8301H195.438V78.1445H198.123V72.7734H195.438V70.0879H182.01ZM184.695 86.2012H182.01V102.314H176.639V64.7168H198.123V67.4023H200.809V70.0879H203.494V80.8301H200.809V83.5156H198.123V86.2012H192.752V88.8867H195.438V91.5723H198.123V94.2578H200.809V96.9434H203.494V102.314H198.123V99.6289H195.438V96.9434H192.752V94.2578H190.066V91.5723H187.381V88.8867H184.695V86.2012Z" fill="black"/>
<path d="M9.19141 40.9434H6.50586V35.5723H11.877V38.2578H14.5625V40.9434H19.9336V38.2578H22.6191V14.0879H17.248V8.7168H33.3613V14.0879H27.9902V40.9434H25.3047V43.6289H22.6191V46.3145H11.877V43.6289H9.19141V40.9434ZM44.1035 30.2012H60.2168V22.1445H57.5312V19.459H54.8457V16.7734H49.4746V19.459H46.7891V22.1445H44.1035V30.2012ZM44.1035 46.3145H38.7324V19.459H41.418V16.7734H44.1035V14.0879H46.7891V11.4023H49.4746V8.7168H54.8457V11.4023H57.5312V14.0879H60.2168V16.7734H62.9023V19.459H65.5879V46.3145H60.2168V35.5723H44.1035V46.3145ZM76.3301 14.0879V24.8301H89.7578V22.1445H92.4434V16.7734H89.7578V14.0879H76.3301ZM79.0156 30.2012H76.3301V46.3145H70.959V8.7168H92.4434V11.4023H95.1289V14.0879H97.8145V24.8301H95.1289V27.5156H92.4434V30.2012H87.0723V32.8867H89.7578V35.5723H92.4434V38.2578H95.1289V40.9434H97.8145V46.3145H92.4434V43.6289H89.7578V40.9434H87.0723V38.2578H84.3867V35.5723H81.7012V32.8867H79.0156V30.2012ZM108.557 14.0879V24.8301H121.984V22.1445H124.67V16.7734H121.984V14.0879H108.557ZM111.242 30.2012H108.557V46.3145H103.186V8.7168H124.67V11.4023H127.355V14.0879H130.041V24.8301H127.355V27.5156H124.67V30.2012H119.299V32.8867H121.984V35.5723H124.67V38.2578H127.355V40.9434H130.041V46.3145H124.67V43.6289H121.984V40.9434H119.299V38.2578H116.613V35.5723H113.928V32.8867H111.242V30.2012ZM162.268 8.7168V14.0879H140.783V24.8301H156.896V30.2012H140.783V40.9434H162.268V46.3145H135.412V8.7168H162.268ZM173.01 14.0879V40.9434H186.438V38.2578H189.123V16.7734H186.438V14.0879H173.01ZM167.639 46.3145V8.7168H189.123V11.4023H191.809V14.0879H194.494V40.9434H191.809V43.6289H189.123V46.3145H167.639ZM30.6758 64.0879H33.3613V69.459H27.9902V66.7734H25.3047V64.0879H14.5625V66.7734H11.877V72.1445H14.5625V74.8301H27.9902V77.5156H30.6758V80.2012H33.3613V90.9434H30.6758V93.6289H27.9902V96.3145H11.877V93.6289H9.19141V90.9434H6.50586V85.5723H11.877V88.2578H14.5625V90.9434H25.3047V88.2578H27.9902V82.8867H25.3047V80.2012H11.877V77.5156H9.19141V74.8301H6.50586V64.0879H9.19141V61.4023H11.877V58.7168H27.9902V61.4023H30.6758V64.0879ZM41.418 90.9434H38.7324V58.7168H44.1035V88.2578H46.7891V90.9434H57.5312V88.2578H60.2168V58.7168H65.5879V90.9434H62.9023V93.6289H60.2168V96.3145H44.1035V93.6289H41.418V90.9434ZM76.3301 96.3145H70.959V58.7168H76.3301V64.0879H79.0156V66.7734H81.7012V69.459H87.0723V66.7734H89.7578V64.0879H92.4434V58.7168H97.8145V96.3145H92.4434V72.1445H89.7578V74.8301H87.0723V80.2012H81.7012V74.8301H79.0156V72.1445H76.3301V96.3145ZM108.557 74.8301V96.3145H103.186V58.7168H108.557V66.7734H111.242V69.459H113.928V72.1445H116.613V74.8301H119.299V77.5156H121.984V80.2012H124.67V58.7168H130.041V96.3145H124.67V88.2578H121.984V85.5723H119.299V82.8867H116.613V80.2012H113.928V77.5156H111.242V74.8301H108.557ZM162.268 58.7168V64.0879H140.783V74.8301H156.896V80.2012H140.783V90.9434H162.268V96.3145H135.412V58.7168H162.268ZM173.01 64.0879V74.8301H186.438V72.1445H189.123V66.7734H186.438V64.0879H173.01ZM175.695 80.2012H173.01V96.3145H167.639V58.7168H189.123V61.4023H191.809V64.0879H194.494V74.8301H191.809V77.5156H189.123V80.2012H183.752V82.8867H186.438V85.5723H189.123V88.2578H191.809V90.9434H194.494V96.3145H189.123V93.6289H186.438V90.9434H183.752V88.2578H181.066V85.5723H178.381V82.8867H175.695V80.2012Z" fill="#E27152"/>
<mask id="mask0_3_44" style="mask-type:alpha" maskUnits="userSpaceOnUse" x="6" y="8" width="189" height="89">
<path d="M9.19141 40.9434H6.50586V35.5723H11.877V38.2578H14.5625V40.9434H19.9336V38.2578H22.6191V14.0879H17.248V8.7168H33.3613V14.0879H27.9902V40.9434H25.3047V43.6289H22.6191V46.3145H11.877V43.6289H9.19141V40.9434ZM44.1035 30.2012H60.2168V22.1445H57.5312V19.459H54.8457V16.7734H49.4746V19.459H46.7891V22.1445H44.1035V30.2012ZM44.1035 46.3145H38.7324V19.459H41.418V16.7734H44.1035V14.0879H46.7891V11.4023H49.4746V8.7168H54.8457V11.4023H57.5312V14.0879H60.2168V16.7734H62.9023V19.459H65.5879V46.3145H60.2168V35.5723H44.1035V46.3145ZM76.3301 14.0879V24.8301H89.7578V22.1445H92.4434V16.7734H89.7578V14.0879H76.3301ZM79.0156 30.2012H76.3301V46.3145H70.959V8.7168H92.4434V11.4023H95.1289V14.0879H97.8145V24.8301H95.1289V27.5156H92.4434V30.2012H87.0723V32.8867H89.7578V35.5723H92.4434V38.2578H95.1289V40.9434H97.8145V46.3145H92.4434V43.6289H89.7578V40.9434H87.0723V38.2578H84.3867V35.5723H81.7012V32.8867H79.0156V30.2012ZM108.557 14.0879V24.8301H121.984V22.1445H124.67V16.7734H121.984V14.0879H108.557ZM111.242 30.2012H108.557V46.3145H103.186V8.7168H124.67V11.4023H127.355V14.0879H130.041V24.8301H127.355V27.5156H124.67V30.2012H119.299V32.8867H121.984V35.5723H124.67V38.2578H127.355V40.9434H130.041V46.3145H124.67V43.6289H121.984V40.9434H119.299V38.2578H116.613V35.5723H113.928V32.8867H111.242V30.2012ZM162.268 8.7168V14.0879H140.783V24.8301H156.896V30.2012H140.783V40.9434H162.268V46.3145H135.412V8.7168H162.268ZM173.01 14.0879V40.9434H186.438V38.2578H189.123V16.7734H186.438V14.0879H173.01ZM167.639 46.3145V8.7168H189.123V11.4023H191.809V14.0879H194.494V40.9434H191.809V43.6289H189.123V46.3145H167.639ZM30.6758 64.0879H33.3613V69.459H27.9902V66.7734H25.3047V64.0879H14.5625V66.7734H11.877V72.1445H14.5625V74.8301H27.9902V77.5156H30.6758V80.2012H33.3613V90.9434H30.6758V93.6289H27.9902V96.3145H11.877V93.6289H9.19141V90.9434H6.50586V85.5723H11.877V88.2578H14.5625V90.9434H25.3047V88.2578H27.9902V82.8867H25.3047V80.2012H11.877V77.5156H9.19141V74.8301H6.50586V64.0879H9.19141V61.4023H11.877V58.7168H27.9902V61.4023H30.6758V64.0879ZM41.418 90.9434H38.7324V58.7168H44.1035V88.2578H46.7891V90.9434H57.5312V88.2578H60.2168V58.7168H65.5879V90.9434H62.9023V93.6289H60.2168V96.3145H44.1035V93.6289H41.418V90.9434ZM76.3301 96.3145H70.959V58.7168H76.3301V64.0879H79.0156V66.7734H81.7012V69.459H87.0723V66.7734H89.7578V64.0879H92.4434V58.7168H97.8145V96.3145H92.4434V72.1445H89.7578V74.8301H87.0723V80.2012H81.7012V74.8301H79.0156V72.1445H76.3301V96.3145ZM108.557 74.8301V96.3145H103.186V58.7168H108.557V66.7734H111.242V69.459H113.928V72.1445H116.613V74.8301H119.299V77.5156H121.984V80.2012H124.67V58.7168H130.041V96.3145H124.67V88.2578H121.984V85.5723H119.299V82.8867H116.613V80.2012H113.928V77.5156H111.242V74.8301H108.557ZM162.268 58.7168V64.0879H140.783V74.8301H156.896V80.2012H140.783V90.9434H162.268V96.3145H135.412V58.7168H162.268ZM173.01 64.0879V74.8301H186.438V72.1445H189.123V66.7734H186.438V64.0879H173.01ZM175.695 80.2012H173.01V96.3145H167.639V58.7168H189.123V61.4023H191.809V64.0879H194.494V74.8301H191.809V77.5156H189.123V80.2012H183.752V82.8867H186.438V85.5723H189.123V88.2578H191.809V90.9434H194.494V96.3145H189.123V93.6289H186.438V90.9434H183.752V88.2578H181.066V85.5723H178.381V82.8867H175.695V80.2012Z" fill="#E27152"/>
</mask>
<g mask="url(#mask0_3_44)">
<mask id="mask1_3_44" style="mask-type:alpha" maskUnits="userSpaceOnUse" x="-71" y="13" width="343" height="82">
<line x1="-71" y1="14" x2="272" y2="14" stroke="black" stroke-width="2"/>
<line x1="-71" y1="24" x2="272" y2="24" stroke="black" stroke-width="2"/>
<line x1="-71" y1="34" x2="272" y2="34" stroke="black" stroke-width="2"/>
<line x1="-71" y1="44" x2="272" y2="44" stroke="black" stroke-width="2"/>
<line x1="-71" y1="54" x2="272" y2="54" stroke="black" stroke-width="2"/>
<line x1="-71" y1="64" x2="272" y2="64" stroke="black" stroke-width="2"/>
<line x1="-71" y1="74" x2="272" y2="74" stroke="black" stroke-width="2"/>
<line x1="-71" y1="84" x2="272" y2="84" stroke="black" stroke-width="2"/>
<line x1="-71" y1="94" x2="272" y2="94" stroke="black" stroke-width="2"/>
</mask>
<g mask="url(#mask1_3_44)">
<rect x="-71" y="11" width="343" height="119" fill="url(#paint0_linear_3_44)"/>
</g>
</g>
</g>
<defs>
<linearGradient id="paint0_linear_3_44" x1="100.5" y1="11" x2="100.5" y2="130" gradientUnits="userSpaceOnUse">
<stop stop-color="#FFBDB6"/>
<stop offset="0.419792" stop-color="#FFC674"/>
<stop offset="1" stop-color="#FEE1CA"/>
</linearGradient>
<clipPath id="clip0_3_44">
<rect width="206" height="106" fill="white"/>
</clipPath>
</defs>
</svg>
