<svg width="576" height="68" viewBox="0 0 576 68" fill="none" xmlns="http://www.w3.org/2000/svg">
<path d="M11.2539 43.0742V63.582H4.41797V15.7305H11.2539V36.2383H14.6719V32.8203H18.0898V29.4023H21.5078V25.9844H24.9258V22.5664H28.3438V19.1484H31.7617V15.7305H38.5977V22.5664H35.1797V25.9844H31.7617V29.4023H28.3438V32.8203H24.9258V36.2383H21.5078V43.0742H24.9258V46.4922H28.3438V49.9102H31.7617V53.3281H35.1797V56.7461H38.5977V63.582H31.7617V60.1641H28.3438V56.7461H24.9258V53.3281H21.5078V49.9102H18.0898V46.4922H14.6719V43.0742H11.2539ZM79.6133 15.7305V22.5664H52.2695V36.2383H72.7773V43.0742H52.2695V56.7461H79.6133V63.582H45.4336V15.7305H79.6133ZM89.8672 49.9102H86.4492V15.7305H93.2852V46.4922H96.7031V49.9102H100.121V53.3281H106.957V49.9102H110.375V46.4922H113.793V15.7305H120.629V49.9102H117.211V53.3281H113.793V56.7461H110.375V60.1641H106.957V63.582H100.121V60.1641H96.7031V56.7461H93.2852V53.3281H89.8672V49.9102ZM134.301 63.582V56.7461H141.137V22.5664H134.301V15.7305H154.809V22.5664H147.973V56.7461H154.809V63.582H134.301ZM175.316 36.2383V63.582H168.48V15.7305H175.316V25.9844H178.734V29.4023H182.152V32.8203H185.57V36.2383H188.988V39.6562H192.406V43.0742H195.824V15.7305H202.66V63.582H195.824V53.3281H192.406V49.9102H188.988V46.4922H185.57V43.0742H182.152V39.6562H178.734V36.2383H175.316ZM253.93 56.7461H250.512V49.9102H257.348V53.3281H260.766V56.7461H267.602V53.3281H271.02V22.5664H264.184V15.7305H284.691V22.5664H277.855V56.7461H274.438V60.1641H271.02V63.582H257.348V60.1641H253.93V56.7461ZM325.707 15.7305V22.5664H298.363V36.2383H318.871V43.0742H298.363V56.7461H325.707V63.582H291.527V15.7305H325.707ZM339.379 22.5664V36.2383H356.469V32.8203H359.887V25.9844H356.469V22.5664H339.379ZM342.797 43.0742H339.379V63.582H332.543V15.7305H359.887V19.1484H363.305V22.5664H366.723V36.2383H363.305V39.6562H359.887V43.0742H353.051V46.4922H356.469V49.9102H359.887V53.3281H363.305V56.7461H366.723V63.582H359.887V60.1641H356.469V56.7461H353.051V53.3281H349.633V49.9102H346.215V46.4922H342.797V43.0742ZM380.395 36.2383V63.582H373.559V15.7305H380.395V25.9844H383.812V29.4023H387.23V32.8203H390.648V36.2383H394.066V39.6562H397.484V43.0742H400.902V15.7305H407.738V63.582H400.902V53.3281H397.484V49.9102H394.066V46.4922H390.648V43.0742H387.23V39.6562H383.812V36.2383H380.395ZM421.41 63.582V56.7461H428.246V22.5664H421.41V15.7305H441.918V22.5664H435.082V56.7461H441.918V63.582H421.41ZM486.352 22.5664H489.77V29.4023H482.934V25.9844H479.516V22.5664H465.844V25.9844H462.426V53.3281H465.844V56.7461H479.516V53.3281H482.934V43.0742H472.68V36.2383H489.77V56.7461H486.352V60.1641H482.934V63.582H462.426V60.1641H459.008V56.7461H455.59V22.5664H459.008V19.1484H462.426V15.7305H482.934V19.1484H486.352V22.5664ZM503.441 43.0742H523.949V32.8203H520.531V29.4023H517.113V25.9844H510.277V29.4023H506.859V32.8203H503.441V43.0742ZM503.441 63.582H496.605V29.4023H500.023V25.9844H503.441V22.5664H506.859V19.1484H510.277V15.7305H517.113V19.1484H520.531V22.5664H523.949V25.9844H527.367V29.4023H530.785V63.582H523.949V49.9102H503.441V63.582ZM544.457 36.2383V63.582H537.621V15.7305H544.457V25.9844H547.875V29.4023H551.293V32.8203H554.711V36.2383H558.129V39.6562H561.547V43.0742H564.965V15.7305H571.801V63.582H564.965V53.3281H561.547V49.9102H558.129V46.4922H554.711V43.0742H551.293V39.6562H547.875V36.2383H544.457Z" fill="black"/>
<path d="M10.2539 39.0742V59.582H3.41797V11.7305H10.2539V32.2383H13.6719V28.8203H17.0898V25.4023H20.5078V21.9844H23.9258V18.5664H27.3438V15.1484H30.7617V11.7305H37.5977V18.5664H34.1797V21.9844H30.7617V25.4023H27.3438V28.8203H23.9258V32.2383H20.5078V39.0742H23.9258V42.4922H27.3438V45.9102H30.7617V49.3281H34.1797V52.7461H37.5977V59.582H30.7617V56.1641H27.3438V52.7461H23.9258V49.3281H20.5078V45.9102H17.0898V42.4922H13.6719V39.0742H10.2539ZM78.6133 11.7305V18.5664H51.2695V32.2383H71.7773V39.0742H51.2695V52.7461H78.6133V59.582H44.4336V11.7305H78.6133ZM88.8672 45.9102H85.4492V11.7305H92.2852V42.4922H95.7031V45.9102H99.1211V49.3281H105.957V45.9102H109.375V42.4922H112.793V11.7305H119.629V45.9102H116.211V49.3281H112.793V52.7461H109.375V56.1641H105.957V59.582H99.1211V56.1641H95.7031V52.7461H92.2852V49.3281H88.8672V45.9102ZM133.301 59.582V52.7461H140.137V18.5664H133.301V11.7305H153.809V18.5664H146.973V52.7461H153.809V59.582H133.301ZM174.316 32.2383V59.582H167.48V11.7305H174.316V21.9844H177.734V25.4023H181.152V28.8203H184.57V32.2383H187.988V35.6562H191.406V39.0742H194.824V11.7305H201.66V59.582H194.824V49.3281H191.406V45.9102H187.988V42.4922H184.57V39.0742H181.152V35.6562H177.734V32.2383H174.316ZM252.93 52.7461H249.512V45.9102H256.348V49.3281H259.766V52.7461H266.602V49.3281H270.02V18.5664H263.184V11.7305H283.691V18.5664H276.855V52.7461H273.438V56.1641H270.02V59.582H256.348V56.1641H252.93V52.7461ZM324.707 11.7305V18.5664H297.363V32.2383H317.871V39.0742H297.363V52.7461H324.707V59.582H290.527V11.7305H324.707ZM338.379 18.5664V32.2383H355.469V28.8203H358.887V21.9844H355.469V18.5664H338.379ZM341.797 39.0742H338.379V59.582H331.543V11.7305H358.887V15.1484H362.305V18.5664H365.723V32.2383H362.305V35.6562H358.887V39.0742H352.051V42.4922H355.469V45.9102H358.887V49.3281H362.305V52.7461H365.723V59.582H358.887V56.1641H355.469V52.7461H352.051V49.3281H348.633V45.9102H345.215V42.4922H341.797V39.0742ZM379.395 32.2383V59.582H372.559V11.7305H379.395V21.9844H382.812V25.4023H386.23V28.8203H389.648V32.2383H393.066V35.6562H396.484V39.0742H399.902V11.7305H406.738V59.582H399.902V49.3281H396.484V45.9102H393.066V42.4922H389.648V39.0742H386.23V35.6562H382.812V32.2383H379.395ZM420.41 59.582V52.7461H427.246V18.5664H420.41V11.7305H440.918V18.5664H434.082V52.7461H440.918V59.582H420.41ZM485.352 18.5664H488.77V25.4023H481.934V21.9844H478.516V18.5664H464.844V21.9844H461.426V49.3281H464.844V52.7461H478.516V49.3281H481.934V39.0742H471.68V32.2383H488.77V52.7461H485.352V56.1641H481.934V59.582H461.426V56.1641H458.008V52.7461H454.59V18.5664H458.008V15.1484H461.426V11.7305H481.934V15.1484H485.352V18.5664ZM502.441 39.0742H522.949V28.8203H519.531V25.4023H516.113V21.9844H509.277V25.4023H505.859V28.8203H502.441V39.0742ZM502.441 59.582H495.605V25.4023H499.023V21.9844H502.441V18.5664H505.859V15.1484H509.277V11.7305H516.113V15.1484H519.531V18.5664H522.949V21.9844H526.367V25.4023H529.785V59.582H522.949V45.9102H502.441V59.582ZM543.457 32.2383V59.582H536.621V11.7305H543.457V21.9844H546.875V25.4023H550.293V28.8203H553.711V32.2383H557.129V35.6562H560.547V39.0742H563.965V11.7305H570.801V59.582H563.965V49.3281H560.547V45.9102H557.129V42.4922H553.711V39.0742H550.293V35.6562H546.875V32.2383H543.457Z" fill="#00ED64"/>
<mask id="mask0_287_1365" style="mask-type:alpha" maskUnits="userSpaceOnUse" x="3" y="11" width="568" height="49">
<path d="M10.2539 39.0742V59.582H3.41797V11.7305H10.2539V32.2383H13.6719V28.8203H17.0898V25.4023H20.5078V21.9844H23.9258V18.5664H27.3438V15.1484H30.7617V11.7305H37.5977V18.5664H34.1797V21.9844H30.7617V25.4023H27.3438V28.8203H23.9258V32.2383H20.5078V39.0742H23.9258V42.4922H27.3438V45.9102H30.7617V49.3281H34.1797V52.7461H37.5977V59.582H30.7617V56.1641H27.3438V52.7461H23.9258V49.3281H20.5078V45.9102H17.0898V42.4922H13.6719V39.0742H10.2539ZM78.6133 11.7305V18.5664H51.2695V32.2383H71.7773V39.0742H51.2695V52.7461H78.6133V59.582H44.4336V11.7305H78.6133ZM88.8672 45.9102H85.4492V11.7305H92.2852V42.4922H95.7031V45.9102H99.1211V49.3281H105.957V45.9102H109.375V42.4922H112.793V11.7305H119.629V45.9102H116.211V49.3281H112.793V52.7461H109.375V56.1641H105.957V59.582H99.1211V56.1641H95.7031V52.7461H92.2852V49.3281H88.8672V45.9102ZM133.301 59.582V52.7461H140.137V18.5664H133.301V11.7305H153.809V18.5664H146.973V52.7461H153.809V59.582H133.301ZM174.316 32.2383V59.582H167.48V11.7305H174.316V21.9844H177.734V25.4023H181.152V28.8203H184.57V32.2383H187.988V35.6562H191.406V39.0742H194.824V11.7305H201.66V59.582H194.824V49.3281H191.406V45.9102H187.988V42.4922H184.57V39.0742H181.152V35.6562H177.734V32.2383H174.316ZM252.93 52.7461H249.512V45.9102H256.348V49.3281H259.766V52.7461H266.602V49.3281H270.02V18.5664H263.184V11.7305H283.691V18.5664H276.855V52.7461H273.438V56.1641H270.02V59.582H256.348V56.1641H252.93V52.7461ZM324.707 11.7305V18.5664H297.363V32.2383H317.871V39.0742H297.363V52.7461H324.707V59.582H290.527V11.7305H324.707ZM338.379 18.5664V32.2383H355.469V28.8203H358.887V21.9844H355.469V18.5664H338.379ZM341.797 39.0742H338.379V59.582H331.543V11.7305H358.887V15.1484H362.305V18.5664H365.723V32.2383H362.305V35.6562H358.887V39.0742H352.051V42.4922H355.469V45.9102H358.887V49.3281H362.305V52.7461H365.723V59.582H358.887V56.1641H355.469V52.7461H352.051V49.3281H348.633V45.9102H345.215V42.4922H341.797V39.0742ZM379.395 32.2383V59.582H372.559V11.7305H379.395V21.9844H382.812V25.4023H386.23V28.8203H389.648V32.2383H393.066V35.6562H396.484V39.0742H399.902V11.7305H406.738V59.582H399.902V49.3281H396.484V45.9102H393.066V42.4922H389.648V39.0742H386.23V35.6562H382.812V32.2383H379.395ZM420.41 59.582V52.7461H427.246V18.5664H420.41V11.7305H440.918V18.5664H434.082V52.7461H440.918V59.582H420.41ZM485.352 18.5664H488.77V25.4023H481.934V21.9844H478.516V18.5664H464.844V21.9844H461.426V49.3281H464.844V52.7461H478.516V49.3281H481.934V39.0742H471.68V32.2383H488.77V52.7461H485.352V56.1641H481.934V59.582H461.426V56.1641H458.008V52.7461H454.59V18.5664H458.008V15.1484H461.426V11.7305H481.934V15.1484H485.352V18.5664ZM502.441 39.0742H522.949V28.8203H519.531V25.4023H516.113V21.9844H509.277V25.4023H505.859V28.8203H502.441V39.0742ZM502.441 59.582H495.605V25.4023H499.023V21.9844H502.441V18.5664H505.859V15.1484H509.277V11.7305H516.113V15.1484H519.531V18.5664H522.949V21.9844H526.367V25.4023H529.785V59.582H522.949V45.9102H502.441V59.582ZM543.457 32.2383V59.582H536.621V11.7305H543.457V21.9844H546.875V25.4023H550.293V28.8203H553.711V32.2383H557.129V35.6562H560.547V39.0742H563.965V11.7305H570.801V59.582H563.965V49.3281H560.547V45.9102H557.129V42.4922H553.711V39.0742H550.293V35.6562H546.875V32.2383H543.457Z" fill="#E27152"/>
</mask>
<g mask="url(#mask0_287_1365)">
<mask id="mask1_287_1365" style="mask-type:alpha" maskUnits="userSpaceOnUse" x="2" y="13" width="572" height="42">
<line x1="2" y1="14" x2="571" y2="14" stroke="black" stroke-width="2"/>
<line x1="2" y1="24" x2="571" y2="24" stroke="black" stroke-width="2"/>
<line x1="2" y1="34" x2="571" y2="34" stroke="black" stroke-width="2"/>
<line x1="2" y1="44" x2="571" y2="44" stroke="black" stroke-width="2"/>
<line x1="2" y1="54" x2="571" y2="54" stroke="black" stroke-width="2"/>
</mask>
<g mask="url(#mask1_287_1365)">
<rect x="2" y="6" width="574" height="61" fill="url(#paint0_linear_287_1365)"/>
</g>
</g>
<defs>
<linearGradient id="paint0_linear_287_1365" x1="289" y1="6" x2="289" y2="67" gradientUnits="userSpaceOnUse">
<stop stop-color="white"/>
<stop offset="0.419792" stop-color="#B1FF05"/>
<stop offset="1" stop-color="#FDFEFC"/>
</linearGradient>
</defs>
</svg>
