<svg width="291" height="105" viewBox="0 0 291 105" fill="none" xmlns="http://www.w3.org/2000/svg">
<path d="M72.9902 35.2012V51.3145H67.6191V13.7168H72.9902V29.8301H75.6758V27.1445H78.3613V24.459H81.0469V21.7734H83.7324V19.0879H86.418V16.4023H89.1035V13.7168H94.4746V19.0879H91.7891V21.7734H89.1035V24.459H86.418V27.1445H83.7324V29.8301H81.0469V35.2012H83.7324V37.8867H86.418V40.5723H89.1035V43.2578H91.7891V45.9434H94.4746V51.3145H89.1035V48.6289H86.418V45.9434H83.7324V43.2578H81.0469V40.5723H78.3613V37.8867H75.6758V35.2012H72.9902ZM126.701 13.7168V19.0879H105.217V29.8301H121.33V35.2012H105.217V45.9434H126.701V51.3145H99.8457V13.7168H126.701ZM134.758 40.5723H132.072V13.7168H137.443V37.8867H140.129V40.5723H142.814V43.2578H148.186V40.5723H150.871V37.8867H153.557V13.7168H158.928V40.5723H156.242V43.2578H153.557V45.9434H150.871V48.6289H148.186V51.3145H142.814V48.6289H140.129V45.9434H137.443V43.2578H134.758V40.5723ZM169.67 51.3145V45.9434H175.041V19.0879H169.67V13.7168H185.783V19.0879H180.412V45.9434H185.783V51.3145H169.67ZM201.896 29.8301V51.3145H196.525V13.7168H201.896V21.7734H204.582V24.459H207.268V27.1445H209.953V29.8301H212.639V32.5156H215.324V35.2012H218.01V13.7168H223.381V51.3145H218.01V43.2578H215.324V40.5723H212.639V37.8867H209.953V35.2012H207.268V32.5156H204.582V29.8301H201.896ZM21.9648 95.9434H19.2793V90.5723H24.6504V93.2578H27.3359V95.9434H32.707V93.2578H35.3926V69.0879H30.0215V63.7168H46.1348V69.0879H40.7637V95.9434H38.0781V98.6289H35.3926V101.314H24.6504V98.6289H21.9648V95.9434ZM78.3613 63.7168V69.0879H56.877V79.8301H72.9902V85.2012H56.877V95.9434H78.3613V101.314H51.5059V63.7168H78.3613ZM89.1035 69.0879V79.8301H102.531V77.1445H105.217V71.7734H102.531V69.0879H89.1035ZM91.7891 85.2012H89.1035V101.314H83.7324V63.7168H105.217V66.4023H107.902V69.0879H110.588V79.8301H107.902V82.5156H105.217V85.2012H99.8457V87.8867H102.531V90.5723H105.217V93.2578H107.902V95.9434H110.588V101.314H105.217V98.6289H102.531V95.9434H99.8457V93.2578H97.1602V90.5723H94.4746V87.8867H91.7891V85.2012ZM121.33 79.8301V101.314H115.959V63.7168H121.33V71.7734H124.016V74.459H126.701V77.1445H129.387V79.8301H132.072V82.5156H134.758V85.2012H137.443V63.7168H142.814V101.314H137.443V93.2578H134.758V90.5723H132.072V87.8867H129.387V85.2012H126.701V82.5156H124.016V79.8301H121.33ZM153.557 101.314V95.9434H158.928V69.0879H153.557V63.7168H169.67V69.0879H164.299V95.9434H169.67V101.314H153.557ZM204.582 69.0879H207.268V74.459H201.896V71.7734H199.211V69.0879H188.469V71.7734H185.783V93.2578H188.469V95.9434H199.211V93.2578H201.896V85.2012H193.84V79.8301H207.268V95.9434H204.582V98.6289H201.896V101.314H185.783V98.6289H183.098V95.9434H180.412V69.0879H183.098V66.4023H185.783V63.7168H201.896V66.4023H204.582V69.0879ZM218.01 85.2012H234.123V77.1445H231.438V74.459H228.752V71.7734H223.381V74.459H220.695V77.1445H218.01V85.2012ZM218.01 101.314H212.639V74.459H215.324V71.7734H218.01V69.0879H220.695V66.4023H223.381V63.7168H228.752V66.4023H231.438V69.0879H234.123V71.7734H236.809V74.459H239.494V101.314H234.123V90.5723H218.01V101.314ZM250.236 79.8301V101.314H244.865V63.7168H250.236V71.7734H252.922V74.459H255.607V77.1445H258.293V79.8301H260.979V82.5156H263.664V85.2012H266.35V63.7168H271.721V101.314H266.35V93.2578H263.664V90.5723H260.979V87.8867H258.293V85.2012H255.607V82.5156H252.922V79.8301H250.236Z" fill="black"/>
<path d="M71.9902 31.2012V47.3145H66.6191V9.7168H71.9902V25.8301H74.6758V23.1445H77.3613V20.459H80.0469V17.7734H82.7324V15.0879H85.418V12.4023H88.1035V9.7168H93.4746V15.0879H90.7891V17.7734H88.1035V20.459H85.418V23.1445H82.7324V25.8301H80.0469V31.2012H82.7324V33.8867H85.418V36.5723H88.1035V39.2578H90.7891V41.9434H93.4746V47.3145H88.1035V44.6289H85.418V41.9434H82.7324V39.2578H80.0469V36.5723H77.3613V33.8867H74.6758V31.2012H71.9902ZM125.701 9.7168V15.0879H104.217V25.8301H120.33V31.2012H104.217V41.9434H125.701V47.3145H98.8457V9.7168H125.701ZM133.758 36.5723H131.072V9.7168H136.443V33.8867H139.129V36.5723H141.814V39.2578H147.186V36.5723H149.871V33.8867H152.557V9.7168H157.928V36.5723H155.242V39.2578H152.557V41.9434H149.871V44.6289H147.186V47.3145H141.814V44.6289H139.129V41.9434H136.443V39.2578H133.758V36.5723ZM168.67 47.3145V41.9434H174.041V15.0879H168.67V9.7168H184.783V15.0879H179.412V41.9434H184.783V47.3145H168.67ZM200.896 25.8301V47.3145H195.525V9.7168H200.896V17.7734H203.582V20.459H206.268V23.1445H208.953V25.8301H211.639V28.5156H214.324V31.2012H217.01V9.7168H222.381V47.3145H217.01V39.2578H214.324V36.5723H211.639V33.8867H208.953V31.2012H206.268V28.5156H203.582V25.8301H200.896ZM20.9648 91.9434H18.2793V86.5723H23.6504V89.2578H26.3359V91.9434H31.707V89.2578H34.3926V65.0879H29.0215V59.7168H45.1348V65.0879H39.7637V91.9434H37.0781V94.6289H34.3926V97.3145H23.6504V94.6289H20.9648V91.9434ZM77.3613 59.7168V65.0879H55.877V75.8301H71.9902V81.2012H55.877V91.9434H77.3613V97.3145H50.5059V59.7168H77.3613ZM88.1035 65.0879V75.8301H101.531V73.1445H104.217V67.7734H101.531V65.0879H88.1035ZM90.7891 81.2012H88.1035V97.3145H82.7324V59.7168H104.217V62.4023H106.902V65.0879H109.588V75.8301H106.902V78.5156H104.217V81.2012H98.8457V83.8867H101.531V86.5723H104.217V89.2578H106.902V91.9434H109.588V97.3145H104.217V94.6289H101.531V91.9434H98.8457V89.2578H96.1602V86.5723H93.4746V83.8867H90.7891V81.2012ZM120.33 75.8301V97.3145H114.959V59.7168H120.33V67.7734H123.016V70.459H125.701V73.1445H128.387V75.8301H131.072V78.5156H133.758V81.2012H136.443V59.7168H141.814V97.3145H136.443V89.2578H133.758V86.5723H131.072V83.8867H128.387V81.2012H125.701V78.5156H123.016V75.8301H120.33ZM152.557 97.3145V91.9434H157.928V65.0879H152.557V59.7168H168.67V65.0879H163.299V91.9434H168.67V97.3145H152.557ZM203.582 65.0879H206.268V70.459H200.896V67.7734H198.211V65.0879H187.469V67.7734H184.783V89.2578H187.469V91.9434H198.211V89.2578H200.896V81.2012H192.84V75.8301H206.268V91.9434H203.582V94.6289H200.896V97.3145H184.783V94.6289H182.098V91.9434H179.412V65.0879H182.098V62.4023H184.783V59.7168H200.896V62.4023H203.582V65.0879ZM217.01 81.2012H233.123V73.1445H230.438V70.459H227.752V67.7734H222.381V70.459H219.695V73.1445H217.01V81.2012ZM217.01 97.3145H211.639V70.459H214.324V67.7734H217.01V65.0879H219.695V62.4023H222.381V59.7168H227.752V62.4023H230.438V65.0879H233.123V67.7734H235.809V70.459H238.494V97.3145H233.123V86.5723H217.01V97.3145ZM249.236 75.8301V97.3145H243.865V59.7168H249.236V67.7734H251.922V70.459H254.607V73.1445H257.293V75.8301H259.979V78.5156H262.664V81.2012H265.35V59.7168H270.721V97.3145H265.35V89.2578H262.664V86.5723H259.979V83.8867H257.293V81.2012H254.607V78.5156H251.922V75.8301H249.236Z" fill="#00ED64"/>
<mask id="mask0_311_9279" style="mask-type:alpha" maskUnits="userSpaceOnUse" x="19" y="8" width="253" height="89">
<path d="M72.9902 30.2012V46.3145H67.6191V8.7168H72.9902V24.8301H75.6758V22.1445H78.3613V19.459H81.0469V16.7734H83.7324V14.0879H86.418V11.4023H89.1035V8.7168H94.4746V14.0879H91.7891V16.7734H89.1035V19.459H86.418V22.1445H83.7324V24.8301H81.0469V30.2012H83.7324V32.8867H86.418V35.5723H89.1035V38.2578H91.7891V40.9434H94.4746V46.3145H89.1035V43.6289H86.418V40.9434H83.7324V38.2578H81.0469V35.5723H78.3613V32.8867H75.6758V30.2012H72.9902ZM126.701 8.7168V14.0879H105.217V24.8301H121.33V30.2012H105.217V40.9434H126.701V46.3145H99.8457V8.7168H126.701ZM134.758 35.5723H132.072V8.7168H137.443V32.8867H140.129V35.5723H142.814V38.2578H148.186V35.5723H150.871V32.8867H153.557V8.7168H158.928V35.5723H156.242V38.2578H153.557V40.9434H150.871V43.6289H148.186V46.3145H142.814V43.6289H140.129V40.9434H137.443V38.2578H134.758V35.5723ZM169.67 46.3145V40.9434H175.041V14.0879H169.67V8.7168H185.783V14.0879H180.412V40.9434H185.783V46.3145H169.67ZM201.896 24.8301V46.3145H196.525V8.7168H201.896V16.7734H204.582V19.459H207.268V22.1445H209.953V24.8301H212.639V27.5156H215.324V30.2012H218.01V8.7168H223.381V46.3145H218.01V38.2578H215.324V35.5723H212.639V32.8867H209.953V30.2012H207.268V27.5156H204.582V24.8301H201.896ZM21.9648 90.9434H19.2793V85.5723H24.6504V88.2578H27.3359V90.9434H32.707V88.2578H35.3926V64.0879H30.0215V58.7168H46.1348V64.0879H40.7637V90.9434H38.0781V93.6289H35.3926V96.3145H24.6504V93.6289H21.9648V90.9434ZM78.3613 58.7168V64.0879H56.877V74.8301H72.9902V80.2012H56.877V90.9434H78.3613V96.3145H51.5059V58.7168H78.3613ZM89.1035 64.0879V74.8301H102.531V72.1445H105.217V66.7734H102.531V64.0879H89.1035ZM91.7891 80.2012H89.1035V96.3145H83.7324V58.7168H105.217V61.4023H107.902V64.0879H110.588V74.8301H107.902V77.5156H105.217V80.2012H99.8457V82.8867H102.531V85.5723H105.217V88.2578H107.902V90.9434H110.588V96.3145H105.217V93.6289H102.531V90.9434H99.8457V88.2578H97.1602V85.5723H94.4746V82.8867H91.7891V80.2012ZM121.33 74.8301V96.3145H115.959V58.7168H121.33V66.7734H124.016V69.459H126.701V72.1445H129.387V74.8301H132.072V77.5156H134.758V80.2012H137.443V58.7168H142.814V96.3145H137.443V88.2578H134.758V85.5723H132.072V82.8867H129.387V80.2012H126.701V77.5156H124.016V74.8301H121.33ZM153.557 96.3145V90.9434H158.928V64.0879H153.557V58.7168H169.67V64.0879H164.299V90.9434H169.67V96.3145H153.557ZM204.582 64.0879H207.268V69.459H201.896V66.7734H199.211V64.0879H188.469V66.7734H185.783V88.2578H188.469V90.9434H199.211V88.2578H201.896V80.2012H193.84V74.8301H207.268V90.9434H204.582V93.6289H201.896V96.3145H185.783V93.6289H183.098V90.9434H180.412V64.0879H183.098V61.4023H185.783V58.7168H201.896V61.4023H204.582V64.0879ZM218.01 80.2012H234.123V72.1445H231.438V69.459H228.752V66.7734H223.381V69.459H220.695V72.1445H218.01V80.2012ZM218.01 96.3145H212.639V69.459H215.324V66.7734H218.01V64.0879H220.695V61.4023H223.381V58.7168H228.752V61.4023H231.438V64.0879H234.123V66.7734H236.809V69.459H239.494V96.3145H234.123V85.5723H218.01V96.3145ZM250.236 74.8301V96.3145H244.865V58.7168H250.236V66.7734H252.922V69.459H255.607V72.1445H258.293V74.8301H260.979V77.5156H263.664V80.2012H266.35V58.7168H271.721V96.3145H266.35V88.2578H263.664V85.5723H260.979V82.8867H258.293V80.2012H255.607V77.5156H252.922V74.8301H250.236Z" fill="#E27152"/>
</mask>
<g mask="url(#mask0_311_9279)">
<mask id="mask1_311_9279" style="mask-type:alpha" maskUnits="userSpaceOnUse" x="33" y="14" width="239" height="82">
<line x1="33" y1="15" x2="272" y2="15" stroke="black" stroke-width="2"/>
<line x1="33" y1="25" x2="272" y2="25" stroke="black" stroke-width="2"/>
<line x1="33" y1="35" x2="272" y2="35" stroke="black" stroke-width="2"/>
<line x1="33" y1="45" x2="272" y2="45" stroke="black" stroke-width="2"/>
<line x1="33" y1="55" x2="272" y2="55" stroke="black" stroke-width="2"/>
<line x1="33" y1="65" x2="272" y2="65" stroke="black" stroke-width="2"/>
<line x1="33" y1="75" x2="272" y2="75" stroke="black" stroke-width="2"/>
<line x1="33" y1="85" x2="272" y2="85" stroke="black" stroke-width="2"/>
<line x1="33" y1="95" x2="272" y2="95" stroke="black" stroke-width="2"/>
</mask>
<g mask="url(#mask1_311_9279)">
<rect x="34.062" y="7" width="237.938" height="94" fill="url(#paint0_linear_311_9279)"/>
</g>
</g>
<defs>
<linearGradient id="paint0_linear_311_9279" x1="153.031" y1="7" x2="153.031" y2="101" gradientUnits="userSpaceOnUse">
<stop stop-color="white"/>
<stop offset="0.419792" stop-color="#B1FF05"/>
<stop offset="1" stop-color="#FDFEFC"/>
</linearGradient>
</defs>
</svg>
