<svg width="291" height="105" viewBox="0 0 291 105" fill="none" xmlns="http://www.w3.org/2000/svg">
<path d="M72.9902 19.0879V29.8301H86.418V27.1445H89.1035V21.7734H86.418V19.0879H72.9902ZM75.6758 35.2012H72.9902V51.3145H67.6191V13.7168H89.1035V16.4023H91.7891V19.0879H94.4746V29.8301H91.7891V32.5156H89.1035V35.2012H83.7324V37.8867H86.418V40.5723H89.1035V43.2578H91.7891V45.9434H94.4746V51.3145H89.1035V48.6289H86.418V45.9434H83.7324V43.2578H81.0469V40.5723H78.3613V37.8867H75.6758V35.2012ZM105.217 35.2012H121.33V27.1445H118.645V24.459H115.959V21.7734H110.588V24.459H107.902V27.1445H105.217V35.2012ZM105.217 51.3145H99.8457V24.459H102.531V21.7734H105.217V19.0879H107.902V16.4023H110.588V13.7168H115.959V16.4023H118.645V19.0879H121.33V21.7734H124.016V24.459H126.701V51.3145H121.33V40.5723H105.217V51.3145ZM150.871 19.0879H140.129V21.7734H137.443V43.2578H140.129V45.9434H150.871V43.2578H153.557V21.7734H150.871V19.0879ZM137.443 16.4023V13.7168H153.557V16.4023H156.242V19.0879H158.928V45.9434H156.242V48.6289H153.557V51.3145H137.443V48.6289H134.758V45.9434H132.072V19.0879H134.758V16.4023H137.443ZM166.984 45.9434H164.299V13.7168H169.67V43.2578H172.355V45.9434H183.098V43.2578H185.783V13.7168H191.154V45.9434H188.469V48.6289H185.783V51.3145H169.67V48.6289H166.984V45.9434ZM223.381 13.7168V19.0879H201.896V29.8301H218.01V35.2012H201.896V51.3145H196.525V13.7168H223.381ZM59.5625 95.9434H70.3047V93.2578H72.9902V90.5723H78.3613V95.9434H75.6758V98.6289H72.9902V101.314H56.877V98.6289H54.1914V95.9434H51.5059V69.0879H54.1914V66.4023H56.877V63.7168H72.9902V66.4023H75.6758V69.0879H78.3613V74.459H72.9902V71.7734H70.3047V69.0879H59.5625V71.7734H56.877V93.2578H59.5625V95.9434ZM89.1035 85.2012V101.314H83.7324V63.7168H89.1035V79.8301H105.217V63.7168H110.588V101.314H105.217V85.2012H89.1035ZM142.814 63.7168V69.0879H121.33V79.8301H137.443V85.2012H121.33V95.9434H142.814V101.314H115.959V63.7168H142.814ZM153.557 79.8301H166.984V77.1445H169.67V71.7734H166.984V69.0879H153.557V79.8301ZM148.186 101.314V63.7168H169.67V66.4023H172.355V69.0879H175.041V79.8301H172.355V85.2012H175.041V95.9434H172.355V98.6289H169.67V101.314H148.186ZM153.557 95.9434H166.984V93.2578H169.67V87.8867H166.984V85.2012H153.557V95.9434ZM185.783 69.0879V79.8301H199.211V77.1445H201.896V71.7734H199.211V69.0879H185.783ZM188.469 85.2012H185.783V101.314H180.412V63.7168H201.896V66.4023H204.582V69.0879H207.268V79.8301H204.582V82.5156H201.896V85.2012H196.525V87.8867H199.211V90.5723H201.896V93.2578H204.582V95.9434H207.268V101.314H201.896V98.6289H199.211V95.9434H196.525V93.2578H193.84V90.5723H191.154V87.8867H188.469V85.2012ZM218.01 101.314V95.9434H223.381V69.0879H218.01V63.7168H234.123V69.0879H228.752V95.9434H234.123V101.314H218.01Z" fill="black"/>
<path d="M71.9902 15.0879V25.8301H85.418V23.1445H88.1035V17.7734H85.418V15.0879H71.9902ZM74.6758 31.2012H71.9902V47.3145H66.6191V9.7168H88.1035V12.4023H90.7891V15.0879H93.4746V25.8301H90.7891V28.5156H88.1035V31.2012H82.7324V33.8867H85.418V36.5723H88.1035V39.2578H90.7891V41.9434H93.4746V47.3145H88.1035V44.6289H85.418V41.9434H82.7324V39.2578H80.0469V36.5723H77.3613V33.8867H74.6758V31.2012ZM104.217 31.2012H120.33V23.1445H117.645V20.459H114.959V17.7734H109.588V20.459H106.902V23.1445H104.217V31.2012ZM104.217 47.3145H98.8457V20.459H101.531V17.7734H104.217V15.0879H106.902V12.4023H109.588V9.7168H114.959V12.4023H117.645V15.0879H120.33V17.7734H123.016V20.459H125.701V47.3145H120.33V36.5723H104.217V47.3145ZM149.871 15.0879H139.129V17.7734H136.443V39.2578H139.129V41.9434H149.871V39.2578H152.557V17.7734H149.871V15.0879ZM136.443 12.4023V9.7168H152.557V12.4023H155.242V15.0879H157.928V41.9434H155.242V44.6289H152.557V47.3145H136.443V44.6289H133.758V41.9434H131.072V15.0879H133.758V12.4023H136.443ZM165.984 41.9434H163.299V9.7168H168.67V39.2578H171.355V41.9434H182.098V39.2578H184.783V9.7168H190.154V41.9434H187.469V44.6289H184.783V47.3145H168.67V44.6289H165.984V41.9434ZM222.381 9.7168V15.0879H200.896V25.8301H217.01V31.2012H200.896V47.3145H195.525V9.7168H222.381ZM58.5625 91.9434H69.3047V89.2578H71.9902V86.5723H77.3613V91.9434H74.6758V94.6289H71.9902V97.3145H55.877V94.6289H53.1914V91.9434H50.5059V65.0879H53.1914V62.4023H55.877V59.7168H71.9902V62.4023H74.6758V65.0879H77.3613V70.459H71.9902V67.7734H69.3047V65.0879H58.5625V67.7734H55.877V89.2578H58.5625V91.9434ZM88.1035 81.2012V97.3145H82.7324V59.7168H88.1035V75.8301H104.217V59.7168H109.588V97.3145H104.217V81.2012H88.1035ZM141.814 59.7168V65.0879H120.33V75.8301H136.443V81.2012H120.33V91.9434H141.814V97.3145H114.959V59.7168H141.814ZM152.557 75.8301H165.984V73.1445H168.67V67.7734H165.984V65.0879H152.557V75.8301ZM147.186 97.3145V59.7168H168.67V62.4023H171.355V65.0879H174.041V75.8301H171.355V81.2012H174.041V91.9434H171.355V94.6289H168.67V97.3145H147.186ZM152.557 91.9434H165.984V89.2578H168.67V83.8867H165.984V81.2012H152.557V91.9434ZM184.783 65.0879V75.8301H198.211V73.1445H200.896V67.7734H198.211V65.0879H184.783ZM187.469 81.2012H184.783V97.3145H179.412V59.7168H200.896V62.4023H203.582V65.0879H206.268V75.8301H203.582V78.5156H200.896V81.2012H195.525V83.8867H198.211V86.5723H200.896V89.2578H203.582V91.9434H206.268V97.3145H200.896V94.6289H198.211V91.9434H195.525V89.2578H192.84V86.5723H190.154V83.8867H187.469V81.2012ZM217.01 97.3145V91.9434H222.381V65.0879H217.01V59.7168H233.123V65.0879H227.752V91.9434H233.123V97.3145H217.01Z" fill="#B9FFB3"/>
<mask id="mask0_311_9516" style="mask-type:alpha" maskUnits="userSpaceOnUse" x="51" y="8" width="184" height="89">
<path d="M72.9902 14.0879V24.8301H86.418V22.1445H89.1035V16.7734H86.418V14.0879H72.9902ZM75.6758 30.2012H72.9902V46.3145H67.6191V8.7168H89.1035V11.4023H91.7891V14.0879H94.4746V24.8301H91.7891V27.5156H89.1035V30.2012H83.7324V32.8867H86.418V35.5723H89.1035V38.2578H91.7891V40.9434H94.4746V46.3145H89.1035V43.6289H86.418V40.9434H83.7324V38.2578H81.0469V35.5723H78.3613V32.8867H75.6758V30.2012ZM105.217 30.2012H121.33V22.1445H118.645V19.459H115.959V16.7734H110.588V19.459H107.902V22.1445H105.217V30.2012ZM105.217 46.3145H99.8457V19.459H102.531V16.7734H105.217V14.0879H107.902V11.4023H110.588V8.7168H115.959V11.4023H118.645V14.0879H121.33V16.7734H124.016V19.459H126.701V46.3145H121.33V35.5723H105.217V46.3145ZM150.871 14.0879H140.129V16.7734H137.443V38.2578H140.129V40.9434H150.871V38.2578H153.557V16.7734H150.871V14.0879ZM137.443 11.4023V8.7168H153.557V11.4023H156.242V14.0879H158.928V40.9434H156.242V43.6289H153.557V46.3145H137.443V43.6289H134.758V40.9434H132.072V14.0879H134.758V11.4023H137.443ZM166.984 40.9434H164.299V8.7168H169.67V38.2578H172.355V40.9434H183.098V38.2578H185.783V8.7168H191.154V40.9434H188.469V43.6289H185.783V46.3145H169.67V43.6289H166.984V40.9434ZM223.381 8.7168V14.0879H201.896V24.8301H218.01V30.2012H201.896V46.3145H196.525V8.7168H223.381ZM59.5625 90.9434H70.3047V88.2578H72.9902V85.5723H78.3613V90.9434H75.6758V93.6289H72.9902V96.3145H56.877V93.6289H54.1914V90.9434H51.5059V64.0879H54.1914V61.4023H56.877V58.7168H72.9902V61.4023H75.6758V64.0879H78.3613V69.459H72.9902V66.7734H70.3047V64.0879H59.5625V66.7734H56.877V88.2578H59.5625V90.9434ZM89.1035 80.2012V96.3145H83.7324V58.7168H89.1035V74.8301H105.217V58.7168H110.588V96.3145H105.217V80.2012H89.1035ZM142.814 58.7168V64.0879H121.33V74.8301H137.443V80.2012H121.33V90.9434H142.814V96.3145H115.959V58.7168H142.814ZM153.557 74.8301H166.984V72.1445H169.67V66.7734H166.984V64.0879H153.557V74.8301ZM148.186 96.3145V58.7168H169.67V61.4023H172.355V64.0879H175.041V74.8301H172.355V80.2012H175.041V90.9434H172.355V93.6289H169.67V96.3145H148.186ZM153.557 90.9434H166.984V88.2578H169.67V82.8867H166.984V80.2012H153.557V90.9434ZM185.783 64.0879V74.8301H199.211V72.1445H201.896V66.7734H199.211V64.0879H185.783ZM188.469 80.2012H185.783V96.3145H180.412V58.7168H201.896V61.4023H204.582V64.0879H207.268V74.8301H204.582V77.5156H201.896V80.2012H196.525V82.8867H199.211V85.5723H201.896V88.2578H204.582V90.9434H207.268V96.3145H201.896V93.6289H199.211V90.9434H196.525V88.2578H193.84V85.5723H191.154V82.8867H188.469V80.2012ZM218.01 96.3145V90.9434H223.381V64.0879H218.01V58.7168H234.123V64.0879H228.752V90.9434H234.123V96.3145H218.01Z" fill="#E27152"/>
</mask>
<g mask="url(#mask0_311_9516)">
<mask id="mask1_311_9516" style="mask-type:alpha" maskUnits="userSpaceOnUse" x="33" y="14" width="225" height="82">
<line x1="33" y1="15" x2="258" y2="15" stroke="black" stroke-width="2"/>
<line x1="33" y1="25" x2="258" y2="25" stroke="black" stroke-width="2"/>
<line x1="33" y1="35" x2="258" y2="35" stroke="black" stroke-width="2"/>
<line x1="33" y1="45" x2="258" y2="45" stroke="black" stroke-width="2"/>
<line x1="33" y1="55" x2="258" y2="55" stroke="black" stroke-width="2"/>
<line x1="33" y1="65" x2="258" y2="65" stroke="black" stroke-width="2"/>
<line x1="33" y1="75" x2="258" y2="75" stroke="black" stroke-width="2"/>
<line x1="33" y1="85" x2="258" y2="85" stroke="black" stroke-width="2"/>
<line x1="33" y1="95" x2="258" y2="95" stroke="black" stroke-width="2"/>
</mask>
<g mask="url(#mask1_311_9516)">
<rect x="34" y="7" width="224" height="94" fill="url(#paint0_linear_311_9516)"/>
</g>
</g>
<defs>
<linearGradient id="paint0_linear_311_9516" x1="146" y1="7" x2="146" y2="101" gradientUnits="userSpaceOnUse">
<stop stop-color="white"/>
<stop offset="0.419792" stop-color="#F1FE34"/>
<stop offset="1" stop-color="#DFF9BA"/>
</linearGradient>
</defs>
</svg>
