<svg width="494" height="68" viewBox="0 0 494 68" fill="none" xmlns="http://www.w3.org/2000/svg">
<path d="M11.2539 22.5664V36.2383H28.3438V32.8203H31.7617V25.9844H28.3438V22.5664H11.2539ZM14.6719 43.0742H11.2539V63.582H4.41797V15.7305H31.7617V19.1484H35.1797V22.5664H38.5977V36.2383H35.1797V39.6562H31.7617V43.0742H24.9258V46.4922H28.3438V49.9102H31.7617V53.3281H35.1797V56.7461H38.5977V63.582H31.7617V60.1641H28.3438V56.7461H24.9258V53.3281H21.5078V49.9102H18.0898V46.4922H14.6719V43.0742ZM52.2695 43.0742H72.7773V32.8203H69.3594V29.4023H65.9414V25.9844H59.1055V29.4023H55.6875V32.8203H52.2695V43.0742ZM52.2695 63.582H45.4336V29.4023H48.8516V25.9844H52.2695V22.5664H55.6875V19.1484H59.1055V15.7305H65.9414V19.1484H69.3594V22.5664H72.7773V25.9844H76.1953V29.4023H79.6133V63.582H72.7773V49.9102H52.2695V63.582ZM110.375 22.5664H96.7031V25.9844H93.2852V53.3281H96.7031V56.7461H110.375V53.3281H113.793V25.9844H110.375V22.5664ZM93.2852 19.1484V15.7305H113.793V19.1484H117.211V22.5664H120.629V56.7461H117.211V60.1641H113.793V63.582H93.2852V60.1641H89.8672V56.7461H86.4492V22.5664H89.8672V19.1484H93.2852ZM130.883 56.7461H127.465V15.7305H134.301V53.3281H137.719V56.7461H151.391V53.3281H154.809V15.7305H161.645V56.7461H158.227V60.1641H154.809V63.582H134.301V60.1641H130.883V56.7461ZM202.66 15.7305V22.5664H175.316V36.2383H195.824V43.0742H175.316V63.582H168.48V15.7305H202.66ZM260.766 56.7461H274.438V53.3281H277.855V49.9102H284.691V56.7461H281.273V60.1641H277.855V63.582H257.348V60.1641H253.93V56.7461H250.512V22.5664H253.93V19.1484H257.348V15.7305H277.855V19.1484H281.273V22.5664H284.691V29.4023H277.855V25.9844H274.438V22.5664H260.766V25.9844H257.348V53.3281H260.766V56.7461ZM298.363 43.0742V63.582H291.527V15.7305H298.363V36.2383H318.871V15.7305H325.707V63.582H318.871V43.0742H298.363ZM366.723 15.7305V22.5664H339.379V36.2383H359.887V43.0742H339.379V56.7461H366.723V63.582H332.543V15.7305H366.723ZM380.395 36.2383H397.484V32.8203H400.902V25.9844H397.484V22.5664H380.395V36.2383ZM373.559 63.582V15.7305H400.902V19.1484H404.32V22.5664H407.738V36.2383H404.32V43.0742H407.738V56.7461H404.32V60.1641H400.902V63.582H373.559ZM380.395 56.7461H397.484V53.3281H400.902V46.4922H397.484V43.0742H380.395V56.7461ZM421.41 22.5664V36.2383H438.5V32.8203H441.918V25.9844H438.5V22.5664H421.41ZM424.828 43.0742H421.41V63.582H414.574V15.7305H441.918V19.1484H445.336V22.5664H448.754V36.2383H445.336V39.6562H441.918V43.0742H435.082V46.4922H438.5V49.9102H441.918V53.3281H445.336V56.7461H448.754V63.582H441.918V60.1641H438.5V56.7461H435.082V53.3281H431.664V49.9102H428.246V46.4922H424.828V43.0742ZM462.426 63.582V56.7461H469.262V22.5664H462.426V15.7305H482.934V22.5664H476.098V56.7461H482.934V63.582H462.426Z" fill="black"/>
<path d="M10.2539 18.5664V32.2383H27.3438V28.8203H30.7617V21.9844H27.3438V18.5664H10.2539ZM13.6719 39.0742H10.2539V59.582H3.41797V11.7305H30.7617V15.1484H34.1797V18.5664H37.5977V32.2383H34.1797V35.6562H30.7617V39.0742H23.9258V42.4922H27.3438V45.9102H30.7617V49.3281H34.1797V52.7461H37.5977V59.582H30.7617V56.1641H27.3438V52.7461H23.9258V49.3281H20.5078V45.9102H17.0898V42.4922H13.6719V39.0742ZM51.2695 39.0742H71.7773V28.8203H68.3594V25.4023H64.9414V21.9844H58.1055V25.4023H54.6875V28.8203H51.2695V39.0742ZM51.2695 59.582H44.4336V25.4023H47.8516V21.9844H51.2695V18.5664H54.6875V15.1484H58.1055V11.7305H64.9414V15.1484H68.3594V18.5664H71.7773V21.9844H75.1953V25.4023H78.6133V59.582H71.7773V45.9102H51.2695V59.582ZM109.375 18.5664H95.7031V21.9844H92.2852V49.3281H95.7031V52.7461H109.375V49.3281H112.793V21.9844H109.375V18.5664ZM92.2852 15.1484V11.7305H112.793V15.1484H116.211V18.5664H119.629V52.7461H116.211V56.1641H112.793V59.582H92.2852V56.1641H88.8672V52.7461H85.4492V18.5664H88.8672V15.1484H92.2852ZM129.883 52.7461H126.465V11.7305H133.301V49.3281H136.719V52.7461H150.391V49.3281H153.809V11.7305H160.645V52.7461H157.227V56.1641H153.809V59.582H133.301V56.1641H129.883V52.7461ZM201.66 11.7305V18.5664H174.316V32.2383H194.824V39.0742H174.316V59.582H167.48V11.7305H201.66ZM259.766 52.7461H273.438V49.3281H276.855V45.9102H283.691V52.7461H280.273V56.1641H276.855V59.582H256.348V56.1641H252.93V52.7461H249.512V18.5664H252.93V15.1484H256.348V11.7305H276.855V15.1484H280.273V18.5664H283.691V25.4023H276.855V21.9844H273.438V18.5664H259.766V21.9844H256.348V49.3281H259.766V52.7461ZM297.363 39.0742V59.582H290.527V11.7305H297.363V32.2383H317.871V11.7305H324.707V59.582H317.871V39.0742H297.363ZM365.723 11.7305V18.5664H338.379V32.2383H358.887V39.0742H338.379V52.7461H365.723V59.582H331.543V11.7305H365.723ZM379.395 32.2383H396.484V28.8203H399.902V21.9844H396.484V18.5664H379.395V32.2383ZM372.559 59.582V11.7305H399.902V15.1484H403.32V18.5664H406.738V32.2383H403.32V39.0742H406.738V52.7461H403.32V56.1641H399.902V59.582H372.559ZM379.395 52.7461H396.484V49.3281H399.902V42.4922H396.484V39.0742H379.395V52.7461ZM420.41 18.5664V32.2383H437.5V28.8203H440.918V21.9844H437.5V18.5664H420.41ZM423.828 39.0742H420.41V59.582H413.574V11.7305H440.918V15.1484H444.336V18.5664H447.754V32.2383H444.336V35.6562H440.918V39.0742H434.082V42.4922H437.5V45.9102H440.918V49.3281H444.336V52.7461H447.754V59.582H440.918V56.1641H437.5V52.7461H434.082V49.3281H430.664V45.9102H427.246V42.4922H423.828V39.0742ZM461.426 59.582V52.7461H468.262V18.5664H461.426V11.7305H481.934V18.5664H475.098V52.7461H481.934V59.582H461.426Z" fill="#B9FFB3"/>
<mask id="mask0_310_112" style="mask-type:alpha" maskUnits="userSpaceOnUse" x="3" y="11" width="479" height="49">
<path d="M10.2539 18.5664V32.2383H27.3438V28.8203H30.7617V21.9844H27.3438V18.5664H10.2539ZM13.6719 39.0742H10.2539V59.582H3.41797V11.7305H30.7617V15.1484H34.1797V18.5664H37.5977V32.2383H34.1797V35.6562H30.7617V39.0742H23.9258V42.4922H27.3438V45.9102H30.7617V49.3281H34.1797V52.7461H37.5977V59.582H30.7617V56.1641H27.3438V52.7461H23.9258V49.3281H20.5078V45.9102H17.0898V42.4922H13.6719V39.0742ZM51.2695 39.0742H71.7773V28.8203H68.3594V25.4023H64.9414V21.9844H58.1055V25.4023H54.6875V28.8203H51.2695V39.0742ZM51.2695 59.582H44.4336V25.4023H47.8516V21.9844H51.2695V18.5664H54.6875V15.1484H58.1055V11.7305H64.9414V15.1484H68.3594V18.5664H71.7773V21.9844H75.1953V25.4023H78.6133V59.582H71.7773V45.9102H51.2695V59.582ZM109.375 18.5664H95.7031V21.9844H92.2852V49.3281H95.7031V52.7461H109.375V49.3281H112.793V21.9844H109.375V18.5664ZM92.2852 15.1484V11.7305H112.793V15.1484H116.211V18.5664H119.629V52.7461H116.211V56.1641H112.793V59.582H92.2852V56.1641H88.8672V52.7461H85.4492V18.5664H88.8672V15.1484H92.2852ZM129.883 52.7461H126.465V11.7305H133.301V49.3281H136.719V52.7461H150.391V49.3281H153.809V11.7305H160.645V52.7461H157.227V56.1641H153.809V59.582H133.301V56.1641H129.883V52.7461ZM201.66 11.7305V18.5664H174.316V32.2383H194.824V39.0742H174.316V59.582H167.48V11.7305H201.66ZM259.766 52.7461H273.438V49.3281H276.855V45.9102H283.691V52.7461H280.273V56.1641H276.855V59.582H256.348V56.1641H252.93V52.7461H249.512V18.5664H252.93V15.1484H256.348V11.7305H276.855V15.1484H280.273V18.5664H283.691V25.4023H276.855V21.9844H273.438V18.5664H259.766V21.9844H256.348V49.3281H259.766V52.7461ZM297.363 39.0742V59.582H290.527V11.7305H297.363V32.2383H317.871V11.7305H324.707V59.582H317.871V39.0742H297.363ZM365.723 11.7305V18.5664H338.379V32.2383H358.887V39.0742H338.379V52.7461H365.723V59.582H331.543V11.7305H365.723ZM379.395 32.2383H396.484V28.8203H399.902V21.9844H396.484V18.5664H379.395V32.2383ZM372.559 59.582V11.7305H399.902V15.1484H403.32V18.5664H406.738V32.2383H403.32V39.0742H406.738V52.7461H403.32V56.1641H399.902V59.582H372.559ZM379.395 52.7461H396.484V49.3281H399.902V42.4922H396.484V39.0742H379.395V52.7461ZM420.41 18.5664V32.2383H437.5V28.8203H440.918V21.9844H437.5V18.5664H420.41ZM423.828 39.0742H420.41V59.582H413.574V11.7305H440.918V15.1484H444.336V18.5664H447.754V32.2383H444.336V35.6562H440.918V39.0742H434.082V42.4922H437.5V45.9102H440.918V49.3281H444.336V52.7461H447.754V59.582H440.918V56.1641H437.5V52.7461H434.082V49.3281H430.664V45.9102H427.246V42.4922H423.828V39.0742ZM461.426 59.582V52.7461H468.262V18.5664H461.426V11.7305H481.934V18.5664H475.098V52.7461H481.934V59.582H461.426Z" fill="#E27152"/>
</mask>
<g mask="url(#mask0_310_112)">
<mask id="mask1_310_112" style="mask-type:alpha" maskUnits="userSpaceOnUse" x="-26" y="13" width="556" height="42">
<line x1="-26" y1="14" x2="530" y2="14" stroke="black" stroke-width="2"/>
<line x1="-26" y1="24" x2="530" y2="24" stroke="black" stroke-width="2"/>
<line x1="-26" y1="34" x2="530" y2="34" stroke="black" stroke-width="2"/>
<line x1="-26" y1="44" x2="530" y2="44" stroke="black" stroke-width="2"/>
<line x1="-26" y1="54" x2="530" y2="54" stroke="black" stroke-width="2"/>
</mask>
<g mask="url(#mask1_310_112)">
<rect x="2" y="6" width="527" height="61" fill="url(#paint0_linear_310_112)"/>
</g>
</g>
<defs>
<linearGradient id="paint0_linear_310_112" x1="265.5" y1="6" x2="265.5" y2="67" gradientUnits="userSpaceOnUse">
<stop stop-color="white"/>
<stop offset="0.419792" stop-color="#F1FE34"/>
<stop offset="1" stop-color="#DFF9BA"/>
</linearGradient>
</defs>
</svg>
