<svg width="291" height="105" viewBox="0 0 291 105" fill="none" xmlns="http://www.w3.org/2000/svg">
<path d="M89.1035 19.0879V29.8301H102.531V27.1445H105.217V21.7734H102.531V19.0879H89.1035ZM91.7891 35.2012H89.1035V51.3145H83.7324V13.7168H105.217V16.4023H107.902V19.0879H110.588V29.8301H107.902V32.5156H105.217V35.2012H99.8457V37.8867H102.531V40.5723H105.217V43.2578H107.902V45.9434H110.588V51.3145H105.217V48.6289H102.531V45.9434H99.8457V43.2578H97.1602V40.5723H94.4746V37.8867H91.7891V35.2012ZM132.072 51.3145H126.701V37.8867H124.016V35.2012H121.33V32.5156H118.645V29.8301H115.959V13.7168H121.33V27.1445H124.016V29.8301H126.701V32.5156H132.072V29.8301H134.758V27.1445H137.443V13.7168H142.814V29.8301H140.129V32.5156H137.443V35.2012H134.758V37.8867H132.072V51.3145ZM153.557 35.2012H169.67V27.1445H166.984V24.459H164.299V21.7734H158.928V24.459H156.242V27.1445H153.557V35.2012ZM153.557 51.3145H148.186V24.459H150.871V21.7734H153.557V19.0879H156.242V16.4023H158.928V13.7168H164.299V16.4023H166.984V19.0879H169.67V21.7734H172.355V24.459H175.041V51.3145H169.67V40.5723H153.557V51.3145ZM185.783 29.8301V51.3145H180.412V13.7168H185.783V21.7734H188.469V24.459H191.154V27.1445H193.84V29.8301H196.525V32.5156H199.211V35.2012H201.896V13.7168H207.268V51.3145H201.896V43.2578H199.211V40.5723H196.525V37.8867H193.84V35.2012H191.154V32.5156H188.469V29.8301H185.783ZM27.3359 95.9434H38.0781V93.2578H40.7637V90.5723H46.1348V95.9434H43.4492V98.6289H40.7637V101.314H24.6504V98.6289H21.9648V95.9434H19.2793V69.0879H21.9648V66.4023H24.6504V63.7168H40.7637V66.4023H43.4492V69.0879H46.1348V74.459H40.7637V71.7734H38.0781V69.0879H27.3359V71.7734H24.6504V93.2578H27.3359V95.9434ZM56.877 85.2012H72.9902V77.1445H70.3047V74.459H67.6191V71.7734H62.248V74.459H59.5625V77.1445H56.877V85.2012ZM56.877 101.314H51.5059V74.459H54.1914V71.7734H56.877V69.0879H59.5625V66.4023H62.248V63.7168H67.6191V66.4023H70.3047V69.0879H72.9902V71.7734H75.6758V74.459H78.3613V101.314H72.9902V90.5723H56.877V101.314ZM89.1035 69.0879V79.8301H102.531V77.1445H105.217V71.7734H102.531V69.0879H89.1035ZM91.7891 85.2012H89.1035V101.314H83.7324V63.7168H105.217V66.4023H107.902V69.0879H110.588V79.8301H107.902V82.5156H105.217V85.2012H99.8457V87.8867H102.531V90.5723H105.217V93.2578H107.902V95.9434H110.588V101.314H105.217V98.6289H102.531V95.9434H99.8457V93.2578H97.1602V90.5723H94.4746V87.8867H91.7891V85.2012ZM121.33 79.8301V101.314H115.959V63.7168H121.33V71.7734H124.016V74.459H126.701V77.1445H129.387V79.8301H132.072V82.5156H134.758V85.2012H137.443V63.7168H142.814V101.314H137.443V93.2578H134.758V90.5723H132.072V87.8867H129.387V85.2012H126.701V82.5156H124.016V79.8301H121.33ZM153.557 101.314V95.9434H158.928V69.0879H153.557V63.7168H169.67V69.0879H164.299V95.9434H169.67V101.314H153.557ZM185.783 85.2012H201.896V77.1445H199.211V74.459H196.525V71.7734H191.154V74.459H188.469V77.1445H185.783V85.2012ZM185.783 101.314H180.412V74.459H183.098V71.7734H185.783V69.0879H188.469V66.4023H191.154V63.7168H196.525V66.4023H199.211V69.0879H201.896V71.7734H204.582V74.459H207.268V101.314H201.896V90.5723H185.783V101.314ZM223.381 69.0879H212.639V63.7168H239.494V69.0879H228.752V101.314H223.381V69.0879ZM263.664 69.0879H252.922V71.7734H250.236V93.2578H252.922V95.9434H263.664V93.2578H266.35V71.7734H263.664V69.0879ZM250.236 66.4023V63.7168H266.35V66.4023H269.035V69.0879H271.721V95.9434H269.035V98.6289H266.35V101.314H250.236V98.6289H247.551V95.9434H244.865V69.0879H247.551V66.4023H250.236Z" fill="black"/>
<path d="M88.1035 15.0879V25.8301H101.531V23.1445H104.217V17.7734H101.531V15.0879H88.1035ZM90.7891 31.2012H88.1035V47.3145H82.7324V9.7168H104.217V12.4023H106.902V15.0879H109.588V25.8301H106.902V28.5156H104.217V31.2012H98.8457V33.8867H101.531V36.5723H104.217V39.2578H106.902V41.9434H109.588V47.3145H104.217V44.6289H101.531V41.9434H98.8457V39.2578H96.1602V36.5723H93.4746V33.8867H90.7891V31.2012ZM131.072 47.3145H125.701V33.8867H123.016V31.2012H120.33V28.5156H117.645V25.8301H114.959V9.7168H120.33V23.1445H123.016V25.8301H125.701V28.5156H131.072V25.8301H133.758V23.1445H136.443V9.7168H141.814V25.8301H139.129V28.5156H136.443V31.2012H133.758V33.8867H131.072V47.3145ZM152.557 31.2012H168.67V23.1445H165.984V20.459H163.299V17.7734H157.928V20.459H155.242V23.1445H152.557V31.2012ZM152.557 47.3145H147.186V20.459H149.871V17.7734H152.557V15.0879H155.242V12.4023H157.928V9.7168H163.299V12.4023H165.984V15.0879H168.67V17.7734H171.355V20.459H174.041V47.3145H168.67V36.5723H152.557V47.3145ZM184.783 25.8301V47.3145H179.412V9.7168H184.783V17.7734H187.469V20.459H190.154V23.1445H192.84V25.8301H195.525V28.5156H198.211V31.2012H200.896V9.7168H206.268V47.3145H200.896V39.2578H198.211V36.5723H195.525V33.8867H192.84V31.2012H190.154V28.5156H187.469V25.8301H184.783ZM26.3359 91.9434H37.0781V89.2578H39.7637V86.5723H45.1348V91.9434H42.4492V94.6289H39.7637V97.3145H23.6504V94.6289H20.9648V91.9434H18.2793V65.0879H20.9648V62.4023H23.6504V59.7168H39.7637V62.4023H42.4492V65.0879H45.1348V70.459H39.7637V67.7734H37.0781V65.0879H26.3359V67.7734H23.6504V89.2578H26.3359V91.9434ZM55.877 81.2012H71.9902V73.1445H69.3047V70.459H66.6191V67.7734H61.248V70.459H58.5625V73.1445H55.877V81.2012ZM55.877 97.3145H50.5059V70.459H53.1914V67.7734H55.877V65.0879H58.5625V62.4023H61.248V59.7168H66.6191V62.4023H69.3047V65.0879H71.9902V67.7734H74.6758V70.459H77.3613V97.3145H71.9902V86.5723H55.877V97.3145ZM88.1035 65.0879V75.8301H101.531V73.1445H104.217V67.7734H101.531V65.0879H88.1035ZM90.7891 81.2012H88.1035V97.3145H82.7324V59.7168H104.217V62.4023H106.902V65.0879H109.588V75.8301H106.902V78.5156H104.217V81.2012H98.8457V83.8867H101.531V86.5723H104.217V89.2578H106.902V91.9434H109.588V97.3145H104.217V94.6289H101.531V91.9434H98.8457V89.2578H96.1602V86.5723H93.4746V83.8867H90.7891V81.2012ZM120.33 75.8301V97.3145H114.959V59.7168H120.33V67.7734H123.016V70.459H125.701V73.1445H128.387V75.8301H131.072V78.5156H133.758V81.2012H136.443V59.7168H141.814V97.3145H136.443V89.2578H133.758V86.5723H131.072V83.8867H128.387V81.2012H125.701V78.5156H123.016V75.8301H120.33ZM152.557 97.3145V91.9434H157.928V65.0879H152.557V59.7168H168.67V65.0879H163.299V91.9434H168.67V97.3145H152.557ZM184.783 81.2012H200.896V73.1445H198.211V70.459H195.525V67.7734H190.154V70.459H187.469V73.1445H184.783V81.2012ZM184.783 97.3145H179.412V70.459H182.098V67.7734H184.783V65.0879H187.469V62.4023H190.154V59.7168H195.525V62.4023H198.211V65.0879H200.896V67.7734H203.582V70.459H206.268V97.3145H200.896V86.5723H184.783V97.3145ZM222.381 65.0879H211.639V59.7168H238.494V65.0879H227.752V97.3145H222.381V65.0879ZM262.664 65.0879H251.922V67.7734H249.236V89.2578H251.922V91.9434H262.664V89.2578H265.35V67.7734H262.664V65.0879ZM249.236 62.4023V59.7168H265.35V62.4023H268.035V65.0879H270.721V91.9434H268.035V94.6289H265.35V97.3145H249.236V94.6289H246.551V91.9434H243.865V65.0879H246.551V62.4023H249.236Z" fill="#8ABFE6"/>
<mask id="mask0_311_9054" style="mask-type:alpha" maskUnits="userSpaceOnUse" x="18" y="8" width="253" height="89">
<path d="M88.1035 14.0879V24.8301H101.531V22.1445H104.217V16.7734H101.531V14.0879H88.1035ZM90.7891 30.2012H88.1035V46.3145H82.7324V8.7168H104.217V11.4023H106.902V14.0879H109.588V24.8301H106.902V27.5156H104.217V30.2012H98.8457V32.8867H101.531V35.5723H104.217V38.2578H106.902V40.9434H109.588V46.3145H104.217V43.6289H101.531V40.9434H98.8457V38.2578H96.1602V35.5723H93.4746V32.8867H90.7891V30.2012ZM131.072 46.3145H125.701V32.8867H123.016V30.2012H120.33V27.5156H117.645V24.8301H114.959V8.7168H120.33V22.1445H123.016V24.8301H125.701V27.5156H131.072V24.8301H133.758V22.1445H136.443V8.7168H141.814V24.8301H139.129V27.5156H136.443V30.2012H133.758V32.8867H131.072V46.3145ZM152.557 30.2012H168.67V22.1445H165.984V19.459H163.299V16.7734H157.928V19.459H155.242V22.1445H152.557V30.2012ZM152.557 46.3145H147.186V19.459H149.871V16.7734H152.557V14.0879H155.242V11.4023H157.928V8.7168H163.299V11.4023H165.984V14.0879H168.67V16.7734H171.355V19.459H174.041V46.3145H168.67V35.5723H152.557V46.3145ZM184.783 24.8301V46.3145H179.412V8.7168H184.783V16.7734H187.469V19.459H190.154V22.1445H192.84V24.8301H195.525V27.5156H198.211V30.2012H200.896V8.7168H206.268V46.3145H200.896V38.2578H198.211V35.5723H195.525V32.8867H192.84V30.2012H190.154V27.5156H187.469V24.8301H184.783ZM26.3359 90.9434H37.0781V88.2578H39.7637V85.5723H45.1348V90.9434H42.4492V93.6289H39.7637V96.3145H23.6504V93.6289H20.9648V90.9434H18.2793V64.0879H20.9648V61.4023H23.6504V58.7168H39.7637V61.4023H42.4492V64.0879H45.1348V69.459H39.7637V66.7734H37.0781V64.0879H26.3359V66.7734H23.6504V88.2578H26.3359V90.9434ZM55.877 80.2012H71.9902V72.1445H69.3047V69.459H66.6191V66.7734H61.248V69.459H58.5625V72.1445H55.877V80.2012ZM55.877 96.3145H50.5059V69.459H53.1914V66.7734H55.877V64.0879H58.5625V61.4023H61.248V58.7168H66.6191V61.4023H69.3047V64.0879H71.9902V66.7734H74.6758V69.459H77.3613V96.3145H71.9902V85.5723H55.877V96.3145ZM88.1035 64.0879V74.8301H101.531V72.1445H104.217V66.7734H101.531V64.0879H88.1035ZM90.7891 80.2012H88.1035V96.3145H82.7324V58.7168H104.217V61.4023H106.902V64.0879H109.588V74.8301H106.902V77.5156H104.217V80.2012H98.8457V82.8867H101.531V85.5723H104.217V88.2578H106.902V90.9434H109.588V96.3145H104.217V93.6289H101.531V90.9434H98.8457V88.2578H96.1602V85.5723H93.4746V82.8867H90.7891V80.2012ZM120.33 74.8301V96.3145H114.959V58.7168H120.33V66.7734H123.016V69.459H125.701V72.1445H128.387V74.8301H131.072V77.5156H133.758V80.2012H136.443V58.7168H141.814V96.3145H136.443V88.2578H133.758V85.5723H131.072V82.8867H128.387V80.2012H125.701V77.5156H123.016V74.8301H120.33ZM152.557 96.3145V90.9434H157.928V64.0879H152.557V58.7168H168.67V64.0879H163.299V90.9434H168.67V96.3145H152.557ZM184.783 80.2012H200.896V72.1445H198.211V69.459H195.525V66.7734H190.154V69.459H187.469V72.1445H184.783V80.2012ZM184.783 96.3145H179.412V69.459H182.098V66.7734H184.783V64.0879H187.469V61.4023H190.154V58.7168H195.525V61.4023H198.211V64.0879H200.896V66.7734H203.582V69.459H206.268V96.3145H200.896V85.5723H184.783V96.3145ZM222.381 64.0879H211.639V58.7168H238.494V64.0879H227.752V96.3145H222.381V64.0879ZM262.664 64.0879H251.922V66.7734H249.236V88.2578H251.922V90.9434H262.664V88.2578H265.35V66.7734H262.664V64.0879ZM249.236 61.4023V58.7168H265.35V61.4023H268.035V64.0879H270.721V90.9434H268.035V93.6289H265.35V96.3145H249.236V93.6289H246.551V90.9434H243.865V64.0879H246.551V61.4023H249.236Z" fill="#E27152"/>
</mask>
<g mask="url(#mask0_311_9054)">
<mask id="mask1_311_9054" style="mask-type:alpha" maskUnits="userSpaceOnUse" x="32" y="14" width="225" height="82">
<line x1="32" y1="15" x2="257" y2="15" stroke="black" stroke-width="2"/>
<line x1="32" y1="25" x2="257" y2="25" stroke="black" stroke-width="2"/>
<line x1="32" y1="35" x2="257" y2="35" stroke="black" stroke-width="2"/>
<line x1="32" y1="45" x2="257" y2="45" stroke="black" stroke-width="2"/>
<line x1="32" y1="55" x2="257" y2="55" stroke="black" stroke-width="2"/>
<line x1="32" y1="65" x2="257" y2="65" stroke="black" stroke-width="2"/>
<line x1="32" y1="75" x2="257" y2="75" stroke="black" stroke-width="2"/>
<line x1="32" y1="85" x2="257" y2="85" stroke="black" stroke-width="2"/>
<line x1="32" y1="95" x2="257" y2="95" stroke="black" stroke-width="2"/>
</mask>
<g mask="url(#mask1_311_9054)">
<rect x="33" y="7" width="224" height="94" fill="url(#paint0_linear_311_9054)"/>
</g>
</g>
<defs>
<linearGradient id="paint0_linear_311_9054" x1="145" y1="7" x2="145" y2="101" gradientUnits="userSpaceOnUse">
<stop stop-color="white"/>
<stop offset="0.419792" stop-color="#447294"/>
<stop offset="1" stop-color="#78B4E1"/>
</linearGradient>
</defs>
</svg>
