<svg width="535" height="68" viewBox="0 0 535 68" fill="none" xmlns="http://www.w3.org/2000/svg">
<path d="M11.2539 22.5664V36.2383H28.3438V32.8203H31.7617V25.9844H28.3438V22.5664H11.2539ZM14.6719 43.0742H11.2539V63.582H4.41797V15.7305H31.7617V19.1484H35.1797V22.5664H38.5977V36.2383H35.1797V39.6562H31.7617V43.0742H24.9258V46.4922H28.3438V49.9102H31.7617V53.3281H35.1797V56.7461H38.5977V63.582H31.7617V60.1641H28.3438V56.7461H24.9258V53.3281H21.5078V49.9102H18.0898V46.4922H14.6719V43.0742ZM65.9414 63.582H59.1055V46.4922H55.6875V43.0742H52.2695V39.6562H48.8516V36.2383H45.4336V15.7305H52.2695V32.8203H55.6875V36.2383H59.1055V39.6562H65.9414V36.2383H69.3594V32.8203H72.7773V15.7305H79.6133V36.2383H76.1953V39.6562H72.7773V43.0742H69.3594V46.4922H65.9414V63.582ZM93.2852 43.0742H113.793V32.8203H110.375V29.4023H106.957V25.9844H100.121V29.4023H96.7031V32.8203H93.2852V43.0742ZM93.2852 63.582H86.4492V29.4023H89.8672V25.9844H93.2852V22.5664H96.7031V19.1484H100.121V15.7305H106.957V19.1484H110.375V22.5664H113.793V25.9844H117.211V29.4023H120.629V63.582H113.793V49.9102H93.2852V63.582ZM134.301 36.2383V63.582H127.465V15.7305H134.301V25.9844H137.719V29.4023H141.137V32.8203H144.555V36.2383H147.973V39.6562H151.391V43.0742H154.809V15.7305H161.645V63.582H154.809V53.3281H151.391V49.9102H147.973V46.4922H144.555V43.0742H141.137V39.6562H137.719V36.2383H134.301ZM219.75 56.7461H233.422V53.3281H236.84V49.9102H243.676V56.7461H240.258V60.1641H236.84V63.582H216.332V60.1641H212.914V56.7461H209.496V22.5664H212.914V19.1484H216.332V15.7305H236.84V19.1484H240.258V22.5664H243.676V29.4023H236.84V25.9844H233.422V22.5664H219.75V25.9844H216.332V53.3281H219.75V56.7461ZM257.348 43.0742H277.855V32.8203H274.438V29.4023H271.02V25.9844H264.184V29.4023H260.766V32.8203H257.348V43.0742ZM257.348 63.582H250.512V29.4023H253.93V25.9844H257.348V22.5664H260.766V19.1484H264.184V15.7305H271.02V19.1484H274.438V22.5664H277.855V25.9844H281.273V29.4023H284.691V63.582H277.855V49.9102H257.348V63.582ZM298.363 22.5664V36.2383H315.453V32.8203H318.871V25.9844H315.453V22.5664H298.363ZM301.781 43.0742H298.363V63.582H291.527V15.7305H318.871V19.1484H322.289V22.5664H325.707V36.2383H322.289V39.6562H318.871V43.0742H312.035V46.4922H315.453V49.9102H318.871V53.3281H322.289V56.7461H325.707V63.582H318.871V60.1641H315.453V56.7461H312.035V53.3281H308.617V49.9102H305.199V46.4922H301.781V43.0742ZM339.379 36.2383V63.582H332.543V15.7305H339.379V25.9844H342.797V29.4023H346.215V32.8203H349.633V36.2383H353.051V39.6562H356.469V43.0742H359.887V15.7305H366.723V63.582H359.887V53.3281H356.469V49.9102H353.051V46.4922H349.633V43.0742H346.215V39.6562H342.797V36.2383H339.379ZM380.395 63.582V56.7461H387.23V22.5664H380.395V15.7305H400.902V22.5664H394.066V56.7461H400.902V63.582H380.395ZM421.41 43.0742H441.918V32.8203H438.5V29.4023H435.082V25.9844H428.246V29.4023H424.828V32.8203H421.41V43.0742ZM421.41 63.582H414.574V29.4023H417.992V25.9844H421.41V22.5664H424.828V19.1484H428.246V15.7305H435.082V19.1484H438.5V22.5664H441.918V25.9844H445.336V29.4023H448.754V63.582H441.918V49.9102H421.41V63.582ZM469.262 22.5664H455.59V15.7305H489.77V22.5664H476.098V63.582H469.262V22.5664ZM520.531 22.5664H506.859V25.9844H503.441V53.3281H506.859V56.7461H520.531V53.3281H523.949V25.9844H520.531V22.5664ZM503.441 19.1484V15.7305H523.949V19.1484H527.367V22.5664H530.785V56.7461H527.367V60.1641H523.949V63.582H503.441V60.1641H500.023V56.7461H496.605V22.5664H500.023V19.1484H503.441Z" fill="black"/>
<path d="M10.2539 18.5664V32.2383H27.3438V28.8203H30.7617V21.9844H27.3438V18.5664H10.2539ZM13.6719 39.0742H10.2539V59.582H3.41797V11.7305H30.7617V15.1484H34.1797V18.5664H37.5977V32.2383H34.1797V35.6562H30.7617V39.0742H23.9258V42.4922H27.3438V45.9102H30.7617V49.3281H34.1797V52.7461H37.5977V59.582H30.7617V56.1641H27.3438V52.7461H23.9258V49.3281H20.5078V45.9102H17.0898V42.4922H13.6719V39.0742ZM64.9414 59.582H58.1055V42.4922H54.6875V39.0742H51.2695V35.6562H47.8516V32.2383H44.4336V11.7305H51.2695V28.8203H54.6875V32.2383H58.1055V35.6562H64.9414V32.2383H68.3594V28.8203H71.7773V11.7305H78.6133V32.2383H75.1953V35.6562H71.7773V39.0742H68.3594V42.4922H64.9414V59.582ZM92.2852 39.0742H112.793V28.8203H109.375V25.4023H105.957V21.9844H99.1211V25.4023H95.7031V28.8203H92.2852V39.0742ZM92.2852 59.582H85.4492V25.4023H88.8672V21.9844H92.2852V18.5664H95.7031V15.1484H99.1211V11.7305H105.957V15.1484H109.375V18.5664H112.793V21.9844H116.211V25.4023H119.629V59.582H112.793V45.9102H92.2852V59.582ZM133.301 32.2383V59.582H126.465V11.7305H133.301V21.9844H136.719V25.4023H140.137V28.8203H143.555V32.2383H146.973V35.6562H150.391V39.0742H153.809V11.7305H160.645V59.582H153.809V49.3281H150.391V45.9102H146.973V42.4922H143.555V39.0742H140.137V35.6562H136.719V32.2383H133.301ZM218.75 52.7461H232.422V49.3281H235.84V45.9102H242.676V52.7461H239.258V56.1641H235.84V59.582H215.332V56.1641H211.914V52.7461H208.496V18.5664H211.914V15.1484H215.332V11.7305H235.84V15.1484H239.258V18.5664H242.676V25.4023H235.84V21.9844H232.422V18.5664H218.75V21.9844H215.332V49.3281H218.75V52.7461ZM256.348 39.0742H276.855V28.8203H273.438V25.4023H270.02V21.9844H263.184V25.4023H259.766V28.8203H256.348V39.0742ZM256.348 59.582H249.512V25.4023H252.93V21.9844H256.348V18.5664H259.766V15.1484H263.184V11.7305H270.02V15.1484H273.438V18.5664H276.855V21.9844H280.273V25.4023H283.691V59.582H276.855V45.9102H256.348V59.582ZM297.363 18.5664V32.2383H314.453V28.8203H317.871V21.9844H314.453V18.5664H297.363ZM300.781 39.0742H297.363V59.582H290.527V11.7305H317.871V15.1484H321.289V18.5664H324.707V32.2383H321.289V35.6562H317.871V39.0742H311.035V42.4922H314.453V45.9102H317.871V49.3281H321.289V52.7461H324.707V59.582H317.871V56.1641H314.453V52.7461H311.035V49.3281H307.617V45.9102H304.199V42.4922H300.781V39.0742ZM338.379 32.2383V59.582H331.543V11.7305H338.379V21.9844H341.797V25.4023H345.215V28.8203H348.633V32.2383H352.051V35.6562H355.469V39.0742H358.887V11.7305H365.723V59.582H358.887V49.3281H355.469V45.9102H352.051V42.4922H348.633V39.0742H345.215V35.6562H341.797V32.2383H338.379ZM379.395 59.582V52.7461H386.23V18.5664H379.395V11.7305H399.902V18.5664H393.066V52.7461H399.902V59.582H379.395ZM420.41 39.0742H440.918V28.8203H437.5V25.4023H434.082V21.9844H427.246V25.4023H423.828V28.8203H420.41V39.0742ZM420.41 59.582H413.574V25.4023H416.992V21.9844H420.41V18.5664H423.828V15.1484H427.246V11.7305H434.082V15.1484H437.5V18.5664H440.918V21.9844H444.336V25.4023H447.754V59.582H440.918V45.9102H420.41V59.582ZM468.262 18.5664H454.59V11.7305H488.77V18.5664H475.098V59.582H468.262V18.5664ZM519.531 18.5664H505.859V21.9844H502.441V49.3281H505.859V52.7461H519.531V49.3281H522.949V21.9844H519.531V18.5664ZM502.441 15.1484V11.7305H522.949V15.1484H526.367V18.5664H529.785V52.7461H526.367V56.1641H522.949V59.582H502.441V56.1641H499.023V52.7461H495.605V18.5664H499.023V15.1484H502.441Z" fill="#8ABFE6"/>
<mask id="mask0_286_952" style="mask-type:alpha" maskUnits="userSpaceOnUse" x="3" y="11" width="527" height="49">
<path d="M10.2539 18.5664V32.2383H27.3438V28.8203H30.7617V21.9844H27.3438V18.5664H10.2539ZM13.6719 39.0742H10.2539V59.582H3.41797V11.7305H30.7617V15.1484H34.1797V18.5664H37.5977V32.2383H34.1797V35.6562H30.7617V39.0742H23.9258V42.4922H27.3438V45.9102H30.7617V49.3281H34.1797V52.7461H37.5977V59.582H30.7617V56.1641H27.3438V52.7461H23.9258V49.3281H20.5078V45.9102H17.0898V42.4922H13.6719V39.0742ZM64.9414 59.582H58.1055V42.4922H54.6875V39.0742H51.2695V35.6562H47.8516V32.2383H44.4336V11.7305H51.2695V28.8203H54.6875V32.2383H58.1055V35.6562H64.9414V32.2383H68.3594V28.8203H71.7773V11.7305H78.6133V32.2383H75.1953V35.6562H71.7773V39.0742H68.3594V42.4922H64.9414V59.582ZM92.2852 39.0742H112.793V28.8203H109.375V25.4023H105.957V21.9844H99.1211V25.4023H95.7031V28.8203H92.2852V39.0742ZM92.2852 59.582H85.4492V25.4023H88.8672V21.9844H92.2852V18.5664H95.7031V15.1484H99.1211V11.7305H105.957V15.1484H109.375V18.5664H112.793V21.9844H116.211V25.4023H119.629V59.582H112.793V45.9102H92.2852V59.582ZM133.301 32.2383V59.582H126.465V11.7305H133.301V21.9844H136.719V25.4023H140.137V28.8203H143.555V32.2383H146.973V35.6562H150.391V39.0742H153.809V11.7305H160.645V59.582H153.809V49.3281H150.391V45.9102H146.973V42.4922H143.555V39.0742H140.137V35.6562H136.719V32.2383H133.301ZM218.75 52.7461H232.422V49.3281H235.84V45.9102H242.676V52.7461H239.258V56.1641H235.84V59.582H215.332V56.1641H211.914V52.7461H208.496V18.5664H211.914V15.1484H215.332V11.7305H235.84V15.1484H239.258V18.5664H242.676V25.4023H235.84V21.9844H232.422V18.5664H218.75V21.9844H215.332V49.3281H218.75V52.7461ZM256.348 39.0742H276.855V28.8203H273.438V25.4023H270.02V21.9844H263.184V25.4023H259.766V28.8203H256.348V39.0742ZM256.348 59.582H249.512V25.4023H252.93V21.9844H256.348V18.5664H259.766V15.1484H263.184V11.7305H270.02V15.1484H273.438V18.5664H276.855V21.9844H280.273V25.4023H283.691V59.582H276.855V45.9102H256.348V59.582ZM297.363 18.5664V32.2383H314.453V28.8203H317.871V21.9844H314.453V18.5664H297.363ZM300.781 39.0742H297.363V59.582H290.527V11.7305H317.871V15.1484H321.289V18.5664H324.707V32.2383H321.289V35.6562H317.871V39.0742H311.035V42.4922H314.453V45.9102H317.871V49.3281H321.289V52.7461H324.707V59.582H317.871V56.1641H314.453V52.7461H311.035V49.3281H307.617V45.9102H304.199V42.4922H300.781V39.0742ZM338.379 32.2383V59.582H331.543V11.7305H338.379V21.9844H341.797V25.4023H345.215V28.8203H348.633V32.2383H352.051V35.6562H355.469V39.0742H358.887V11.7305H365.723V59.582H358.887V49.3281H355.469V45.9102H352.051V42.4922H348.633V39.0742H345.215V35.6562H341.797V32.2383H338.379ZM379.395 59.582V52.7461H386.23V18.5664H379.395V11.7305H399.902V18.5664H393.066V52.7461H399.902V59.582H379.395ZM420.41 39.0742H440.918V28.8203H437.5V25.4023H434.082V21.9844H427.246V25.4023H423.828V28.8203H420.41V39.0742ZM420.41 59.582H413.574V25.4023H416.992V21.9844H420.41V18.5664H423.828V15.1484H427.246V11.7305H434.082V15.1484H437.5V18.5664H440.918V21.9844H444.336V25.4023H447.754V59.582H440.918V45.9102H420.41V59.582ZM468.262 18.5664H454.59V11.7305H488.77V18.5664H475.098V59.582H468.262V18.5664ZM519.531 18.5664H505.859V21.9844H502.441V49.3281H505.859V52.7461H519.531V49.3281H522.949V21.9844H519.531V18.5664ZM502.441 15.1484V11.7305H522.949V15.1484H526.367V18.5664H529.785V52.7461H526.367V56.1641H522.949V59.582H502.441V56.1641H499.023V52.7461H495.605V18.5664H499.023V15.1484H502.441Z" fill="#E27152"/>
</mask>
<g mask="url(#mask0_286_952)">
<mask id="mask1_286_952" style="mask-type:alpha" maskUnits="userSpaceOnUse" x="2" y="13" width="529" height="42">
<line x1="2" y1="14" x2="531" y2="14" stroke="black" stroke-width="2"/>
<line x1="2" y1="24" x2="531" y2="24" stroke="black" stroke-width="2"/>
<line x1="2" y1="34" x2="531" y2="34" stroke="black" stroke-width="2"/>
<line x1="2" y1="44" x2="531" y2="44" stroke="black" stroke-width="2"/>
<line x1="2" y1="54" x2="531" y2="54" stroke="black" stroke-width="2"/>
</mask>
<g mask="url(#mask1_286_952)">
<rect x="2" y="6" width="527" height="61" fill="url(#paint0_linear_286_952)"/>
</g>
</g>
<defs>
<linearGradient id="paint0_linear_286_952" x1="265.5" y1="6" x2="265.5" y2="67" gradientUnits="userSpaceOnUse">
<stop stop-color="white"/>
<stop offset="0.419792" stop-color="#447294"/>
<stop offset="1" stop-color="#78B4E1"/>
</linearGradient>
</defs>
</svg>
