<svg width="32" height="32" viewBox="0 0 32 32" fill="none" xmlns="http://www.w3.org/2000/svg">
<rect width="32" height="32" fill="black"/>
<path d="M7.73633 14.3457L8.65039 16.2559L9.52344 14.3457H9.5C9.32422 14.3457 9.18945 14.291 9.0957 14.1816C9.00586 14.0723 8.96094 13.9121 8.96094 13.7012C8.96094 13.4668 9.00781 13.3008 9.10156 13.2031C9.19922 13.1016 9.36328 13.0508 9.59375 13.0508H10.9297C11.1914 13.0508 11.377 13.1016 11.4863 13.2031C11.5957 13.3008 11.6504 13.4668 11.6504 13.7012C11.6504 13.9121 11.5957 14.0723 11.4863 14.1816C11.3809 14.291 11.2266 14.3457 11.0234 14.3457H10.9297L9.35352 17.2754V18.7168H10.1211C10.3867 18.7168 10.5742 18.7676 10.6836 18.8691C10.7969 18.9668 10.8535 19.127 10.8535 19.3496C10.8535 19.5762 10.7949 19.7422 10.6777 19.8477C10.5605 19.9492 10.3711 20 10.1094 20H7.07422C6.8125 20 6.625 19.9492 6.51172 19.8477C6.39844 19.7461 6.3418 19.5801 6.3418 19.3496C6.3418 19.1191 6.39648 18.957 6.50586 18.8633C6.61523 18.7656 6.80469 18.7168 7.07422 18.7168H7.8418V17.4453L6.17773 14.3457H6.07812C5.875 14.3457 5.7207 14.291 5.61523 14.1816C5.50977 14.0723 5.45703 13.9121 5.45703 13.7012C5.45703 13.4668 5.51172 13.3008 5.62109 13.2031C5.73047 13.1016 5.91602 13.0508 6.17773 13.0508H7.71289C7.94336 13.0508 8.10742 13.1016 8.20508 13.2031C8.30664 13.3047 8.35742 13.4707 8.35742 13.7012C8.35742 13.9082 8.31055 14.0684 8.2168 14.1816C8.12695 14.291 7.99414 14.3457 7.81836 14.3457H7.73633ZM14.2109 17.6387C14.3125 18.0723 14.5078 18.3965 14.7969 18.6113C15.0898 18.8262 15.4785 18.9336 15.9629 18.9336C16.4473 18.9336 16.9258 18.8164 17.3984 18.582C17.8711 18.3438 18.1562 18.2246 18.2539 18.2246C18.3984 18.2246 18.5156 18.2793 18.6055 18.3887C18.6992 18.4941 18.7461 18.6309 18.7461 18.7988C18.7461 19.166 18.4746 19.4824 17.9316 19.748C17.3887 20.0137 16.7168 20.1465 15.916 20.1465C14.9707 20.1465 14.2012 19.8809 13.6074 19.3496C13.0176 18.8184 12.7227 18.1348 12.7227 17.2988C12.7227 16.4668 13.0176 15.7852 13.6074 15.2539C14.2012 14.7227 14.9707 14.457 15.916 14.457C16.7598 14.457 17.459 14.707 18.0137 15.207C18.5684 15.7031 18.8457 16.3125 18.8457 17.0352C18.8457 17.2656 18.7891 17.4238 18.6758 17.5098C18.5664 17.5957 18.3379 17.6387 17.9902 17.6387H14.2109ZM17.3691 16.7246C17.3027 16.3613 17.1309 16.0801 16.8535 15.8809C16.5801 15.6816 16.2227 15.582 15.7812 15.582C15.3555 15.582 15.0117 15.6777 14.75 15.8691C14.4922 16.0566 14.3125 16.3418 14.2109 16.7246H17.3691ZM21.4648 19.918C21.3633 19.9961 21.2578 20.0547 21.1484 20.0938C21.043 20.1367 20.9336 20.1582 20.8203 20.1582C20.6523 20.1582 20.5332 20.1133 20.4629 20.0234C20.3965 19.9336 20.3633 19.7656 20.3633 19.5195V18.7402C20.3633 18.4824 20.4062 18.3008 20.4922 18.1953C20.5781 18.0859 20.7266 18.0312 20.9375 18.0312C21.168 18.0312 21.3555 18.1426 21.5 18.3652C21.5859 18.4863 21.6582 18.5762 21.7168 18.6348C21.9082 18.8066 22.1309 18.9355 22.3848 19.0215C22.6387 19.1074 22.9277 19.1504 23.252 19.1504C23.5332 19.1504 23.7578 19.0957 23.9258 18.9863C24.0938 18.877 24.1777 18.7344 24.1777 18.5586C24.1777 18.2422 23.7266 18.0234 22.8242 17.9023C22.625 17.8789 22.4688 17.8574 22.3555 17.8379C21.6758 17.7441 21.1699 17.5605 20.8379 17.2871C20.5059 17.0098 20.3398 16.6387 20.3398 16.1738C20.3398 15.623 20.5391 15.1973 20.9375 14.8965C21.3359 14.5957 21.9043 14.4453 22.6426 14.4453C22.8965 14.4453 23.1562 14.4668 23.4219 14.5098C23.6914 14.5488 23.9668 14.6113 24.248 14.6973C24.3301 14.5996 24.416 14.5273 24.5059 14.4805C24.5996 14.4336 24.7031 14.4102 24.8164 14.4102C24.9766 14.4102 25.0977 14.4609 25.1797 14.5625C25.2656 14.6602 25.3086 14.8086 25.3086 15.0078V15.7285C25.3086 15.8965 25.2656 16.0273 25.1797 16.1211C25.0938 16.2109 24.9727 16.2559 24.8164 16.2559C24.6562 16.2559 24.3809 16.1172 23.9902 15.8398C23.6035 15.5586 23.2148 15.418 22.8242 15.418C22.5195 15.418 22.2832 15.4688 22.1152 15.5703C21.9473 15.668 21.8633 15.8047 21.8633 15.9805C21.8633 16.2539 22.2148 16.4375 22.918 16.5312C23.1211 16.5547 23.2812 16.5742 23.3984 16.5898C24.2812 16.7188 24.8867 16.9121 25.2148 17.1699C25.5469 17.4238 25.7129 17.8027 25.7129 18.3066C25.7129 18.8965 25.4941 19.3535 25.0566 19.6777C24.623 19.998 24.0059 20.1582 23.2051 20.1582C22.8926 20.1582 22.5918 20.1367 22.3027 20.0938C22.0137 20.0547 21.7344 19.9961 21.4648 19.918Z" fill="white"/>
</svg>
