<svg width="25" height="25" viewBox="0 0 25 25" fill="none" xmlns="http://www.w3.org/2000/svg">
<rect width="24.3133" height="24.3133" rx="6.46685" fill="#FCD58D"/>
<path d="M19.0616 8.61396C19.072 8.7668 19.072 8.92031 19.072 9.07451C19.072 13.7829 15.4876 19.2124 8.93412 19.2124V19.2097C6.99801 19.2123 5.1021 18.6576 3.47266 17.612C3.75415 17.6456 4.03734 17.6628 4.32084 17.6634C5.92555 17.665 7.48414 17.1267 8.74586 16.1351C7.22147 16.1065 5.8838 15.1122 5.41704 13.6607C5.95096 13.7636 6.50133 13.7426 7.02589 13.5996C5.36338 13.2638 4.1678 11.8029 4.16735 10.1068C4.16735 10.0915 4.16735 10.0763 4.16735 10.0617C4.66285 10.3379 5.21749 10.4909 5.78455 10.5077C4.21871 9.46204 3.73567 7.3793 4.68137 5.75125C6.49061 7.97719 9.15981 9.33033 12.0247 9.47398C11.7375 8.2366 12.1301 6.93984 13.0554 6.06961C14.4903 4.72021 16.7473 4.7895 18.0967 6.22435C18.8946 6.067 19.6598 5.77451 20.3592 5.35948C20.0932 6.18456 19.5365 6.88496 18.7928 7.33025C19.4991 7.24678 20.1889 7.05781 20.8392 6.76967C20.3609 7.48506 19.7589 8.10958 19.0616 8.61396Z" fill="#0D0D11"/>
</svg>
