<svg width="302" height="45" viewBox="0 0 302 45" fill="none" xmlns="http://www.w3.org/2000/svg">
<g clip-path="url(#clip0_390_6088)">
<path fill-rule="evenodd" clip-rule="evenodd" d="M65.6855 13.6552C62.9539 12.0028 59.7321 11.1767 56.6503 11.1767C46.9846 11.1767 39.6304 18.8878 39.6304 27.7694C39.6304 36.6511 46.9846 44.3622 56.6503 44.3622C59.7321 44.3622 62.9539 43.536 65.6855 41.8837V43.6049H74.4403V0H65.6855V13.6552ZM57.2106 36.238C52.2377 36.1691 48.7357 32.5201 48.7357 27.7694C48.7357 23.0876 52.2377 19.3697 57.2106 19.3009C62.1834 19.3697 65.6855 23.0876 65.6855 27.7694C65.6855 32.5201 62.1834 36.1691 57.2106 36.238ZM26.0551 13.5864C23.3235 12.0028 20.1717 11.1767 17.0199 11.1767C7.35425 11.1767 0 18.8878 0 27.7694C0 36.6511 7.35425 44.3622 17.0199 44.3622C20.1717 44.3622 23.3235 43.536 26.0551 41.9525V43.6049H34.8101V11.934H26.0551V13.5864ZM17.5802 36.238C12.6073 36.1691 9.1053 32.5201 9.1053 27.7694C9.1053 23.0876 12.6073 19.3697 17.5802 19.3009C22.553 19.3697 26.0551 23.0876 26.0551 27.7694C26.0551 32.5201 22.553 36.1691 17.5802 36.238ZM96.2806 11.1767C99.4325 11.1767 102.584 12.0028 105.316 13.5864V11.934H114.071V43.6049H105.316V41.9525C102.584 43.536 99.4325 44.3622 96.2806 44.3622C86.6152 44.3622 79.2607 36.6511 79.2607 27.7694C79.2607 18.8878 86.6152 11.1767 96.2806 11.1767ZM88.3658 27.7694C88.3658 32.5201 91.8681 36.1691 96.8409 36.238C101.814 36.1691 105.316 32.5201 105.316 27.7694C105.316 23.0876 101.814 19.3697 96.8409 19.3009C91.8681 19.3697 88.3658 23.0876 88.3658 27.7694ZM129.538 43.6049V25.6351C129.538 21.7795 131.919 19.0944 135.491 19.0944C139.273 19.0944 141.164 21.8484 141.164 25.2909V43.6049H149.919V25.6351C149.919 21.7795 152.44 19.0944 155.943 19.0944C159.865 19.0944 161.826 21.8484 161.826 25.2909V43.6049H170.581V37.2091C168.311 34.7209 166.93 31.4325 166.93 27.8271C166.93 24.6326 168.014 21.687 169.84 19.3263C168.047 14.5106 163.159 11.1767 156.923 11.1767C151.11 11.1767 148.028 14.1372 146.907 15.583C145.367 13.5175 142.144 11.1767 137.382 11.1767C133.179 11.1767 130.448 12.9667 129.117 14.4814V11.934H120.782V43.6049H129.538ZM193.222 35.4871C194.682 33.2835 195.53 30.6527 195.53 27.8271C195.53 24.9794 194.668 22.3296 193.188 20.1155C195.987 14.8827 201.577 11.1767 208.278 11.1767C211.359 11.1767 214.581 12.0028 217.313 13.6552V0H226.068V43.6049H217.313V41.8837C214.581 43.536 211.359 44.3622 208.278 44.3622C201.604 44.3622 196.032 40.6862 193.222 35.4871ZM200.363 27.7694C200.363 32.5201 203.865 36.1691 208.838 36.238C213.811 36.1691 217.313 32.5201 217.313 27.7694C217.313 23.0876 213.811 19.3697 208.838 19.3009C203.865 19.3697 200.363 23.0876 200.363 27.7694ZM248.538 44.3622C254.772 44.3622 259.955 41.5394 263.037 37.2707L256.103 32.4512C254.632 34.9298 251.76 36.3757 248.538 36.4445C244.476 36.3757 241.184 34.1036 240.203 30.2481H265.278C266.259 19.1632 258.904 11.1767 248.398 11.1767C237.892 11.1767 230.888 18.8878 230.888 27.7694C230.888 36.7199 238.102 44.3622 248.538 44.3622ZM240.413 24.4646C241.394 21.2976 244.265 18.9567 248.398 18.8878C252.531 18.9567 255.472 21.5041 256.383 24.4646H240.413ZM301.645 11.934L287.147 43.9492H280.353L265.925 11.934H275.8L283.715 31.5562L292.19 11.934H301.645Z" fill="white"/>
<path d="M189.506 27.8266C189.506 32.4212 185.718 36.1459 181.044 36.1459C176.369 36.1459 172.58 32.4212 172.58 27.8266C172.58 23.2319 176.369 19.5072 181.044 19.5072C185.718 19.5072 189.506 23.2319 189.506 27.8266Z" fill="#25D0AB"/>
</g>
<defs>
<clipPath id="clip0_390_6088">
<rect width="302" height="45" fill="white"/>
</clipPath>
</defs>
</svg>
