<svg width="329" height="48" viewBox="0 0 329 48" fill="none" xmlns="http://www.w3.org/2000/svg">
<g clip-path="url(#clip0_406_705)">
<path d="M72.262 47.3213L72.8025 45.442C73.444 43.2081 73.2066 41.1465 72.1256 39.6269C71.1153 38.2288 69.4685 37.4082 67.4529 37.312L29.2989 36.8257C29.1791 36.824 29.0616 36.7933 28.9563 36.7362C28.851 36.6791 28.761 36.5973 28.694 36.4977C28.627 36.3982 28.585 36.284 28.5716 36.1647C28.5582 36.0454 28.5737 35.9246 28.6169 35.8126C28.6817 35.6251 28.8001 35.4608 28.9572 35.3401C29.1144 35.2194 29.3035 35.1477 29.5009 35.1338L68.0238 34.6273C72.5701 34.4196 77.5408 30.7016 79.2735 26.163L81.4658 20.4086C81.5281 20.2472 81.5589 20.0752 81.5568 19.9021C81.5541 19.8102 81.544 19.7188 81.5265 19.6286C80.3303 14.2762 77.4227 9.46248 73.2463 5.92026C69.0699 2.37804 63.8535 0.301421 58.3914 0.00659981C52.9293 -0.288222 47.5208 1.21491 42.9893 4.28711C38.4578 7.35932 35.0517 11.8323 33.2895 17.0249C31.4189 15.6307 29.1638 14.8511 26.8337 14.7933C24.5037 14.7355 22.2128 15.4023 20.2757 16.702C18.3386 18.0018 16.8502 19.8709 16.0146 22.0528C15.1791 24.2347 15.0375 26.6224 15.6093 28.8882C13.3393 28.947 11.1077 29.4888 9.06237 30.4777C7.01699 31.4665 5.20448 32.8799 3.74491 34.6241C2.28533 36.3684 1.212 38.4037 0.596015 40.5953C-0.0199746 42.7868 -0.164563 45.0846 0.171825 47.3365C0.196163 47.5142 0.283662 47.6771 0.418234 47.7953C0.552806 47.9135 0.725405 47.979 0.904295 47.9798H71.3679C71.5679 47.9818 71.7632 47.9187 71.9244 47.8C72.0856 47.6812 72.2041 47.5133 72.262 47.3213Z" fill="#F78100"/>
<path d="M84.9766 20.8442C84.6398 20.8442 84.2862 20.8544 83.9157 20.8746C83.8601 20.8762 83.8053 20.8882 83.7541 20.9101C83.6618 20.9408 83.5785 20.9938 83.5115 21.0645C83.4445 21.1352 83.396 21.2213 83.3702 21.3153L81.8547 26.5125C81.2081 28.7463 81.4456 30.8079 82.5316 32.3276C83.0804 33.0466 83.7868 33.6294 84.5962 34.0309C85.4056 34.4323 86.2962 34.6415 87.1992 34.6425L95.3372 35.149C95.451 35.1525 95.5624 35.1828 95.6624 35.2373C95.7624 35.2918 95.8483 35.3692 95.9131 35.4631C95.9818 35.5634 96.0254 35.6788 96.0404 35.7995C96.0553 35.9203 96.0411 36.0429 95.999 36.157C95.9341 36.3446 95.8158 36.5089 95.6586 36.6295C95.5015 36.7502 95.3124 36.8219 95.1149 36.8358L86.6638 37.3423C82.0719 37.5551 77.1265 41.268 75.3938 45.8016L74.7826 47.4023C74.7571 47.4693 74.7476 47.5414 74.7551 47.6127C74.7626 47.6841 74.7868 47.7527 74.8256 47.8129C74.8645 47.8731 74.917 47.9233 74.9789 47.9593C75.0408 47.9953 75.1102 48.0162 75.1817 48.0203H104.294C104.471 48.0245 104.645 47.9682 104.786 47.8605C104.927 47.7528 105.028 47.6002 105.071 47.4276C105.939 44.3177 106.078 41.0486 105.477 37.876C104.876 34.7034 103.551 31.7132 101.606 29.1391C99.6615 26.5651 97.1493 24.477 94.2662 23.038C91.3831 21.599 88.2072 20.8482 84.9867 20.8442H84.9766Z" fill="#FCAD32"/>
<path d="M137.921 30.2205H142.736V43.421H151.156V47.6506H137.921V30.2205Z" fill="white"/>
<path d="M156.147 39.0038V38.9582C156.147 33.9536 160.189 29.8911 165.533 29.8911C170.878 29.8911 174.868 33.9029 174.868 38.9076V38.9582C174.868 43.9629 170.827 48.0203 165.483 48.0203C160.138 48.0203 156.147 43.9933 156.147 39.0038ZM169.953 39.0038V38.9582C169.953 36.4255 168.14 34.2524 165.483 34.2524C162.825 34.2524 161.088 36.3901 161.088 38.9076V38.9582C161.088 41.4909 162.901 43.664 165.533 43.664C168.165 43.664 169.953 41.5213 169.953 39.0038Z" fill="white"/>
<path d="M180.763 40.017V30.2205H185.658V39.9056C185.658 42.4383 186.921 43.6185 188.861 43.6185C190.801 43.6185 192.064 42.4737 192.064 40.0322V30.2205H196.953V39.8802C196.953 45.5079 193.751 47.9849 188.81 47.9849C183.87 47.9849 180.763 45.4522 180.763 40.017Z" fill="white"/>
<path d="M204.329 30.2205H211.032C217.24 30.2205 220.842 33.8068 220.842 38.8317V38.8823C220.842 43.9123 217.19 47.6455 210.936 47.6455H204.329V30.2205ZM211.108 43.3906C213.987 43.3906 215.902 41.795 215.902 38.9786V38.933C215.902 36.1419 213.987 34.521 211.108 34.521H209.133V43.3703L211.108 43.3906Z" fill="white"/>
<path d="M227.843 30.2205H241.745V34.4552H232.663V37.4184H240.881V41.4252H232.663V47.6506H227.843V30.2205Z" fill="white"/>
<path d="M248.454 30.2205H253.268V43.421H261.689V47.6506H248.454V30.2205Z" fill="white"/>
<path d="M274.297 30.0989H278.94L286.32 47.6506H281.157L279.889 44.5404H273.181L271.943 47.6506H266.892L274.297 30.0989ZM278.515 40.7768L276.58 35.8228L274.6 40.7768H278.515Z" fill="white"/>
<path d="M292.523 30.2205H300.742C303.404 30.2205 305.238 30.9195 306.405 32.1149C306.927 32.6466 307.334 33.2813 307.599 33.9788C307.865 34.6764 307.982 35.4216 307.945 36.1673V36.2179C307.985 37.3738 307.661 38.5129 307.019 39.4738C306.377 40.4347 305.45 41.1688 304.369 41.5721L308.516 47.6506H302.959L299.454 42.3724H297.342V47.6506H292.523V30.2205ZM300.52 38.5885C302.161 38.5885 303.106 37.7882 303.106 36.5219V36.4712C303.106 35.0985 302.096 34.4045 300.494 34.4045H297.342V38.5885H300.52Z" fill="white"/>
<path d="M314.896 30.2205H328.879V34.3285H319.665V36.9676H328.01V40.7768H319.665V43.5425H329V47.6506H314.896V30.2205Z" fill="white"/>
<path d="M127.374 41.0299C127.045 41.813 126.49 42.4799 125.781 42.9454C125.072 43.411 124.241 43.6541 123.393 43.6437C120.756 43.6437 118.948 41.4504 118.948 38.9379V38.8873C118.948 36.3545 120.711 34.2271 123.343 34.2271C124.245 34.2216 125.127 34.4968 125.867 35.0148C126.607 35.5328 127.169 36.2681 127.475 37.1194H132.526C131.738 32.9708 128.106 29.886 123.393 29.886C118.029 29.886 114.008 33.9383 114.008 38.9531V39.0038C114.008 44.0084 117.978 48.0202 123.343 48.0202C127.93 48.0202 131.516 45.0417 132.461 41.0502L127.374 41.0299Z" fill="white"/>
</g>
<defs>
<clipPath id="clip0_406_705">
<rect width="329" height="48" fill="white"/>
</clipPath>
</defs>
</svg>
