<svg width="145" height="37" viewBox="0 0 145 37" fill="none" xmlns="http://www.w3.org/2000/svg">
<g clip-path="url(#clip0_311_3535)">
<path d="M10.9101 3.66502C9.48856 1.99585 8.26374 0.288776 8.01503 -0.0615287C8.00988 -0.068929 8.003 -0.0749765 7.99498 -0.0791529C7.98697 -0.0833293 7.97805 -0.085511 7.969 -0.0855103C7.95995 -0.0855095 7.95104 -0.0833267 7.94302 -0.0791489C7.93501 -0.0749711 7.92813 -0.0689229 7.92298 -0.0615217C7.67431 0.288791 6.44976 1.99586 5.02823 3.66502C-7.15588 19.1095 6.9513 29.5297 6.9513 29.5297L7.06566 29.6088C7.1726 31.2209 7.43832 33.5379 7.43832 33.5379H8.5C8.5 33.5379 8.76459 31.2309 8.872 29.6192L8.98708 29.5297C8.98708 29.5297 23.0941 19.1095 10.9101 3.66502ZM7.96923 29.3033H7.9691C7.9691 29.3033 7.33666 28.7665 7.16599 28.4976L7.16444 28.4686L7.9294 11.654C7.92988 11.6438 7.93429 11.6342 7.94169 11.6272C7.94909 11.6202 7.95893 11.6163 7.96916 11.6163C7.9794 11.6163 7.98923 11.6202 7.99664 11.6272C8.00404 11.6342 8.00844 11.6438 8.00893 11.654L8.77387 28.4686L8.77238 28.4975C8.6018 28.7664 7.96923 29.3033 7.96923 29.3033Z" fill="white"/>
<path d="M34.3148 25.8605L28.4573 11.6622L28.4406 11.6216H23.8729V12.5724L24.6063 12.5735C24.7162 12.5737 24.825 12.5956 24.9264 12.6378C25.0279 12.6801 25.1198 12.7419 25.1971 12.8197C25.2744 12.8975 25.3354 12.9897 25.3767 13.0911C25.418 13.1925 25.4386 13.301 25.4375 13.4104L25.3025 27.7121C25.3013 27.9277 25.2154 28.1343 25.063 28.2876C24.9107 28.4409 24.7041 28.5287 24.4874 28.5323L23.7371 28.5412V29.4864H28.1822V28.5417L27.7247 28.5324C27.5072 28.5268 27.3005 28.4373 27.1482 28.2826C26.9959 28.128 26.9102 27.9204 26.909 27.704V14.2308L33.2988 29.4764C33.3436 29.5833 33.4192 29.6745 33.516 29.7387C33.6128 29.8029 33.7266 29.8371 33.8429 29.8371C33.9593 29.8371 34.073 29.8028 34.1698 29.7386C34.2667 29.6744 34.3422 29.5831 34.387 29.4763L40.631 14.5672L40.724 27.7009C40.7251 27.9198 40.6393 28.1302 40.4853 28.2865C40.3313 28.4428 40.1215 28.5323 39.9015 28.5355L39.432 28.5412V29.4864H44.6342V28.541L43.9218 28.5355C43.7036 28.5318 43.4954 28.4434 43.3418 28.2891C43.1882 28.1348 43.1012 27.9269 43.0996 27.7097L43.0546 13.4104C43.0547 13.1926 43.1406 12.9836 43.2938 12.8282C43.4471 12.6727 43.6555 12.5833 43.8743 12.5791L44.6343 12.5719V11.6216H40.1921L34.3148 25.8605Z" fill="white"/>
<path d="M75.27 28.3139C75.1952 28.2385 75.1368 28.1486 75.0984 28.0498C75.0601 27.9509 75.0427 27.8453 75.0473 27.7395V20.7314C75.0473 19.4016 74.6508 18.3502 73.8685 17.6059C73.0869 16.8627 72.0136 16.4858 70.6786 16.4858C68.7937 16.4858 67.313 17.2438 66.2776 18.739C66.2683 18.7525 66.2553 18.763 66.2402 18.7694C66.2251 18.7757 66.2084 18.7776 66.1922 18.7748C66.176 18.772 66.161 18.7646 66.1489 18.7535C66.1368 18.7424 66.1282 18.7281 66.1241 18.7123L65.6372 16.8405H64.8235L62.7289 18.0334L62.7288 18.6898H63.2693C63.489 18.6785 63.7049 18.7493 63.8747 18.8884C63.9523 18.9665 64.0121 19.0602 64.0501 19.1633C64.0881 19.2664 64.1033 19.3764 64.0948 19.4858V27.7395C64.1 27.8454 64.0829 27.9512 64.0445 28.0501C64.0061 28.1491 63.9474 28.2389 63.872 28.3139C63.7967 28.3889 63.7064 28.4473 63.607 28.4855C63.5075 28.5236 63.4012 28.5407 63.2947 28.5355H62.7708V29.4864H67.5871V28.5355H67.0631C66.9567 28.5407 66.8503 28.5237 66.7509 28.4855C66.6514 28.4473 66.5611 28.3889 66.4858 28.3139C66.4104 28.2389 66.3517 28.1491 66.3133 28.0502C66.2749 27.9512 66.2578 27.8454 66.263 27.7395V22.2768C66.2663 21.5649 66.4206 20.8617 66.7157 20.2132C67.0076 19.5522 67.4703 18.98 68.0567 18.5547C68.672 18.1174 69.4134 17.8907 70.1694 17.9085C71.0934 17.9085 71.7826 18.1981 72.2176 18.7693C72.6564 19.3466 72.8789 20.092 72.8789 20.9845V27.7395C72.8842 27.8454 72.8671 27.9512 72.8287 28.0501C72.7904 28.1491 72.7317 28.2389 72.6563 28.3139C72.581 28.3889 72.4907 28.4473 72.3913 28.4855C72.2918 28.5237 72.1855 28.5407 72.079 28.5355H71.5549V29.4864H76.3714V28.5355H75.8473C75.7409 28.5401 75.6348 28.5228 75.5354 28.4846C75.4361 28.4465 75.3457 28.3884 75.27 28.3139Z" fill="white"/>
<path d="M119.401 12.6932C118.026 11.9746 116.493 11.6064 114.94 11.6216H108.625V12.5725H109.236C109.483 12.5903 109.715 12.696 109.89 12.87C110.065 13.0441 110.171 13.275 110.189 13.5205V27.5873C110.186 27.7103 110.158 27.8313 110.107 27.9431C110.055 28.0549 109.982 28.1552 109.89 28.2379C109.807 28.3294 109.707 28.403 109.594 28.4542C109.482 28.5054 109.36 28.5331 109.236 28.5355H108.625V29.4864H114.94C116.493 29.5016 118.026 29.1334 119.401 28.4148C120.744 27.7052 121.86 26.6345 122.622 25.3247C123.414 23.9867 123.815 22.3816 123.815 20.5538C123.815 18.7266 123.414 17.1216 122.622 15.7833C121.86 14.4736 120.744 13.4029 119.401 12.6932ZM121.29 20.5538C121.29 22.2239 120.989 23.6456 120.394 24.7798C119.8 25.9113 119.008 26.7632 118.039 27.3121C117.064 27.8626 115.96 28.148 114.838 28.1396H113.565C113.441 28.1373 113.319 28.1096 113.207 28.0584C113.094 28.0073 112.994 27.9336 112.911 27.842C112.82 27.7594 112.746 27.6591 112.695 27.5473C112.643 27.4355 112.615 27.3144 112.612 27.1915V13.9163C112.615 13.7933 112.642 13.6721 112.694 13.5602C112.745 13.4483 112.819 13.3481 112.911 13.2658C112.994 13.1749 113.095 13.1016 113.207 13.0505C113.32 12.9994 113.441 12.9714 113.565 12.9683H114.838C115.96 12.9599 117.064 13.2453 118.039 13.7959C119.008 14.3443 119.8 15.1962 120.394 16.328C120.989 17.4627 121.29 18.8845 121.29 20.5538Z" fill="white"/>
<path d="M138.688 21.4993C138.114 20.8373 136.996 20.2733 135.673 19.973C137.493 19.0741 138.415 17.7957 138.415 16.1711C138.429 15.3278 138.18 14.5009 137.704 13.8033C137.199 13.0941 136.506 12.5382 135.703 12.1974C134.762 11.7979 133.746 11.6016 132.723 11.6216H125.639V12.5726H126.2C126.447 12.5904 126.679 12.696 126.854 12.87C127.029 13.0441 127.135 13.275 127.153 13.5205V27.5874C127.149 27.7103 127.121 27.8313 127.07 27.9431C127.019 28.0549 126.945 28.1552 126.854 28.2379C126.771 28.3294 126.67 28.4031 126.558 28.4543C126.445 28.5054 126.323 28.5331 126.2 28.5355H125.588V29.4864H133.278C134.388 29.4983 135.489 29.299 136.523 28.899C137.451 28.5489 138.263 27.9495 138.869 27.1677C139.443 26.408 139.735 25.4784 139.735 24.4048C139.757 23.3411 139.384 22.3065 138.688 21.4993ZM129.875 27.8421C129.783 27.7594 129.709 27.6592 129.658 27.5473C129.607 27.4355 129.579 27.3145 129.575 27.1916V20.8727H133.227C134.51 20.8727 135.506 21.2033 136.186 21.8552C136.865 22.5066 137.21 23.3645 137.21 24.4048C137.209 25.0345 137.055 25.6547 136.759 26.2114C136.449 26.7926 135.981 27.2753 135.409 27.6043C134.811 27.9595 134.077 28.1397 133.227 28.1397H130.528C130.405 28.1373 130.283 28.1097 130.17 28.0585C130.058 28.0073 129.957 27.9336 129.875 27.8421V27.8421ZM129.575 19.526V13.9164C129.578 13.7933 129.606 13.6721 129.657 13.5602C129.709 13.4483 129.783 13.3481 129.875 13.2658C129.958 13.1749 130.059 13.1017 130.171 13.0506C130.283 12.9994 130.405 12.9715 130.528 12.9684H132.264C133.512 12.9684 134.438 13.2768 135.017 13.8853C135.597 14.495 135.89 15.2897 135.89 16.2472C135.89 17.2389 135.618 18.0424 135.08 18.6355C134.544 19.2263 133.725 19.526 132.646 19.526H129.575Z" fill="white"/>
<path d="M56.9322 17.3171C55.8947 16.7712 54.7387 16.4858 53.565 16.4858C52.3913 16.4858 51.2354 16.7713 50.1979 17.3173C49.1932 17.8668 48.3607 18.6818 47.7921 19.6724C47.2097 20.7448 46.9048 21.9445 46.9048 23.1634C46.9048 24.3823 47.2097 25.582 47.7921 26.6543C48.3605 27.6451 49.1931 28.4603 50.1979 29.0097C51.2355 29.5557 52.3914 29.8411 53.5651 29.8411C54.7388 29.8411 55.8947 29.5556 56.9322 29.0096C57.937 28.4602 58.7696 27.6451 59.338 26.6543C59.9204 25.582 60.2253 24.3823 60.2253 23.1634C60.2253 21.9445 59.9204 20.7448 59.338 19.6724C58.7694 18.6819 57.9368 17.8668 56.9322 17.3171ZM57.9042 23.1634C57.9042 24.7784 57.5067 26.077 56.7226 27.0232C55.9413 27.9657 54.879 28.4436 53.5651 28.4436C52.2508 28.4436 51.1885 27.9657 50.4076 27.0232C49.6235 26.0775 49.226 24.7789 49.226 23.1634C49.226 21.5479 49.6235 20.2494 50.4076 19.3035C51.1884 18.3611 52.2507 17.8832 53.5651 17.8832C54.879 17.8832 55.9414 18.3611 56.7226 19.3035C57.5067 20.2499 57.9043 21.5485 57.9043 23.1634H57.9042Z" fill="white"/>
<path d="M103.324 17.3171C102.287 16.7712 101.131 16.4858 99.9571 16.4858C98.7834 16.4858 97.6275 16.7713 96.59 17.3173C95.5853 17.8668 94.7528 18.6818 94.1841 19.6724C93.6018 20.7448 93.2969 21.9445 93.2969 23.1634C93.2969 24.3823 93.6018 25.582 94.1841 26.6543C94.7525 27.6451 95.5852 28.4603 96.59 29.0097C97.6275 29.5557 98.7835 29.8411 99.9572 29.8411C101.131 29.8411 102.287 29.5556 103.324 29.0096C104.329 28.4602 105.162 27.6451 105.73 26.6543C106.312 25.582 106.617 24.3823 106.617 23.1634C106.617 21.9445 106.312 20.7448 105.73 19.6724C105.161 18.6819 104.329 17.8668 103.324 17.3171ZM104.296 23.1634C104.296 24.7784 103.899 26.077 103.115 27.0232C102.333 27.9657 101.271 28.4436 99.9571 28.4436C98.6428 28.4436 97.5805 27.9657 96.7997 27.0232C96.0156 26.0775 95.618 24.7789 95.618 23.1634C95.618 21.5481 96.0156 20.2494 96.7997 19.3035C97.5805 18.3611 98.6428 17.8832 99.9571 17.8832C101.271 17.8832 102.333 18.3611 103.115 19.3035C103.899 20.2499 104.296 21.5485 104.296 23.1634H104.296Z" fill="white"/>
<path d="M84.5989 16.4858C83.6007 16.4745 82.6145 16.7027 81.7238 17.1512C80.8946 17.5642 80.1914 18.1903 79.6872 18.9647C79.2014 19.7125 78.9449 20.5849 78.949 21.4753C78.9388 22.251 79.1334 23.0157 79.5134 23.6931C79.8837 24.3377 80.3962 24.8903 81.0123 25.3092L79.1388 27.8432C79.0252 27.9969 78.9566 28.1789 78.9407 28.3691C78.9248 28.5592 78.9622 28.75 79.0488 28.9203C79.1353 29.0906 79.2676 29.2336 79.431 29.3335C79.5943 29.4335 79.7823 29.4864 79.9741 29.4864H80.5122C80.0116 29.8116 79.5894 30.2431 79.2761 30.7499C78.9456 31.2778 78.7682 31.8865 78.7637 32.5085C78.7637 33.6314 79.2627 34.5572 80.2468 35.2606C81.224 35.959 82.5903 36.3131 84.3075 36.3131C85.4603 36.3214 86.6056 36.1284 87.6913 35.7429C88.6686 35.4093 89.5436 34.8317 90.2324 34.0655C90.8723 33.3363 91.2175 32.3968 91.2012 31.4288C91.2012 30.3586 90.8067 29.5928 89.8819 28.8681C89.0907 28.2489 87.8586 27.9215 86.3191 27.9215H81.0601C81.054 27.9215 81.0481 27.9199 81.0429 27.9168C81.0377 27.9137 81.0334 27.9092 81.0305 27.9039C81.0277 27.8986 81.0263 27.8926 81.0266 27.8865C81.0269 27.8805 81.0288 27.8747 81.0322 27.8696L82.397 26.0331C82.7206 26.1823 83.0597 26.2958 83.4083 26.3713C83.7571 26.4369 84.1115 26.4682 84.4665 26.4648C85.4947 26.4809 86.512 26.2528 87.4339 25.7994C88.2707 25.3874 88.9825 24.7617 89.4967 23.9862C89.9904 23.2412 90.2519 22.3677 90.2485 21.4753C90.2485 20.5049 89.7807 18.7381 88.4892 17.8371C88.4926 17.8281 88.4991 17.8286 88.5012 17.8292L91.3336 18.1444V16.8544H86.8063C86.0965 16.6093 85.3502 16.4847 84.5989 16.4858ZM86.1821 24.6696H86.182C85.6959 24.9319 85.1518 25.0695 84.5989 25.07C83.7354 25.0761 82.9047 24.7417 82.2885 24.1399C81.635 23.5243 81.3036 22.6276 81.3036 21.4753C81.3036 20.3229 81.635 19.4263 82.2885 18.8105C82.9048 18.2089 83.7355 17.8745 84.5989 17.8806C85.1518 17.8812 85.6958 18.0188 86.182 18.2808C86.6955 18.5609 87.1217 18.9761 87.4138 19.4811C87.7325 20.0128 87.8941 20.6838 87.8941 21.4753C87.8941 22.2672 87.7325 22.9381 87.4138 23.4693C87.122 23.9746 86.6958 24.3899 86.1821 24.6696ZM82.6115 29.4864H86.1753C87.1653 29.4864 87.7949 29.6773 88.217 30.1055C88.4269 30.3229 88.5907 30.58 88.6989 30.8616C88.807 31.1432 88.8573 31.4436 88.8466 31.7448C88.8569 32.1956 88.7589 32.6424 88.5608 33.0479C88.3626 33.4535 88.0701 33.8061 87.7074 34.0765C86.9464 34.67 85.9183 34.9709 84.6517 34.9709C83.5418 34.9709 82.633 34.727 81.9506 34.2457C81.2754 33.7696 80.9331 33.0611 80.9331 32.1399C80.9277 31.5762 81.0944 31.0242 81.4113 30.557C81.7085 30.1002 82.1228 29.7306 82.6115 29.4864Z" fill="white"/>
<path d="M142.415 29.3279C142.159 29.1848 141.947 28.9751 141.801 28.7213C141.656 28.4638 141.58 28.1734 141.58 27.8781C141.58 27.5828 141.656 27.2924 141.801 27.0349C141.947 26.7811 142.159 26.5715 142.415 26.4283C142.686 26.2821 142.989 26.2054 143.297 26.2054C143.606 26.2054 143.909 26.2821 144.18 26.4283C144.436 26.5714 144.648 26.7811 144.794 27.0349C144.939 27.2924 145.015 27.5828 145.015 27.8781C145.015 28.1735 144.939 28.4638 144.794 28.7213C144.648 28.9751 144.436 29.1848 144.18 29.3279C143.909 29.4741 143.606 29.5507 143.297 29.5507C142.989 29.5507 142.686 29.4741 142.415 29.3279ZM144.029 29.1349C144.244 29.0134 144.421 28.8353 144.54 28.6202C144.661 28.3915 144.725 28.1367 144.725 27.8781C144.725 27.6195 144.661 27.3647 144.54 27.136C144.421 26.921 144.244 26.7429 144.029 26.6213C143.805 26.4992 143.553 26.4352 143.298 26.4352C143.042 26.4352 142.79 26.4992 142.566 26.6213C142.351 26.7428 142.174 26.9209 142.055 27.136C141.934 27.3647 141.87 27.6195 141.87 27.8781C141.87 28.1367 141.934 28.3915 142.055 28.6202C142.174 28.8353 142.351 29.0134 142.566 29.1349C142.79 29.257 143.042 29.321 143.298 29.321C143.553 29.321 143.805 29.257 144.029 29.1349ZM142.586 28.6776V28.5628L142.609 28.5444H142.688C142.713 28.543 142.737 28.5324 142.755 28.5146C142.773 28.4968 142.783 28.4731 142.785 28.4479V27.2348C142.783 27.2097 142.773 27.1859 142.755 27.1681C142.737 27.1503 142.713 27.1397 142.688 27.1383H142.609L142.586 27.1199V27.005L142.609 26.9866H143.293C143.457 26.9779 143.619 27.0232 143.755 27.1153C143.811 27.1581 143.856 27.214 143.886 27.278C143.916 27.3421 143.929 27.4124 143.926 27.4829C143.926 27.5422 143.915 27.601 143.892 27.6558C143.87 27.7107 143.836 27.7605 143.794 27.8023C143.705 27.8935 143.586 27.9511 143.459 27.9654L143.616 28.0114L143.921 28.4892C143.93 28.5052 143.942 28.5187 143.958 28.5283C143.973 28.538 143.991 28.5436 144.009 28.5444H144.087L144.106 28.5628V28.6776L144.087 28.696H143.685L143.658 28.6776L143.233 27.9746H143.131V28.4479C143.133 28.473 143.143 28.4967 143.161 28.5145C143.179 28.5323 143.203 28.5429 143.228 28.5444H143.307L143.33 28.5628V28.6776L143.307 28.696H142.609L142.586 28.6776ZM143.247 27.823C143.292 27.8259 143.337 27.8196 143.38 27.8046C143.423 27.7896 143.463 27.7662 143.496 27.7357C143.527 27.7015 143.551 27.6616 143.566 27.6181C143.581 27.5747 143.587 27.5287 143.584 27.4829C143.588 27.3921 143.559 27.3028 143.501 27.2325C143.473 27.2014 143.439 27.1768 143.401 27.1605C143.362 27.1442 143.321 27.1366 143.279 27.1383H143.228C143.203 27.1398 143.179 27.1504 143.161 27.1682C143.143 27.186 143.133 27.2097 143.131 27.2348V27.823H143.247Z" fill="white"/>
</g>
<defs>
<clipPath id="clip0_311_3535">
<rect width="145" height="36.3499" fill="white"/>
</clipPath>
</defs>
</svg>
