<svg width="363" height="91" viewBox="0 0 363 91" fill="none" xmlns="http://www.w3.org/2000/svg">
<g clip-path="url(#clip0_288_1453)">
<path d="M27.3132 9.17514C23.7544 4.99648 20.6881 0.722894 20.0655 -0.154075C20.0526 -0.172601 20.0353 -0.187741 20.0153 -0.198196C19.9952 -0.208651 19.9729 -0.214113 19.9502 -0.214111C19.9276 -0.214109 19.9053 -0.208645 19.8852 -0.198186C19.8651 -0.187727 19.8479 -0.172586 19.835 -0.154057C19.2125 0.722931 16.1469 4.99649 12.5882 9.17514C-17.9141 47.8397 17.4025 73.9261 17.4025 73.9261L17.6888 74.124C17.9565 78.16 18.6217 83.9604 18.6217 83.9604H21.2796C21.2796 83.9604 21.9419 78.185 22.2108 74.1502L22.4989 73.9261C22.4989 73.9261 57.8152 47.8397 27.3132 9.17514ZM19.9508 73.3592H19.9505C19.9505 73.3592 18.3672 72.0154 17.9399 71.3422L17.9361 71.2697L19.8511 29.1751C19.8523 29.1497 19.8633 29.1257 19.8819 29.1081C19.9004 29.0905 19.925 29.0807 19.9506 29.0807C19.9763 29.0807 20.0009 29.0905 20.0194 29.1081C20.038 29.1257 20.049 29.1497 20.0502 29.1751L21.9652 71.2697L21.9615 71.3419C21.5344 72.0151 19.9508 73.3592 19.9508 73.3592Z" fill="#00ED64"/>
<path d="M85.9053 64.7404L71.2415 29.1957L71.1997 29.094H59.7647V31.4743L61.6007 31.4771C61.8759 31.4776 62.1483 31.5323 62.4021 31.6381C62.656 31.7439 62.8863 31.8986 63.0797 32.0933C63.2732 32.2881 63.426 32.5191 63.5293 32.7729C63.6326 33.0267 63.6844 33.2984 63.6816 33.5722L63.3436 69.3759C63.3406 69.9156 63.1254 70.4327 62.744 70.8164C62.3627 71.2002 61.8454 71.4201 61.3031 71.429L59.4246 71.4514V73.8176H70.5527V71.4527L69.4075 71.4294C68.863 71.4154 68.3453 71.1911 67.9641 70.804C67.583 70.4169 67.3682 69.8974 67.3654 69.3554V35.626L83.3619 73.7927C83.4741 74.0601 83.6633 74.2886 83.9057 74.4493C84.1481 74.61 84.4328 74.6957 84.7241 74.6957C85.0154 74.6956 85.3001 74.6098 85.5425 74.4491C85.7849 74.2883 85.974 74.0598 86.0861 73.7923L101.718 36.4682L101.95 69.3477C101.953 69.8957 101.738 70.4226 101.353 70.8138C100.967 71.2051 100.442 71.429 99.8914 71.437L98.7161 71.4514V73.8176H111.739V71.4508L109.956 71.437C109.41 71.4279 108.889 71.2066 108.504 70.8203C108.119 70.4341 107.902 69.9135 107.898 69.3698L107.785 33.5722C107.785 33.027 108 32.5037 108.384 32.1146C108.768 31.7255 109.289 31.5017 109.837 31.4912L111.74 31.473V29.094H100.619L85.9053 64.7404Z" fill="#00ED64"/>
<path d="M188.435 70.8822C188.248 70.6936 188.101 70.4685 188.005 70.2211C187.91 69.9737 187.866 69.7092 187.878 69.4443V51.8999C187.878 48.5709 186.885 45.9387 184.926 44.0755C182.97 42.2148 180.283 41.2712 176.941 41.2712C172.222 41.2712 168.515 43.169 165.923 46.9121C165.9 46.9458 165.867 46.9722 165.829 46.9881C165.791 47.004 165.75 47.0087 165.709 47.0017C165.669 46.9946 165.631 46.9761 165.601 46.9484C165.571 46.9207 165.549 46.8848 165.539 46.8452L164.32 42.1592H162.283L157.039 45.1457L157.039 46.7889H158.392C158.942 46.7606 159.482 46.9379 159.907 47.2862C160.102 47.4815 160.251 47.7162 160.346 47.9742C160.442 48.2323 160.48 48.5077 160.458 48.7817V69.4443C160.471 69.7094 160.429 69.9743 160.332 70.222C160.236 70.4697 160.089 70.6946 159.901 70.8823C159.712 71.07 159.486 71.2163 159.237 71.3118C158.988 71.4074 158.722 71.45 158.455 71.437H157.144V73.8176H169.201V71.437H167.889C167.623 71.4501 167.357 71.4074 167.108 71.3119C166.859 71.2164 166.633 71.0701 166.444 70.8824C166.255 70.6947 166.108 70.4697 166.012 70.2221C165.916 69.9744 165.873 69.7094 165.886 69.4443V55.7686C165.895 53.9865 166.281 52.2261 167.02 50.6027C167.75 48.9479 168.909 47.5153 170.377 46.4506C171.917 45.3559 173.773 44.7883 175.666 44.833C177.979 44.833 179.704 45.5579 180.793 46.9878C181.892 48.4331 182.449 50.2992 182.449 52.5337V69.4443C182.462 69.7094 182.419 69.9743 182.323 70.222C182.227 70.4697 182.08 70.6946 181.892 70.8824C181.703 71.0701 181.477 71.2164 181.228 71.3119C180.979 71.4075 180.713 71.4501 180.447 71.437H179.134V73.8176H191.192V71.437H189.88C189.614 71.4485 189.348 71.4052 189.099 71.3098C188.851 71.2143 188.624 71.0687 188.435 70.8822Z" fill="#00ED64"/>
<path d="M298.914 31.7768C295.471 29.9778 291.634 29.056 287.746 29.094H271.936V31.4746H273.468C274.085 31.5193 274.666 31.7837 275.104 32.2194C275.542 32.6552 275.808 33.2332 275.853 33.8478V69.0635C275.845 69.3712 275.775 69.6742 275.646 69.9541C275.518 70.234 275.333 70.485 275.104 70.692C274.897 70.9211 274.645 71.1055 274.364 71.2336C274.082 71.3618 273.777 71.431 273.468 71.437H271.936V73.8176H287.746C291.634 73.8556 295.471 72.9339 298.914 71.1349C302.277 69.3584 305.071 66.6781 306.978 63.399C308.96 60.0496 309.965 56.0312 309.965 51.4555C309.965 46.8811 308.96 42.863 306.978 39.5126C305.071 36.2338 302.277 33.5536 298.914 31.7768ZM303.644 51.4555C303.644 55.6363 302.889 59.1955 301.4 62.035C299.914 64.8677 297.93 67.0004 295.505 68.3744C293.062 69.7527 290.299 70.4672 287.491 70.4461H284.304C283.994 70.4402 283.689 70.3711 283.408 70.2429C283.126 70.1147 282.874 69.9303 282.667 69.7011C282.438 69.4942 282.254 69.2432 282.125 68.9632C281.996 68.6833 281.926 68.3803 281.919 68.0726V34.8388C281.925 34.5308 281.994 34.2273 282.123 33.9472C282.252 33.667 282.437 33.4162 282.667 33.2103C282.875 32.9826 283.128 32.7993 283.409 32.6713C283.69 32.5433 283.994 32.4733 284.304 32.4655H287.491C290.299 32.4445 293.062 33.159 295.505 34.5372C297.929 35.9103 299.913 38.043 301.4 40.8764C302.889 43.7171 303.644 47.2763 303.644 51.4555Z" fill="#00ED64"/>
<path d="M347.197 53.8224C345.762 52.1651 342.963 50.7531 339.65 50.0013C344.206 47.7509 346.515 44.5505 346.515 40.4835C346.548 38.3723 345.926 36.3022 344.733 34.5559C343.47 32.7805 341.736 31.3888 339.725 30.5356C337.369 29.5354 334.825 29.0441 332.264 29.0941H314.53V31.4747H315.934C316.552 31.5193 317.133 31.7836 317.571 32.2194C318.009 32.6552 318.275 33.2333 318.319 33.8479V69.0636C318.312 69.3713 318.241 69.6742 318.113 69.9541C317.984 70.234 317.8 70.4851 317.571 70.6921C317.364 70.9212 317.112 71.1056 316.83 71.2337C316.549 71.3619 316.244 71.4311 315.934 71.4371H314.402V73.8177H333.655C336.432 73.8475 339.19 73.3484 341.779 72.3472C344.101 71.4706 346.134 69.9702 347.65 68.0129C349.089 66.111 349.818 63.7838 349.818 61.0962C349.874 58.4332 348.941 55.8432 347.197 53.8224ZM325.134 69.7012C324.905 69.4943 324.72 69.2432 324.592 68.9633C324.463 68.6834 324.393 68.3804 324.385 68.0727V52.2537H333.527C336.739 52.2537 339.231 53.0812 340.934 54.7133C342.635 56.344 343.497 58.4918 343.497 61.0962C343.496 62.6727 343.109 64.2251 342.369 65.6189C341.593 67.0738 340.421 68.2822 338.988 69.1058C337.492 69.995 335.655 70.4462 333.527 70.4462H326.771C326.461 70.4403 326.156 70.3711 325.874 70.243C325.593 70.1148 325.341 69.9304 325.134 69.7012V69.7012ZM324.385 48.8822V34.8388C324.391 34.5308 324.461 34.2274 324.589 33.9472C324.718 33.6671 324.904 33.4163 325.134 33.2103C325.342 32.9827 325.594 32.7994 325.876 32.6714C326.157 32.5434 326.461 32.4734 326.771 32.4656H331.116C334.24 32.4656 336.559 33.2378 338.008 34.7611C339.459 36.2873 340.194 38.2769 340.194 40.6741C340.194 43.1566 339.512 45.1682 338.165 46.6529C336.823 48.132 334.773 48.8822 332.072 48.8822H324.385Z" fill="#00ED64"/>
<path d="M142.527 43.3525C139.929 41.9857 137.035 41.2712 134.097 41.2712C131.159 41.2713 128.265 41.9859 125.668 43.3529C123.153 44.7286 121.068 46.769 119.645 49.2488C118.187 51.9334 117.424 54.9368 117.424 57.9882C117.424 61.0396 118.187 64.0431 119.645 66.7276C121.068 69.2081 123.152 71.2488 125.668 72.6243C128.265 73.9911 131.159 74.7056 134.097 74.7055C137.036 74.7055 139.929 73.9909 142.527 72.6239C145.042 71.2486 147.127 69.2079 148.549 66.7276C150.007 64.0431 150.771 61.0397 150.771 57.9882C150.771 54.9368 150.007 51.9334 148.549 49.2488C147.126 46.769 145.042 44.7286 142.527 43.3525ZM144.96 57.9884C144.96 62.0314 143.965 65.2823 142.002 67.6511C140.046 70.0106 137.387 71.2071 134.097 71.2071C130.807 71.2071 128.148 70.0106 126.193 67.6511C124.23 65.2836 123.235 62.0327 123.235 57.9884C123.235 53.9441 124.23 50.6932 126.193 48.3254C128.147 45.9659 130.807 44.7697 134.097 44.7697C137.387 44.7697 140.046 45.9659 142.002 48.3254C143.965 50.6944 144.96 53.9454 144.96 57.9884H144.96Z" fill="#00ED64"/>
<path d="M258.667 43.3525C256.07 41.9857 253.176 41.2712 250.238 41.2712C247.3 41.2713 244.406 41.9859 241.808 43.3529C239.293 44.7286 237.209 46.769 235.785 49.2488C234.328 51.9334 233.564 54.9368 233.564 57.9882C233.564 61.0396 234.328 64.0431 235.785 66.7276C237.208 69.2081 239.293 71.2488 241.808 72.6243C244.406 73.9911 247.3 74.7056 250.238 74.7055C253.176 74.7055 256.07 73.9909 258.667 72.6239C261.183 71.2486 263.267 69.2079 264.69 66.7276C266.148 64.0431 266.911 61.0396 266.911 57.9882C266.911 54.9368 266.148 51.9334 264.69 49.2488C263.267 46.769 261.182 44.7286 258.667 43.3525ZM261.101 57.9884C261.101 62.0314 260.106 65.2823 258.143 67.6511C256.187 70.0106 253.527 71.2071 250.238 71.2071C246.948 71.2071 244.288 70.0106 242.333 67.6511C240.37 65.2836 239.375 62.0327 239.375 57.9884C239.375 53.9444 240.37 50.6932 242.333 48.3254C244.288 45.9659 246.947 44.7697 250.238 44.7697C253.527 44.7697 256.187 45.9659 258.143 48.3254C260.106 50.6944 261.101 53.9454 261.101 57.9884H261.101Z" fill="#00ED64"/>
<path d="M211.789 41.2713C209.29 41.2429 206.821 41.8144 204.591 42.9372C202.515 43.971 200.755 45.5385 199.493 47.4771C198.277 49.3492 197.635 51.5331 197.645 53.7622C197.619 55.7041 198.106 57.6187 199.058 59.3144C199.985 60.9282 201.268 62.3116 202.81 63.3603L198.12 69.7039C197.836 70.0887 197.664 70.5444 197.624 71.0204C197.584 71.4965 197.678 71.9742 197.895 72.4004C198.111 72.8267 198.443 73.1848 198.851 73.435C199.26 73.6852 199.731 73.8176 200.211 73.8176H201.558C200.305 74.6319 199.248 75.712 198.464 76.9806C197.636 78.3024 197.192 79.8261 197.181 81.3834C197.181 84.1943 198.43 86.5122 200.894 88.2731C203.34 90.0216 206.761 90.9079 211.06 90.9079C213.946 90.9286 216.813 90.4455 219.531 89.4805C221.977 88.6452 224.168 87.1994 225.892 85.2812C227.494 83.4556 228.358 81.1036 228.318 78.6805C228.318 76.0012 227.33 74.084 225.015 72.2697C223.034 70.7195 219.95 69.9 216.096 69.9H202.93C202.915 69.9 202.9 69.8959 202.887 69.8881C202.874 69.8804 202.863 69.8692 202.856 69.8559C202.849 69.8426 202.845 69.8276 202.846 69.8125C202.847 69.7974 202.852 69.7827 202.86 69.7701L206.277 65.1724C207.087 65.5461 207.936 65.83 208.808 66.0191C209.682 66.1834 210.569 66.2618 211.458 66.2532C214.032 66.2935 216.578 65.7225 218.886 64.5875C220.981 63.556 222.763 61.9896 224.051 60.0483C225.286 58.1831 225.941 55.9963 225.933 53.7622C225.933 51.333 224.762 46.9098 221.528 44.6543C221.537 44.6316 221.553 44.6329 221.558 44.6345L228.649 45.4236V42.1941H217.315C215.538 41.5804 213.67 41.2685 211.789 41.2713ZM215.753 61.759H215.752C214.535 62.4157 213.173 62.7602 211.789 62.7614C209.627 62.7767 207.548 61.9395 206.005 60.433C204.369 58.8917 203.54 56.647 203.54 53.7622C203.54 50.8774 204.369 48.6327 206.005 47.0912C207.548 45.585 209.628 44.7479 211.789 44.763C213.173 44.7647 214.535 45.1091 215.752 45.7651C217.038 46.4661 218.105 47.5057 218.836 48.7699C219.634 50.101 220.038 51.7807 220.038 53.7622C220.038 55.7447 219.634 57.4244 218.836 58.7542C218.106 60.019 217.039 61.0587 215.753 61.759ZM206.814 73.8176H215.736C218.214 73.8176 219.79 74.2957 220.847 75.3675C221.372 75.9118 221.782 76.5555 222.053 77.2605C222.324 77.9655 222.45 78.7173 222.423 79.4715C222.449 80.6001 222.203 81.7185 221.707 82.7337C221.211 83.749 220.479 84.6317 219.571 85.3087C217.666 86.7946 215.092 87.5479 211.921 87.5479C209.143 87.5479 206.868 86.9372 205.159 85.7323C203.469 84.5403 202.612 82.7666 202.612 80.4605C202.598 79.0494 203.016 77.6675 203.809 76.4978C204.553 75.3543 205.59 74.4291 206.814 73.8176Z" fill="#00ED64"/>
<path d="M356.529 73.4208C355.888 73.0625 355.357 72.5377 354.992 71.9023C354.628 71.2576 354.437 70.5307 354.437 69.7914C354.437 69.0521 354.628 68.3252 354.992 67.6804C355.357 67.0451 355.888 66.5203 356.529 66.1619C357.207 65.7957 357.966 65.6039 358.737 65.6039C359.509 65.6039 360.268 65.7957 360.946 66.1619C361.587 66.5202 362.119 67.045 362.483 67.6804C362.847 68.3251 363.038 69.052 363.038 69.7914C363.038 70.5307 362.847 71.2577 362.483 71.9023C362.119 72.5378 361.587 73.0626 360.946 73.4208C360.268 73.7869 359.509 73.9787 358.737 73.9787C357.966 73.9787 357.207 73.7869 356.529 73.4208ZM360.57 72.9377C361.107 72.6335 361.549 72.1876 361.848 71.6492C362.151 71.0766 362.31 70.4389 362.31 69.7914C362.31 69.1439 362.151 68.5062 361.848 67.9335C361.549 67.3952 361.107 66.9493 360.57 66.6451C360.008 66.3394 359.378 66.1792 358.738 66.1792C358.097 66.1792 357.467 66.3394 356.905 66.6451C356.368 66.9492 355.926 67.3951 355.628 67.9335C355.324 68.5062 355.165 69.1439 355.165 69.7914C355.165 70.4389 355.324 71.0766 355.628 71.6492C355.926 72.1877 356.368 72.6336 356.905 72.9377C357.467 73.2434 358.097 73.4036 358.738 73.4036C359.378 73.4036 360.008 73.2434 360.57 72.9377ZM356.957 71.793V71.5053L357.015 71.4595H357.212C357.275 71.4559 357.334 71.4293 357.379 71.3847C357.424 71.3402 357.451 71.2808 357.454 71.2179V68.1808C357.451 68.1179 357.424 68.0586 357.379 68.014C357.334 67.9694 357.275 67.9428 357.212 67.9393H357.015L356.957 67.8932V67.6056L357.015 67.5596H358.726C359.137 67.5378 359.543 67.651 359.882 67.8817C360.024 67.9889 360.136 68.1288 360.211 68.2891C360.285 68.4495 360.319 68.6255 360.31 68.802C360.312 68.9504 360.283 69.0976 360.226 69.2349C360.17 69.3722 360.086 69.4969 359.98 69.6015C359.757 69.8299 359.461 69.9742 359.142 70.0098L359.535 70.125L360.298 71.3213C360.32 71.3613 360.351 71.395 360.39 71.4192C360.428 71.4434 360.472 71.4573 360.518 71.4595H360.715L360.761 71.5053V71.793L360.715 71.839H359.709L359.639 71.793L358.576 70.0329H358.321V71.2179C358.325 71.2807 358.352 71.3401 358.397 71.3846C358.441 71.4291 358.501 71.4558 358.564 71.4595H358.761L358.819 71.5053V71.793L358.761 71.839H357.015L356.957 71.793ZM358.61 69.6533C358.724 69.6606 358.838 69.645 358.945 69.6074C359.052 69.5699 359.151 69.5111 359.235 69.4348C359.312 69.3493 359.371 69.2493 359.409 69.1406C359.447 69.0318 359.462 68.9167 359.454 68.802C359.466 68.5746 359.392 68.3511 359.246 68.1751C359.177 68.0972 359.092 68.0356 358.996 67.9949C358.9 67.9541 358.796 67.9351 358.691 67.9393H358.564C358.501 67.943 358.441 67.9696 358.397 68.0141C358.352 68.0587 358.325 68.118 358.321 68.1808V69.6533H358.61Z" fill="#00ED64"/>
</g>
<defs>
<clipPath id="clip0_288_1453">
<rect width="363" height="91" fill="white"/>
</clipPath>
</defs>
</svg>
