<svg width="294" height="82" viewBox="0 0 294 82" fill="none" xmlns="http://www.w3.org/2000/svg">
<g clip-path="url(#clip0_311_195)">
<path fill-rule="evenodd" clip-rule="evenodd" d="M0 14.0805C0 6.30405 6.39244 0 14.2779 0H68.5343C76.4198 0 82.8122 6.30405 82.8122 14.0805V59.587C82.8122 67.6323 72.4886 71.1237 67.4818 64.7721L51.8289 44.9149V68.9942C51.8289 75.993 46.0756 81.6667 38.9788 81.6667H14.2779C6.39244 81.6667 0 75.3628 0 67.586V14.0805ZM14.2779 11.2644C12.7008 11.2644 11.4224 12.5252 11.4224 14.0805V67.586C11.4224 69.1413 12.7008 70.4024 14.2779 70.4024H39.4073C40.1956 70.4024 40.4066 69.7719 40.4066 68.9942V36.7041C40.4066 28.6588 50.7298 25.1671 55.737 31.5189L71.3898 51.3759V14.0805C71.3898 12.5252 71.5391 11.2644 69.9621 11.2644H14.2779Z" fill="#12FFF7"/>
<path fill-rule="evenodd" clip-rule="evenodd" d="M0 14.0805C0 6.30405 6.39244 0 14.2779 0H68.5343C76.4198 0 82.8122 6.30405 82.8122 14.0805V59.587C82.8122 67.6323 72.4886 71.1237 67.4818 64.7721L51.8289 44.9149V68.9942C51.8289 75.993 46.0756 81.6667 38.9788 81.6667H14.2779C6.39244 81.6667 0 75.3628 0 67.586V14.0805ZM14.2779 11.2644C12.7008 11.2644 11.4224 12.5252 11.4224 14.0805V67.586C11.4224 69.1413 12.7008 70.4024 14.2779 70.4024H39.4073C40.1956 70.4024 40.4066 69.7719 40.4066 68.9942V36.7041C40.4066 28.6588 50.7298 25.1671 55.737 31.5189L71.3898 51.3759V14.0805C71.3898 12.5252 71.5391 11.2644 69.9621 11.2644H14.2779Z" fill="url(#paint0_linear_311_195)"/>
<path fill-rule="evenodd" clip-rule="evenodd" d="M0 14.0805C0 6.30405 6.39244 0 14.2779 0H68.5343C76.4198 0 82.8122 6.30405 82.8122 14.0805V59.587C82.8122 67.6323 72.4886 71.1237 67.4818 64.7721L51.8289 44.9149V68.9942C51.8289 75.993 46.0756 81.6667 38.9788 81.6667H14.2779C6.39244 81.6667 0 75.3628 0 67.586V14.0805ZM14.2779 11.2644C12.7008 11.2644 11.4224 12.5252 11.4224 14.0805V67.586C11.4224 69.1413 12.7008 70.4024 14.2779 70.4024H39.4073C40.1956 70.4024 40.4066 69.7719 40.4066 68.9942V36.7041C40.4066 28.6588 50.7298 25.1671 55.737 31.5189L71.3898 51.3759V14.0805C71.3898 12.5252 71.5391 11.2644 69.9621 11.2644H14.2779Z" fill="url(#paint1_linear_311_195)"/>
<path d="M68.5353 0C76.4208 0 82.8132 6.30405 82.8132 14.0805V59.587C82.8132 67.6323 72.4896 71.1237 67.4828 64.7721L51.83 44.9149V68.9942C51.83 75.993 46.077 81.6667 38.9799 81.6667C39.7686 81.6667 40.4076 81.0361 40.4076 80.2585V36.7041C40.4076 28.6588 50.7312 25.1671 55.738 31.5189L71.3909 51.3759V2.81609C71.3909 1.26081 70.1124 0 68.5353 0Z" fill="#B9FFB3"/>
<path d="M139.598 24.0457V45.4059L118.595 24.0457H107.664V58.981H117.634V36.0234L140.508 58.981H149.567V24.0457H139.598Z" fill="white"/>
<path d="M168.048 51.1952V45.0066H190.366V37.5706H168.048V31.8312H195.123V24.0457H157.876V58.981H195.68V51.1952H168.048Z" fill="white"/>
<path d="M222.172 60.1287C236.191 60.1287 245.3 53.3414 245.3 41.5134C245.3 29.6852 236.191 22.8978 222.172 22.8978C208.154 22.8978 199.096 29.6852 199.096 41.5134C199.096 53.3414 208.154 60.1287 222.172 60.1287ZM222.172 51.8442C214.379 51.8442 209.571 48.101 209.571 41.5134C209.571 34.9255 214.43 31.1825 222.172 31.1825C229.966 31.1825 234.774 34.9255 234.774 41.5134C234.774 48.101 229.966 51.8442 222.172 51.8442Z" fill="white"/>
<path d="M283.512 24.0457V45.4059L262.51 24.0457H251.579V58.981H261.548V36.0234L284.423 58.981H293.482V24.0457H283.512Z" fill="white"/>
</g>
<defs>
<linearGradient id="paint0_linear_311_195" x1="82.8122" y1="81.6667" x2="11.1364" y2="-0.990111" gradientUnits="userSpaceOnUse">
<stop stop-color="#B9FFB3"/>
<stop offset="1" stop-color="#B9FFB3" stop-opacity="0"/>
</linearGradient>
<linearGradient id="paint1_linear_311_195" x1="82.8122" y1="81.6667" x2="33.8065" y2="62.3377" gradientUnits="userSpaceOnUse">
<stop stop-color="#1A1A1A" stop-opacity="0.9"/>
<stop offset="1" stop-color="#1A1A1A" stop-opacity="0"/>
</linearGradient>
<clipPath id="clip0_311_195">
<rect width="293.482" height="81.6667" fill="white"/>
</clipPath>
</defs>
</svg>
