<svg width="383" height="71" viewBox="0 0 383 71" fill="none" xmlns="http://www.w3.org/2000/svg">
<g clip-path="url(#clip0_286_1012)">
<path d="M75.81 15.35C75.81 15.35 50.86 -3.49004 31.5 0.909957L29.8 1.37996C27.1528 2.14293 24.8366 3.76914 23.22 5.99996C22.9593 6.37833 22.7222 6.77241 22.51 7.17996L15.36 19.33L27.71 21.74C30.2373 23.5219 33.1118 24.7511 36.1461 25.3473C39.1805 25.9435 42.3064 25.8933 45.32 25.2L67.32 29.5L75.81 15.35Z" fill="#76B3E1"/>
<path opacity="0.3" d="M75.81 15.35C75.81 15.35 50.86 -3.49004 31.5 0.909957L29.8 1.37996C27.1528 2.14293 24.8366 3.76914 23.22 5.99996C22.9593 6.37833 22.7222 6.77241 22.51 7.17996L15.36 19.33L27.71 21.74C30.2373 23.5219 33.1118 24.7511 36.1461 25.3473C39.1805 25.9435 42.3064 25.8933 45.32 25.2L67.32 29.5L75.81 15.35Z" fill="url(#paint0_linear_286_1012)"/>
<path d="M23 15.11L21.29 15.59C13.39 18.14 10.69 25.53 15.23 32.01C17.8512 35.3056 21.3977 37.7424 25.414 39.0076C29.4304 40.2727 33.7332 40.3084 37.77 39.11L67.29 29.5C67.29 29.5 42.39 10.71 23 15.11Z" fill="#518AC8"/>
<path opacity="0.3" d="M23 15.11L21.29 15.59C13.39 18.14 10.69 25.53 15.23 32.01C17.8512 35.3056 21.3977 37.7424 25.414 39.0076C29.4304 40.2727 33.7332 40.3084 37.77 39.11L67.29 29.5C67.29 29.5 42.39 10.71 23 15.11Z" fill="url(#paint1_linear_286_1012)"/>
<path d="M61.89 36.42C59.2729 33.1068 55.7224 30.6545 51.6972 29.3799C47.6721 28.1053 43.3572 28.067 39.31 29.27L9.82 38.83L0.540001 55.35L53.37 64.35L62.84 47.5C64.73 44.27 64.54 40.2 61.89 36.42Z" fill="url(#paint2_linear_286_1012)"/>
<path d="M52.61 52.94C49.994 49.6396 46.4518 47.1958 42.4377 45.9219C38.4236 44.648 34.1204 44.602 30.08 45.79L0.540001 55.35C0.540001 55.35 25.54 74.19 44.85 69.79L46.55 69.32C54.46 66.81 57.16 59.42 52.61 52.94Z" fill="url(#paint3_linear_286_1012)"/>
<path d="M109.71 45C111.883 47.1164 114.777 48.3312 117.81 48.4C121.21 48.4 124.01 46.4 124.01 43C124.01 35.2 108.51 37.1 108.51 27.5C108.51 23 112.51 19.2 118.21 19.2C121.257 19.1094 124.225 20.182 126.51 22.2L125 24.8C123.136 23.1045 120.719 22.1449 118.2 22.1C114.2 22.1 111.7 24.7 111.6 27.4C111.6 34.8 127.1 32.7 127.1 42.9C127.1 47.5 123.5 51.3 117.7 51.3C115.88 51.336 114.072 50.9998 112.387 50.3119C110.702 49.6241 109.175 48.5992 107.9 47.3L109.71 45ZM158.81 19.4C160.896 19.3906 162.963 19.7962 164.891 20.5932C166.818 21.3901 168.568 22.5625 170.039 24.0422C171.509 25.5219 172.67 27.2792 173.455 29.2119C174.24 31.1446 174.633 33.2142 174.61 35.3C174.636 37.4012 174.249 39.487 173.469 41.4384C172.689 43.3897 171.533 45.1683 170.065 46.6727C168.598 48.177 166.849 49.3776 164.918 50.2059C162.987 51.0342 160.911 51.4739 158.81 51.5H158.71C156.609 51.4739 154.533 51.0342 152.602 50.2059C150.671 49.3776 148.922 48.177 147.454 46.6727C145.987 45.1683 144.831 43.3897 144.051 41.4384C143.271 39.487 142.884 37.4012 142.91 35.3V35.2C142.901 33.1141 143.306 31.0471 144.103 29.1193C144.9 27.1916 146.073 25.4416 147.552 23.9713C149.032 22.5009 150.789 21.3396 152.722 20.5548C154.655 19.77 156.724 19.3774 158.81 19.4ZM158.71 48.7C162.156 48.6213 165.43 47.1771 167.812 44.6848C170.194 42.1925 171.488 38.8564 171.41 35.41V35.3C171.41 27.9 165.81 22.2 158.81 22.2C157.117 22.2023 155.442 22.5423 153.883 23.2001C152.323 23.858 150.911 24.8205 149.728 26.0312C148.545 27.2419 147.616 28.6765 146.995 30.2509C146.374 31.8253 146.073 33.5079 146.11 35.2C146.11 42.8 151.71 48.6 158.71 48.7ZM192.61 20H195.61L195.51 48.3H209.91V51H192.41L192.61 20ZM226.51 20.1H229.51L229.41 51.2H226.41L226.51 20.1ZM249.71 20.1H259.71C269.01 20.1 275.31 25.8 275.31 35.7C275.31 45.6 269.01 51.2 259.71 51.2H249.71V20.1ZM259.31 48.5C266.91 48.5 272.01 44 272.11 35.7C272.21 27.4 267.01 22.9 259.41 22.9H252.71L252.61 48.5H259.31Z" fill="white"/>
<path d="M301.48 51.2C304.067 51.2795 306.588 50.3795 308.54 48.68C309.509 47.7795 310.268 46.6764 310.762 45.4492C311.257 44.222 311.474 42.9009 311.4 41.58V20.47H305.15V41.12C305.22 42.2121 304.861 43.2884 304.15 44.12C303.791 44.4845 303.358 44.7685 302.88 44.953C302.403 45.1374 301.891 45.2182 301.38 45.19C299.42 45.19 297.99 44.04 297.09 41.74L291.8 44.69C293.527 49.03 296.753 51.2 301.48 51.2Z" fill="white"/>
<path d="M338.94 51.27C342.41 51.27 345.13 50.41 347.08 48.68C348.04 47.836 348.801 46.7887 349.306 45.6143C349.811 44.4398 350.048 43.1676 350 41.89C350.04 40.8173 349.835 39.7496 349.402 38.7674C348.969 37.7852 348.319 36.9142 347.5 36.22C345.82 34.78 343.13 33.54 339.43 32.48C338.095 32.1794 336.822 31.6481 335.67 30.91C335.325 30.6692 335.044 30.3471 334.852 29.9722C334.66 29.5973 334.563 29.181 334.57 28.76C334.558 28.324 334.652 27.8916 334.843 27.4997C335.035 27.1079 335.319 26.7683 335.67 26.51C336.516 25.906 337.542 25.6064 338.58 25.66C339.806 25.5773 341.026 25.8955 342.056 26.5664C343.086 27.2374 343.87 28.2248 344.29 29.38L349.46 26.55C348.659 24.5407 347.232 22.8433 345.39 21.71C343.418 20.5357 341.154 19.9428 338.86 20C336.142 19.9259 333.492 20.8509 331.41 22.6C330.423 23.3777 329.63 24.3742 329.093 25.5109C328.557 26.6476 328.292 27.8934 328.32 29.15C328.294 30.1951 328.487 31.2341 328.887 32.2002C329.287 33.1663 329.884 34.0382 330.64 34.76C332.027 36.16 334.483 37.39 338.01 38.45C339.598 38.8298 341.122 39.4431 342.53 40.27C342.9 40.4772 343.206 40.7813 343.415 41.1496C343.625 41.5178 343.73 41.9363 343.72 42.36C343.717 42.8226 343.598 43.2771 343.372 43.681C343.147 44.0849 342.823 44.4252 342.43 44.67C341.451 45.3079 340.298 45.6259 339.13 45.58C337.733 45.614 336.359 45.2294 335.182 44.4755C334.006 43.7217 333.082 42.6332 332.53 41.35L327.13 44.14C328.018 46.325 329.595 48.161 331.62 49.37C333.834 50.6756 336.37 51.3338 338.94 51.27Z" fill="white"/>
</g>
<defs>
<linearGradient id="paint0_linear_286_1012" x1="11.67" y1="0.0399587" x2="70.61" y2="28.68" gradientUnits="userSpaceOnUse">
<stop offset="0.1" stop-color="#76B3E1"/>
<stop offset="0.3" stop-color="#DCF2FD"/>
<stop offset="1" stop-color="#76B3E1"/>
</linearGradient>
<linearGradient id="paint1_linear_286_1012" x1="44" y1="14.07" x2="33.68" y2="48.44" gradientUnits="userSpaceOnUse">
<stop stop-color="#76B3E1"/>
<stop offset="0.5" stop-color="#4377BB"/>
<stop offset="1" stop-color="#1F3B77"/>
</linearGradient>
<linearGradient id="paint2_linear_286_1012" x1="7.34" y1="29.06" x2="66.94" y2="69.58" gradientUnits="userSpaceOnUse">
<stop stop-color="#315AA9"/>
<stop offset="0.5" stop-color="#518AC8"/>
<stop offset="1" stop-color="#315AA9"/>
</linearGradient>
<linearGradient id="paint3_linear_286_1012" x1="34.25" y1="33.91" x2="10.2" y2="122.1" gradientUnits="userSpaceOnUse">
<stop stop-color="#4377BB"/>
<stop offset="0.5" stop-color="#1A336B"/>
<stop offset="1" stop-color="#1A336B"/>
</linearGradient>
<clipPath id="clip0_286_1012">
<rect width="382.23" height="70.7" fill="white"/>
</clipPath>
</defs>
</svg>
