<svg width="111" height="33" viewBox="0 0 111 33" fill="none" xmlns="http://www.w3.org/2000/svg">
<g clip-path="url(#clip0_311_3653)">
<path fill-rule="evenodd" clip-rule="evenodd" d="M95.5445 7.24557C96.5604 5.01741 98.1318 1.57581 98.2033 1.46306C98.4574 1.07112 98.8541 0.663093 99.603 0.381217C100.161 0.169138 101.06 0 102.523 0C104.277 0 105.298 0.260416 105.894 0.553032C107.195 1.19195 107.433 2.10467 107.436 2.91272L107.438 3.7154L107.872 3.70737C108.55 3.70737 109.103 3.82549 109.571 4.20669C109.878 4.45368 110.2 4.83485 110.399 5.5436C110.523 5.98924 110.618 6.70868 110.618 7.8657C110.618 9.00398 110.523 9.73685 110.396 10.2174C110.338 10.4321 110.269 10.6201 110.193 10.7838C110.184 10.9395 110.137 11.0952 110.047 11.2321L107.441 15.2536V17.5891C108.094 17.5945 108.632 17.7126 109.09 18.0858C109.396 18.3354 109.719 18.7139 109.917 19.4227C110.042 19.8683 110.137 20.5878 110.137 21.7448C110.137 23.1381 109.986 23.9515 109.806 24.4347C109.621 24.9314 105.714 31.5461 105.632 31.6186C105.632 31.6186 104.51 32.5769 103.092 32.5769H97.7138C96.939 32.5769 95.9864 32.3192 95.3407 31.5944C94.9097 31.1112 94.5949 30.4159 94.5949 29.4119V26.3756C93.2508 28.4079 91.1795 31.683 91.1691 31.6964C91.1691 31.6964 90.7008 32.6011 88.1504 32.6011H71.2672C70.3705 32.6011 69.6564 32.287 69.1534 31.7689C68.7831 31.3877 68.5238 30.8857 68.418 30.287C67.8916 31.1085 67.524 31.691 67.5214 31.6964C67.5214 31.6964 67.0505 32.6011 64.5001 32.6011H47.6168C46.7201 32.6011 46.0056 32.287 45.5056 31.7689C45.0109 31.2588 44.7122 30.5367 44.7122 29.6481C44.7122 26.373 44.7122 15.7153 44.7122 15.7368C44.7122 15.7368 44.7148 14.7516 45.3231 13.7556C45.8417 12.9019 49.8628 5.83352 50.175 5.36642C50.8072 4.42411 52.3339 3.92749 53.691 3.92749C55.0482 3.92749 64.5742 3.97582 66.6776 3.97582C68.8651 3.97582 70.1403 4.70602 70.9259 5.55166C71.6986 6.38656 72.0082 7.41739 72.1296 8.27644C72.9816 6.79725 73.6983 5.5543 73.8228 5.36642C74.455 4.42411 75.9842 3.92749 77.3414 3.92749C78.6985 3.92749 88.222 3.97582 90.328 3.97582C92.5154 3.97582 93.7906 4.70602 94.5763 5.55166C95.0554 6.06976 95.3568 6.66305 95.5445 7.24557ZM65.0213 17.6106C65.0213 17.4871 64.9736 17.369 64.889 17.2831C64.8045 17.1972 64.6878 17.1489 64.569 17.1489C62.4921 17.1542 54.0162 17.1757 54.0162 17.1757C52.4288 17.1757 50.802 16.3838 50.802 14.7838C50.802 14.2415 50.7595 9.44693 50.7595 9.28048C50.7595 6.61474 52.3018 5.49793 54.0613 5.49793H67.0028C70.8362 5.49793 70.8279 8.8939 70.8279 9.91936C70.8279 10.5851 70.955 11.4791 68.4341 11.4791C65.9127 11.4791 65.6591 11.0979 65.6591 10.7945C65.6591 10.4912 65.4553 10.322 65.2489 10.322C65.0425 10.322 58.9392 10.3301 57.011 10.3301C56.868 10.3301 56.7331 10.3891 56.6299 10.4912C56.5293 10.5932 56.4738 10.7328 56.4738 10.8778C56.4738 11.1623 56.4738 11.7234 56.4738 12.008C56.4738 12.1529 56.5293 12.2899 56.6299 12.3919C56.7331 12.4966 56.868 12.5529 57.011 12.5529C59.3152 12.5529 68.2251 12.5529 68.2251 12.5529C69.8094 12.5529 70.8279 13.3449 70.8279 14.9449V22.1824C70.8279 23.6025 69.7435 24.4428 67.9844 24.4428H54.3388C51.7702 24.4428 50.802 22.918 50.802 21.0146V19.3824C50.802 19.0334 51.0981 18.2576 53.6195 18.2576C56.1404 18.2576 56.2596 18.6039 56.3997 18.8858C56.5376 19.1623 56.7492 19.3824 57.011 19.3824C57.2729 19.3824 62.7913 19.3851 64.569 19.3851C64.6878 19.3851 64.8045 19.3368 64.889 19.2508C64.9736 19.1649 65.0213 19.0468 65.0213 18.9233C65.0213 18.5394 65.0213 17.9945 65.0213 17.6106ZM88.6716 17.6106C88.6716 17.4871 88.6239 17.369 88.5394 17.2831C88.4522 17.1972 88.3382 17.1489 88.2168 17.1489C86.1399 17.1542 77.664 17.1757 77.664 17.1757C76.0792 17.1757 74.4524 16.3838 74.4524 14.7838C74.4524 14.2415 74.4099 9.44693 74.4099 9.28048C74.4099 6.61474 75.9526 5.49793 77.7117 5.49793H90.6505C94.4839 5.49793 94.4783 8.8939 94.4783 9.91936C94.4783 10.5851 94.6054 11.4791 92.0818 11.4791C89.5605 11.4791 89.3068 11.0979 89.3068 10.7945C89.3068 10.4912 89.1057 10.322 88.8993 10.322C88.6929 10.322 82.5896 10.3301 80.6614 10.3301C80.5183 10.3301 80.3809 10.3891 80.2803 10.4912C80.1797 10.5932 80.1216 10.7328 80.1216 10.8778C80.1216 11.1623 80.1216 11.7234 80.1216 12.008C80.1216 12.1529 80.1797 12.2899 80.2803 12.3919C80.3809 12.4966 80.5183 12.5529 80.6614 12.5529C82.9655 12.5529 91.8755 12.5529 91.8755 12.5529C93.4598 12.5529 94.4783 13.3449 94.4783 14.9449V22.1824C94.4783 23.6025 93.3913 24.4428 91.6322 24.4428H77.9866C75.4206 24.4428 74.4524 22.918 74.4524 21.0146V19.3824C74.4524 19.0334 74.7485 18.2576 77.2698 18.2576C79.7908 18.2576 79.91 18.6039 80.0474 18.8858C80.1849 19.1623 80.3995 19.3824 80.6614 19.3824C80.9233 19.3824 86.4417 19.3851 88.2168 19.3851C88.3382 19.3851 88.4548 19.3368 88.5394 19.2508C88.6239 19.1649 88.6716 19.0468 88.6716 18.9233C88.6716 18.5394 88.6716 17.9945 88.6716 17.6106ZM99.9546 5.45499L99.9204 2.92616C99.9204 2.30334 99.9624 1.71005 102.73 1.71005C105.46 1.71005 105.73 2.3302 105.73 2.90201L105.737 5.45499L107.87 5.41741C108.486 5.41741 108.915 5.28854 108.915 7.8496C108.915 10.1395 108.536 10.416 108.047 10.4509V10.4536H105.737V18.3005C105.737 19.326 106.309 19.3314 106.309 19.3314L107.388 19.2992C108.002 19.2992 108.431 19.1677 108.431 21.7287C108.431 24.2871 107.962 24.3327 107.388 24.3327C107.388 24.3327 102.465 24.3327 101.381 24.3327C99.7799 24.3327 99.9546 23.1139 99.9546 22.3703V10.4536L99.1264 10.4563C98.5129 10.4563 98.0841 10.5852 98.0841 8.02679C98.0841 5.46572 98.5524 5.4201 99.1264 5.4201L99.9546 5.45499Z" fill="white"/>
<path fill-rule="evenodd" clip-rule="evenodd" d="M9.68518 26.6191C9.71103 26.5814 9.71371 26.5317 9.69212 26.4889C9.67049 26.4477 9.62812 26.422 9.58203 26.422C8.6051 26.422 4.79889 26.422 2.28709 26.422C1.68021 26.422 1.09813 26.1771 0.669178 25.742C0.240221 25.3068 -0.000505644 24.7158 7.97474e-07 24.0991C0.002533 20.8917 0.0070913 15.2793 0.00877945 13.3242C0.00911709 12.8687 0.126786 12.4212 0.350127 12.0262C1.15571 10.6014 3.18856 7.0062 4.24702 5.13413C4.65775 4.40778 5.41979 3.95999 6.24492 3.95999H29.8915C30.389 3.95999 30.8475 4.23408 31.0886 4.6757C31.3298 5.1175 31.3156 5.65712 31.0518 6.08541C30.1741 7.50916 29.0787 9.28628 28.5089 10.2107C28.4314 10.3364 28.4272 10.4949 28.4981 10.6245C28.5688 10.7543 28.7034 10.8347 28.8496 10.8347C30.1125 10.8347 32.7576 10.8347 34.6108 10.8347C35.724 10.8347 36.6265 11.7505 36.6265 12.8802C36.6265 15.6622 36.6265 20.5923 36.6265 23.2186C36.6265 24.3732 36.338 25.5107 35.788 26.5214C35.095 27.7959 33.9706 29.6015 33.2614 30.9052C32.7065 31.9262 31.6485 32.56 30.4998 32.56C25.8179 32.56 13.6881 32.56 8.30701 32.56C7.79836 32.56 7.33142 32.2756 7.0932 31.8182C6.85503 31.3626 6.88456 30.8109 7.17004 30.3844C8.13751 28.9351 9.29911 27.1981 9.68518 26.6191ZM13.1055 25.5364C12.6415 25.5364 12.2062 25.7642 11.9388 26.1497C11.2013 27.2118 9.69381 29.3822 8.93515 30.4735C8.84653 30.6019 8.83538 30.7681 8.90628 30.9069C8.97699 31.0456 9.11796 31.133 9.27192 31.133C12.6691 31.133 25.8488 31.133 29.9867 31.133C30.7496 31.133 31.4541 30.7185 31.8344 30.0469C32.3759 29.0927 33.3061 27.7017 33.8638 26.7184C34.0021 26.4751 34.0018 26.1737 33.8627 25.9304C33.7238 25.6854 33.4671 25.5364 33.1895 25.5364C29.0059 25.5364 16.3091 25.5364 13.1055 25.5364ZM7.26456 19.5154C6.48431 19.5182 5.74846 19.8837 5.26782 20.5076C4.58213 21.3979 3.56872 22.7132 2.81632 23.6897C2.62894 23.933 2.59467 24.2636 2.72804 24.5411C2.8614 24.8186 3.13909 24.995 3.44346 24.995C5.98598 24.995 10.6035 24.995 10.6035 24.995C10.8564 24.4537 11.3941 24.1077 11.9846 24.1077C14.8165 24.1077 23.0637 24.1077 25.8228 24.1077C26.3889 24.1077 26.9143 23.8096 27.2099 23.3196C27.7349 22.4494 28.5741 21.0582 29.0925 20.1989C29.1854 20.0449 29.1889 19.8519 29.1016 19.6946C29.0144 19.5372 28.8501 19.4399 28.672 19.4406C25.0719 19.4532 11.4562 19.5007 7.26456 19.5154ZM29.2578 22.9479C29.1143 23.1809 29.107 23.4772 29.239 23.7171C29.3711 23.9587 29.6214 24.1077 29.8932 24.1077C31.0769 24.1077 32.7816 24.1077 33.9086 24.1077C34.2184 24.1077 34.5157 23.9826 34.7348 23.7616C34.9537 23.5389 35.077 23.2374 35.077 22.9222C35.077 20.6448 35.077 15.6831 35.077 13.4242C35.077 12.7825 34.5643 12.2623 33.9319 12.2623C30.2656 12.2623 18.8426 12.2623 15.2003 12.2623C14.4977 12.2623 13.8439 12.6266 13.4669 13.2284C12.8025 14.2892 12.0288 15.9805 11.3745 17.0251C11.2583 17.2106 11.2509 17.4457 11.3553 17.6386C11.4596 17.8313 11.6591 17.951 11.8757 17.951C15.1674 17.951 24.8477 17.951 29.6621 17.951C30.1988 17.951 30.693 18.2462 30.9537 18.7223C31.2143 19.1982 31.2 19.7801 30.9165 20.2425C30.3517 21.1637 29.7249 22.1856 29.2578 22.9479ZM25.987 10.8347C26.1408 10.8347 26.2841 10.7559 26.3682 10.6252C26.8124 9.93502 28.2459 7.70716 29.0292 6.49004C29.133 6.32851 29.1415 6.12242 29.051 5.9528C28.9605 5.78322 28.7858 5.67753 28.5957 5.67753C25.144 5.67753 13.2708 5.67753 8.33163 5.67753C7.75279 5.67753 7.19757 5.91086 6.78834 6.32627C6.37899 6.7415 6.14905 7.30496 6.14905 7.89218C6.14905 10.0968 6.14905 13.4686 6.14905 15.7245C6.14905 16.3413 6.39807 16.9312 6.83799 17.3568C7.27774 17.7825 7.87029 18.0067 8.47732 17.9774C8.4775 17.9774 8.76328 17.9774 8.76328 17.9774C8.77091 17.9147 11.0732 13.8813 12.344 11.9041C12.7728 11.237 13.5046 10.8347 14.2894 10.8347C17.2572 10.8347 24.554 10.8347 25.987 10.8347Z" fill="white"/>
</g>
<defs>
<clipPath id="clip0_311_3653">
<rect width="111" height="33" fill="white"/>
</clipPath>
</defs>
</svg>
