<svg width="281" height="82" viewBox="0 0 281 82" fill="none" xmlns="http://www.w3.org/2000/svg">
<g clip-path="url(#clip0_293_2194)">
<path fill-rule="evenodd" clip-rule="evenodd" d="M239.727 22.6048C239.727 22.6048 248.338 4.2586 248.606 3.8581C249.245 2.88977 250.255 1.894 252.147 1.19724C253.559 0.681527 255.836 0.261902 259.539 0.261902C263.979 0.261902 266.568 0.906463 268.07 1.62243C271.365 3.1915 271.971 5.42996 271.978 7.4105L271.982 9.37736L273.084 9.36087C274.794 9.36087 276.194 9.64618 277.383 10.5816C278.157 11.1906 278.974 12.1232 279.48 13.8596C279.795 14.9541 280.034 16.7152 280.034 19.5544C280.034 22.3442 279.795 24.1464 279.468 25.3205C279.321 25.8526 279.147 26.3108 278.955 26.7113C278.935 27.0926 278.815 27.4712 278.59 27.8113L271.993 37.6728V43.3978C273.645 43.4115 275.004 43.705 276.162 44.6185C276.938 45.2274 277.755 46.1602 278.257 47.8966C278.575 48.9938 278.816 50.7521 278.816 53.5913C278.816 57.012 278.43 59.0063 277.975 60.1885C277.504 61.4093 267.617 77.6322 267.408 77.8078C267.408 77.8078 264.57 80.1587 260.981 80.1587H247.365C245.402 80.1587 242.994 79.5277 241.356 77.7474C240.268 76.5624 239.467 74.8589 239.467 72.3956V23.6334C239.467 23.2741 239.557 22.923 239.727 22.6048Z" fill="#E27152"/>
<path fill-rule="evenodd" clip-rule="evenodd" d="M180.279 30.7025C181.83 32.3457 182.79 34.595 182.79 37.533C182.79 40.4791 182.592 52.1924 182.494 57.8157C182.461 59.8073 181.83 61.7439 180.677 63.3815C177.46 67.9955 170.953 77.9614 170.928 77.997C170.928 77.997 169.739 80.2163 163.282 80.2163H120.54C118.275 80.2163 116.464 79.4427 115.197 78.1781C113.944 76.9273 113.19 75.1524 113.19 72.9744C113.19 64.9452 113.19 38.8085 113.19 38.8578C113.19 38.8578 113.199 36.4467 114.734 33.9997C116.045 31.9067 126.227 14.5701 127.017 13.4262C128.616 11.1137 132.484 9.90121 135.918 9.90121C139.354 9.90121 163.466 10.0137 168.796 10.0137C174.335 10.0137 177.561 11.805 179.55 13.8815C182.553 17.017 182.79 21.2908 182.79 23.4524C182.79 25.5372 182.606 27.7124 181.414 29.4269C181.11 29.8631 180.742 30.2965 180.279 30.7025Z" fill="#E27152"/>
<path fill-rule="evenodd" clip-rule="evenodd" d="M240.147 30.7025C241.7 32.3457 242.659 34.595 242.659 37.533C242.659 40.4791 242.461 52.1924 242.364 57.8157C242.33 59.8073 241.7 61.7439 240.547 63.3815C237.33 67.9955 230.822 77.9614 230.798 77.997C230.798 77.997 229.609 80.2163 223.151 80.2163H180.41C178.144 80.2163 176.333 79.4427 175.066 78.1781C173.813 76.9273 173.06 75.1524 173.06 72.9744C173.06 64.9452 173.06 38.8085 173.06 38.8578C173.06 38.8578 173.069 36.4467 174.603 33.9997C175.915 31.9067 186.097 14.5701 186.887 13.4262C188.485 11.1137 192.353 9.90121 195.788 9.90121C199.224 9.90121 223.336 10.0137 228.665 10.0137C234.204 10.0137 237.43 11.805 239.42 13.8815C242.422 17.017 242.659 21.2908 242.659 23.4524C242.659 25.5372 242.476 27.7124 241.284 29.4269C240.979 29.8631 240.611 30.2965 240.147 30.7025Z" fill="#E27152"/>
<path d="M253.037 13.643L252.95 7.44342C252.95 5.91273 253.056 4.45892 260.063 4.45892C266.972 4.45892 267.654 5.98133 267.659 7.38582L267.672 13.643L273.075 13.5551C274.632 13.5551 275.718 13.2397 275.718 19.5132C275.718 25.1339 274.766 25.8116 273.522 25.8938V25.8993H267.672V45.1452C267.672 47.658 269.123 47.6744 269.123 47.6744L271.853 47.5922C273.413 47.5922 274.499 47.2765 274.499 53.5529C274.499 59.8265 273.31 59.9418 271.853 59.9418C271.853 59.9418 259.394 59.9418 256.647 59.9418C252.596 59.9418 253.037 56.9462 253.037 55.1275V25.8993L250.944 25.9075C249.386 25.9075 248.302 26.223 248.302 19.9468C248.302 13.6732 249.487 13.5579 250.944 13.5579L253.037 13.643Z" fill="#FFFBF9"/>
<path fill-rule="evenodd" clip-rule="evenodd" d="M164.604 43.4527C164.604 43.151 164.485 42.8656 164.266 42.6516C164.052 42.4405 163.759 42.3225 163.455 42.3225C158.197 42.3362 136.739 42.3884 136.739 42.3884C132.726 42.3884 128.605 40.4463 128.605 36.5208C128.605 35.1877 128.499 23.4333 128.499 23.0245C128.499 16.4848 132.403 13.75 136.856 13.75H169.616C179.322 13.75 179.302 22.0782 179.302 24.5937C179.302 26.2258 179.623 28.4203 173.241 28.4203C166.857 28.4203 166.211 27.4821 166.211 26.7387C166.211 25.9954 165.704 25.5811 165.18 25.5811C164.655 25.5811 149.207 25.603 144.326 25.603C143.963 25.603 143.617 25.743 143.36 25.9954C143.107 26.2449 142.962 26.5852 142.962 26.9417C142.962 27.6385 142.962 29.0156 142.962 29.7123C142.962 30.0662 143.107 30.4064 143.36 30.6587C143.617 30.9111 143.963 31.051 144.326 31.051C150.156 31.051 172.714 31.051 172.714 31.051C176.726 31.051 179.302 32.9904 179.302 36.9186V54.6612C179.302 58.1477 176.554 60.2105 172.099 60.2105H137.557C131.058 60.2105 128.605 56.4716 128.605 51.8001V47.7978C128.605 46.9419 129.355 45.041 135.741 45.041C142.122 45.041 142.423 45.8914 142.775 46.5799C143.121 47.263 143.662 47.7978 144.326 47.7978C144.987 47.7978 158.957 47.8033 163.455 47.806C163.761 47.806 164.052 47.6854 164.27 47.4742C164.485 47.263 164.604 46.975 164.604 46.6759C164.604 45.7322 164.604 44.3964 164.604 43.4527Z" fill="#FFFBF9"/>
<path fill-rule="evenodd" clip-rule="evenodd" d="M224.474 43.4527C224.474 43.151 224.354 42.8656 224.136 42.6516C223.921 42.4405 223.628 42.3225 223.324 42.3225C218.067 42.3362 196.609 42.3884 196.609 42.3884C192.596 42.3884 188.474 40.4463 188.474 36.5208C188.474 35.1877 188.368 23.4333 188.368 23.0245C188.368 16.4848 192.272 13.75 196.725 13.75H229.486C239.19 13.75 239.172 22.0782 239.172 24.5937C239.172 26.2258 239.492 28.4203 233.11 28.4203C226.725 28.4203 226.081 27.4821 226.081 26.7387C226.081 25.9954 225.574 25.5811 225.049 25.5811C224.524 25.5811 209.076 25.603 204.193 25.603C203.833 25.603 203.487 25.743 203.23 25.9954C202.976 26.2449 202.831 26.5852 202.831 26.9417C202.831 27.6385 202.831 29.0156 202.831 29.7123C202.831 30.0662 202.976 30.4064 203.23 30.6587C203.487 30.9111 203.833 31.051 204.193 31.051C210.024 31.051 232.582 31.051 232.582 31.051C236.595 31.051 239.172 32.9904 239.172 36.9186V54.6612C239.172 58.1477 236.423 60.2105 231.969 60.2105H197.426C190.927 60.2105 188.474 56.4716 188.474 51.8001V47.7978C188.474 46.9419 189.225 45.041 195.609 45.041C201.991 45.041 202.293 45.8914 202.644 46.5799C202.991 47.263 203.532 47.7978 204.193 47.7978C204.857 47.7978 218.825 47.8033 223.324 47.806C223.631 47.806 223.921 47.6854 224.139 47.4742C224.353 47.263 224.474 46.975 224.474 46.6759C224.474 45.7322 224.474 44.3964 224.474 43.4527Z" fill="#FFFBF9"/>
<path fill-rule="evenodd" clip-rule="evenodd" d="M24.5179 65.5441C24.5834 65.4491 24.5902 65.3264 24.5356 65.2242C24.4809 65.1234 24.3737 65.0606 24.2569 65.0606C21.7838 65.0606 12.1483 65.0606 5.78987 65.0606C4.25335 65.0606 2.77996 64.4605 1.69416 63.3915C0.608196 62.3225 -0.00133482 60.8737 2.19492e-06 59.3637C0.00653872 51.4966 0.0181265 37.7324 0.0221375 32.9379C0.0230289 31.8208 0.321036 30.7241 0.886445 29.7543C2.92584 26.261 8.07172 17.4447 10.7514 12.8532C11.791 11.0716 13.7203 9.97333 15.8092 9.97333H75.6702C76.93 9.97333 78.0903 10.6466 78.701 11.7287C79.3114 12.8124 79.2757 14.1354 78.6077 15.1855C76.3858 18.6772 73.6126 23.0365 72.1702 25.303C71.9741 25.6112 71.9636 25.9997 72.1429 26.318C72.3221 26.6364 72.6629 26.8336 73.0326 26.8336C76.23 26.8336 82.9262 26.8336 87.6174 26.8336C90.4357 26.8336 92.7201 29.0796 92.7201 31.8499V57.2023C92.7201 60.0354 91.9899 62.8234 90.5974 65.3031C88.8432 68.4284 85.9965 72.8562 84.2014 76.0545C82.7963 78.5576 80.1184 80.1114 77.2104 80.1114H21.0292C19.7417 80.1114 18.5594 79.4119 17.9564 78.2932C17.3534 77.1761 17.4283 75.8208 18.1508 74.7737C20.6002 71.2235 23.5406 66.9606 24.5179 65.5441Z" fill="#E27152"/>
<path fill-rule="evenodd" clip-rule="evenodd" d="M33.1765 62.8848C32.0016 62.8848 30.9002 63.4469 30.2233 64.3903C28.3561 66.9942 24.54 72.3158 22.6195 74.9942C22.395 75.3083 22.3668 75.7171 22.546 76.0574C22.7254 76.3977 23.0823 76.6109 23.4717 76.6109C32.0718 76.6109 65.4362 76.6109 75.9116 76.6109C77.8426 76.6109 79.6261 75.5959 80.5888 73.9501C81.9596 71.6062 84.3146 68.1991 85.7261 65.785C86.0766 65.1862 86.0756 64.4487 85.7236 63.8515C85.3716 63.2527 84.7219 62.8848 84.0191 62.8848C73.4284 62.8848 41.2863 62.8848 33.1765 62.8848Z" fill="#FFFBF9"/>
<path fill-rule="evenodd" clip-rule="evenodd" d="M18.3903 48.1215C16.4153 48.1274 14.5523 49.0241 13.3357 50.5546C11.5993 52.7379 9.03438 55.9638 7.12958 58.3589C6.65509 58.9547 6.56833 59.7652 6.90601 60.4458C7.24352 61.1277 7.94665 61.5586 8.71706 61.5586H26.843C27.483 60.231 28.8442 59.3841 30.3393 59.3841C37.5078 59.3841 58.3856 59.3841 65.3704 59.3841C66.8035 59.3841 68.1336 58.651 68.8819 57.449C70.2112 55.3154 72.3354 51.9054 73.6478 49.7981C73.8829 49.4199 73.8919 48.9467 73.6709 48.5611C73.4501 48.1741 73.034 47.9361 72.5834 47.9376C63.4695 47.9682 29.0013 48.0851 18.3903 48.1215Z" fill="#FFFBF9"/>
<path fill-rule="evenodd" clip-rule="evenodd" d="M74.0663 56.5378C73.7029 57.1117 73.6845 57.8347 74.0187 58.4261C74.3528 59.0176 74.9867 59.3841 75.6746 59.3841H85.8397C86.624 59.3841 87.3764 59.0774 87.9309 58.5327C88.4857 57.9865 88.7972 57.2476 88.7972 56.4765C88.7972 50.8905 88.7972 38.7225 88.7972 33.1833C88.7972 31.609 87.4995 30.3341 85.8987 30.3341C76.6173 30.3341 47.7004 30.3341 38.4794 30.3341C36.7009 30.3341 35.0457 31.2279 34.0916 32.7028C32.4094 35.3053 30.4512 39.4527 28.7947 42.0142C28.5004 42.4684 28.4816 43.0453 28.7458 43.5184C29.0098 43.9916 29.5149 44.2852 30.0635 44.2852H75.0898C76.448 44.2852 77.6997 45.0096 78.3594 46.1763C79.0189 47.3432 78.983 48.7701 78.2653 49.9048C76.8354 52.164 75.2487 54.67 74.0663 56.5378Z" fill="#FFFBF9"/>
<path fill-rule="evenodd" clip-rule="evenodd" d="M65.7862 26.8335C66.1755 26.8335 66.5385 26.6393 66.7513 26.3195C67.8755 24.6269 71.5046 19.1636 73.4874 16.1785C73.7503 15.7827 73.7716 15.276 73.5427 14.8612C73.3136 14.445 72.8713 14.1865 72.3903 14.1865C63.6523 14.1865 33.5951 14.1865 21.0915 14.1865C19.6261 14.1865 18.2209 14.7575 17.1847 15.7769C16.1487 16.7948 15.5665 18.1763 15.5665 19.6178C15.5665 25.0241 15.5665 33.2929 15.5665 38.8248C15.5665 40.3377 16.1967 41.7834 17.3103 42.8276C18.4238 43.8718 19.9236 44.421 21.4605 44.3494C21.4608 44.3494 22.1846 44.3494 22.1846 44.3494C22.2036 44.1961 28.032 34.3048 31.2489 29.4549C32.3343 27.8193 34.1868 26.8335 36.1738 26.8335C43.6865 26.8335 62.1585 26.8335 65.7862 26.8335Z" fill="#FFFBF9"/>
</g>
<defs>
<clipPath id="clip0_293_2194">
<rect width="281" height="80.9286" fill="white" transform="translate(0 0.261902)"/>
</clipPath>
</defs>
</svg>
