<svg version="1.2" xmlns="http://www.w3.org/2000/svg" viewBox="0 0 1631 472" width="1631" height="472">
	<title>logo-light-svg</title>
	<style>
		.s0 { fill: #00c98d } 
		.s1 { opacity: .4;fill: #ffffff } 
		.s2 { fill: #ffffff } 
	</style>
	<path id="Layer" class="s0" d="m35.8 377.6c58.6 58.6 153.5 58.6 212.1 0 58.6-58.6 58.6-153.5 0-212.1l35.4-35.4c78.1 78.1 78.1 204.8 0 282.9-78.1 78.1-204.8 78.1-282.9 0z"/>
	<path id="Layer" class="s0" d="m106.5 306.9c19.5 19.5 51.2 19.5 70.7 0 19.5-19.5 19.5-51.2 0-70.7l35.4-35.4c39 39.1 39 102.4 0 141.5-39.1 39-102.4 39-141.5 0z"/>
	<path id="Layer" class="s0" d="m318.6 94.8c-58.6-58.6-153.5-58.6-212.1 0-58.6 58.6-58.6 153.5 0 212.1l-35.4 35.4c-78.1-78.1-78.1-204.8 0-282.9 78.1-78.1 204.8-78.1 282.9 0z"/>
	<path id="Layer" class="s0" d="m247.9 165.5c-19.5-19.5-51.2-19.5-70.7 0-19.5 19.5-19.5 51.2 0 70.7l-35.4 35.4c-39-39.1-39-102.4 0-141.5 39.1-39 102.4-39 141.5 0z"/>
	<path id="Layer" class="s1" d="m318.6 94.8c-58.6-58.6-153.5-58.6-212.1 0-58.6 58.6-58.6 153.5 0 212.1l-35.4 35.4c-78.1-78.1-78.1-204.8 0-282.9 78.1-78.1 204.8-78.1 282.9 0z"/>
	<path id="Layer" class="s1" d="m247.9 165.5c-19.5-19.5-51.2-19.5-70.7 0-19.5 19.5-19.5 51.2 0 70.7l-35.4 35.4c-39-39.1-39-102.4 0-141.5 39.1-39 102.4-39 141.5 0z"/>
	<path id="Layer" fill-rule="evenodd" class="s2" d="m588.1 169.4h38.6v163.6h-37.4v-29.1h-1.7c-7.5 18.3-24.7 31.2-49.2 31.2-32.2 0-54.6-22.2-54.6-61.5v-104.2h38.6v98.2c0 20.8 12.3 33.9 30.9 33.9 17 0 34.8-12.4 34.8-37.3zm72.2 0h38v27h2.2c5.9-11.8 17.9-29.2 46.8-29.2 37.8 0 67.5 29.7 67.5 84.2 0 53.9-28.9 84.5-67.4 84.5-28.2 0-40.8-16.7-46.9-28.7h-1.6v87.2h-38.6zm76.3 134.9c25.5 0 38.9-22.4 38.9-53.1 0-30.5-13.2-52.3-38.9-52.3-24.8 0-38.4 20.5-38.4 52.3 0 31.7 13.8 53.1 38.4 53.1zm199.4-87.8c-3-10.8-12.3-20.5-30.1-20.5-16.1 0-28.4 7.7-28.3 18.8-0.1 9.4 6.5 15.2 23.1 18.9l28 6c30.9 6.7 45.9 21 46 44.3-0.1 31-29 52.2-69.9 52.2-40.2 0-65.4-17.8-70.2-47.8l37.6-3.6c3.3 14.7 14.8 22.3 32.5 22.3 18.3 0 30.5-8.4 30.5-19.6 0-9.2-7.1-15.3-22.1-18.6l-27.9-5.9c-31.4-6.5-46.1-22.2-46-46.1-0.1-30.3 26.7-49.7 66.1-49.7 38.4 0 60.5 17.7 65.9 45.4zm146.1-17.2h-32.2v84.6c0 15.5 7.7 18.9 17.4 18.9 4.8 0 9.2-0.9 11.3-1.5l6.5 30.2c-4.1 1.4-11.7 3.5-22.7 3.8-28.9 0.9-51.3-14.3-51.1-45v-91h-23.2v-29.9h23.2v-39.2h38.6v39.2h32.2zm18.6 87.9c0-36.8 30.4-46.3 62.1-49.7 28.9-3.1 40.5-3.6 40.5-14.7v-0.7c0-16-9.8-25.2-27.7-25.2-18.8 0-29.7 9.6-33.5 20.8l-36-5.1c8.5-29.9 34.9-45.2 69.3-45.2 31.2 0 66.5 13 66.5 56.2v109.5h-37.1v-22.4h-1.3c-7 13.7-22.3 25.8-48 25.8-31.2 0-54.8-17.1-54.8-49.3zm102.7-12.8v-19.2c-5 4-25.2 6.6-35.3 8-17.3 2.4-30.2 8.6-30.2 23.4 0 14.2 11.5 21.5 27.6 21.5 23.2 0 37.9-15.4 37.9-33.7zm165.4-57.8c-2.9-10.8-12.3-20.5-30.1-20.5-16.1 0-28.3 7.7-28.2 18.8-0.1 9.5 6.5 15.2 23.1 19l27.9 5.9c30.9 6.7 45.9 21 46 44.3-0.1 31-29 52.2-69.9 52.2-40.1 0-65.4-17.7-70.2-47.8l37.6-3.6c3.3 14.7 14.8 22.4 32.5 22.4 18.3 0 30.5-8.5 30.5-19.6 0-9.3-7-15.4-22.1-18.7l-27.9-5.8c-31.4-6.5-46.1-22.3-46-46.2-0.1-30.2 26.7-49.6 66.2-49.6 38.3 0 60.5 17.7 65.8 45.4zm103 116.5h-38.5v-218.2h37.7v82.4h1.9c7.6-18.6 23.6-30 48.7-30 34 0 56.4 22.1 56.4 61.6v104.2h-38.6v-98.2c0-22.1-11.9-35-32.2-35-20.7 0-35.4 13.7-35.4 37.3z"/>
</svg>